<svg width="70" height="17" viewBox="0 0 70 17" fill="none" xmlns="http://www.w3.org/2000/svg">
<rect x="0.0507812" y="0.681641" width="69" height="16" rx="8" fill="#CCEBFF"/>
<path d="M3.87409 6.64498L7.53246 4.8158C7.70137 4.73135 7.9002 4.73135 8.06911 4.8158L11.7275 6.64498C12.1697 6.8661 12.1697 7.49718 11.7275 7.7183L8.06911 9.54748C7.9002 9.63193 7.70137 9.63193 7.53246 9.54748L3.87409 7.7183C3.43187 7.49718 3.43186 6.8661 3.87409 6.64498Z" stroke="#3498DB" stroke-linecap="round" stroke-linejoin="round"/>
<path d="M13.3008 9.18164L13.3008 7.43164L12.3008 6.93164" stroke="#3498DB" stroke-linecap="round" stroke-linejoin="round"/>
<path d="M4.30078 7.93164V10.0055C4.30078 10.7777 4.74537 11.481 5.44298 11.8122L6.94298 12.5244C7.48581 12.7821 8.11575 12.7821 8.65858 12.5244L10.1586 11.8122C10.8562 11.481 11.3008 10.7777 11.3008 10.0055V7.93164" stroke="#3498DB" stroke-linecap="round" stroke-linejoin="round"/>
<path d="M18.1608 12.6816L20.8308 5.23164H21.9908L24.6608 12.6816H23.6108L23.0008 10.9316H19.8208L19.2108 12.6816H18.1608ZM20.1308 10.0316H22.6908L21.2708 5.94164H21.5508L20.1308 10.0316ZM25.4895 12.6816V5.11164H26.4195V10.3016L26.0395 10.2116L28.8995 7.29164H30.0895L28.0195 9.46164L30.2295 12.6816H29.1295L27.1095 9.76164L27.6895 9.73164L26.1195 11.3716L26.4195 10.6916V12.6816H25.4895ZM32.6457 12.8016C32.2924 12.8016 31.979 12.7383 31.7057 12.6116C31.439 12.4783 31.229 12.2983 31.0757 12.0716C30.9224 11.8383 30.8457 11.5716 30.8457 11.2716C30.8457 10.985 30.9057 10.7283 31.0257 10.5016C31.1524 10.2683 31.3457 10.0716 31.6057 9.91164C31.8724 9.75164 32.2057 9.63831 32.6057 9.57164L34.6057 9.24164V10.0216L32.8157 10.3216C32.469 10.3816 32.2157 10.4916 32.0557 10.6516C31.9024 10.8116 31.8257 11.0083 31.8257 11.2416C31.8257 11.4616 31.9124 11.645 32.0857 11.7916C32.2657 11.9383 32.489 12.0116 32.7557 12.0116C33.0957 12.0116 33.389 11.9416 33.6357 11.8016C33.889 11.655 34.0857 11.4583 34.2257 11.2116C34.3724 10.965 34.4457 10.6916 34.4457 10.3916V9.02164C34.4457 8.72831 34.3357 8.49164 34.1157 8.31164C33.9024 8.12497 33.619 8.03164 33.2657 8.03164C32.959 8.03164 32.6857 8.11164 32.4457 8.27164C32.2124 8.42497 32.039 8.63164 31.9257 8.89164L31.1157 8.47164C31.2157 8.22497 31.3757 8.00497 31.5957 7.81164C31.8157 7.61164 32.0724 7.45497 32.3657 7.34164C32.659 7.22831 32.9657 7.17164 33.2857 7.17164C33.699 7.17164 34.0624 7.25164 34.3757 7.41164C34.689 7.56497 34.9324 7.78164 35.1057 8.06164C35.2857 8.33497 35.3757 8.65497 35.3757 9.02164V12.6816H34.4657V11.6616L34.6357 11.7216C34.5224 11.935 34.369 12.1216 34.1757 12.2816C33.9824 12.4416 33.7557 12.5683 33.4957 12.6616C33.2357 12.755 32.9524 12.8016 32.6457 12.8016ZM39.2677 12.8016C38.761 12.8016 38.3043 12.6783 37.8977 12.4316C37.4977 12.185 37.181 11.8483 36.9477 11.4216C36.7143 10.995 36.5977 10.5183 36.5977 9.99164C36.5977 9.45164 36.7143 8.97164 36.9477 8.55164C37.181 8.12497 37.4977 7.78831 37.8977 7.54164C38.3043 7.29497 38.761 7.17164 39.2677 7.17164C39.7143 7.17164 40.111 7.26831 40.4577 7.46164C40.8043 7.64831 41.0777 7.90164 41.2777 8.22164L41.1277 8.45164V5.11164H42.0677V12.6816H41.1577V11.5316L41.2777 11.6916C41.091 12.045 40.8177 12.3183 40.4577 12.5116C40.1043 12.705 39.7077 12.8016 39.2677 12.8016ZM39.3477 11.9016C39.6877 11.9016 39.991 11.8183 40.2577 11.6516C40.5243 11.485 40.7343 11.2583 40.8877 10.9716C41.0477 10.6783 41.1277 10.3516 41.1277 9.99164C41.1277 9.62497 41.0477 9.29831 40.8877 9.01164C40.7343 8.71831 40.5243 8.48831 40.2577 8.32164C39.991 8.15497 39.6877 8.07164 39.3477 8.07164C39.0143 8.07164 38.711 8.15831 38.4377 8.33164C38.171 8.49831 37.961 8.72497 37.8077 9.01164C37.6543 9.29164 37.5777 9.61831 37.5777 9.99164C37.5777 10.3516 37.6543 10.6783 37.8077 10.9716C37.961 11.2583 38.171 11.485 38.4377 11.6516C38.7043 11.8183 39.0077 11.9016 39.3477 11.9016ZM45.9871 12.8016C45.4671 12.8016 45.0038 12.6783 44.5971 12.4316C44.1904 12.185 43.8704 11.8483 43.6371 11.4216C43.4038 10.9883 43.2871 10.505 43.2871 9.97164C43.2871 9.43164 43.4004 8.95164 43.6271 8.53164C43.8604 8.11164 44.1738 7.78164 44.5671 7.54164C44.9671 7.29497 45.4138 7.17164 45.9071 7.17164C46.3071 7.17164 46.6604 7.24497 46.9671 7.39164C47.2804 7.53164 47.5438 7.72497 47.7571 7.97164C47.9771 8.21164 48.1438 8.48831 48.2571 8.80164C48.3771 9.10831 48.4371 9.42831 48.4371 9.76164C48.4371 9.83497 48.4304 9.91831 48.4171 10.0116C48.4104 10.0983 48.4004 10.1816 48.3871 10.2616H43.9671V9.46164H47.8471L47.4071 9.82164C47.4671 9.47497 47.4338 9.16497 47.3071 8.89164C47.1804 8.61831 46.9938 8.40164 46.7471 8.24164C46.5004 8.08164 46.2204 8.00164 45.9071 8.00164C45.5938 8.00164 45.3071 8.08164 45.0471 8.24164C44.7871 8.40164 44.5838 8.63164 44.4371 8.93164C44.2971 9.22497 44.2404 9.57497 44.2671 9.98164C44.2404 10.375 44.3004 10.7216 44.4471 11.0216C44.6004 11.315 44.8138 11.545 45.0871 11.7116C45.3671 11.8716 45.6704 11.9516 45.9971 11.9516C46.3571 11.9516 46.6604 11.8683 46.9071 11.7016C47.1538 11.535 47.3538 11.3216 47.5071 11.0616L48.2871 11.4616C48.1804 11.7083 48.0138 11.935 47.7871 12.1416C47.5671 12.3416 47.3038 12.5016 46.9971 12.6216C46.6971 12.7416 46.3604 12.8016 45.9871 12.8016ZM49.6497 12.6816V7.29164H50.5597V8.39164L50.4297 8.22164C50.563 7.88164 50.7764 7.62164 51.0697 7.44164C51.363 7.26164 51.693 7.17164 52.0597 7.17164C52.4797 7.17164 52.8564 7.28831 53.1897 7.52164C53.5297 7.75497 53.763 8.06164 53.8897 8.44164L53.6297 8.45164C53.7697 8.03164 54.0064 7.71497 54.3397 7.50164C54.673 7.28164 55.043 7.17164 55.4497 7.17164C55.823 7.17164 56.1597 7.25831 56.4597 7.43164C56.7664 7.60497 57.0097 7.84497 57.1897 8.15164C57.3697 8.45831 57.4597 8.80497 57.4597 9.19164V12.6816H56.5197V9.49164C56.5197 9.19164 56.4664 8.93831 56.3597 8.73164C56.253 8.52497 56.1064 8.36497 55.9197 8.25164C55.7397 8.13164 55.5264 8.07164 55.2797 8.07164C55.0397 8.07164 54.823 8.13164 54.6297 8.25164C54.443 8.36497 54.293 8.52831 54.1797 8.74164C54.073 8.94831 54.0197 9.19831 54.0197 9.49164V12.6816H53.0797V9.49164C53.0797 9.19164 53.0264 8.93831 52.9197 8.73164C52.813 8.52497 52.6664 8.36497 52.4797 8.25164C52.2997 8.13164 52.0864 8.07164 51.8397 8.07164C51.5997 8.07164 51.383 8.13164 51.1897 8.25164C51.003 8.36497 50.853 8.52831 50.7397 8.74164C50.633 8.94831 50.5797 9.19831 50.5797 9.49164V12.6816H49.6497ZM58.7805 12.6816V7.29164H59.7105V12.6816H58.7805ZM58.7805 6.43164V5.23164H59.7105V6.43164H58.7805ZM61.1536 12.6816V5.11164H62.0836V10.3016L61.7036 10.2116L64.5636 7.29164H65.7536L63.6836 9.46164L65.8936 12.6816H64.7936L62.7736 9.76164L63.3536 9.73164L61.7836 11.3716L62.0836 10.6916V12.6816H61.1536Z" fill="#3498DB"/>
</svg>
