<svg width="65" height="17" viewBox="0 0 65 17" fill="none" xmlns="http://www.w3.org/2000/svg">
<rect x="0.851562" y="0.701172" width="64" height="16" rx="8" fill="#DFEAFF"/>
<path d="M5.35156 8.70117H6.85156L8.35156 4.20117L11.3516 13.2012L12.8516 8.70117H14.3516" stroke="#5263F3" stroke-linecap="round" stroke-linejoin="round"/>
<path d="M19.9616 12.7012L22.6316 5.25117H23.7916L26.4616 12.7012H25.4116L24.8016 10.9512H21.6216L21.0116 12.7012H19.9616ZM21.9316 10.0512H24.4916L23.0716 5.96117H23.3516L21.9316 10.0512ZM27.2903 12.7012V5.13117H28.2203V10.3212L27.8403 10.2312L30.7003 7.31117H31.8903L29.8203 9.48117L32.0303 12.7012H30.9303L28.9103 9.78117L29.4903 9.75117L27.9203 11.3912L28.2203 10.7112V12.7012H27.2903ZM35.0565 12.7612C34.5298 12.7612 34.1232 12.6112 33.8365 12.3112C33.5565 12.0112 33.4165 11.5878 33.4165 11.0412V8.20117H32.4365V7.31117H32.6365C32.8765 7.31117 33.0665 7.23784 33.2065 7.09117C33.3465 6.94451 33.4165 6.75117 33.4165 6.51117V6.07117H34.3465V7.31117H35.5565V8.20117H34.3465V11.0112C34.3465 11.1912 34.3732 11.3478 34.4265 11.4812C34.4865 11.6145 34.5832 11.7212 34.7165 11.8012C34.8498 11.8745 35.0265 11.9112 35.2465 11.9112C35.2932 11.9112 35.3498 11.9078 35.4165 11.9012C35.4898 11.8945 35.5565 11.8878 35.6165 11.8812V12.7012C35.5298 12.7212 35.4332 12.7345 35.3265 12.7412C35.2198 12.7545 35.1298 12.7612 35.0565 12.7612ZM36.8313 12.7012V7.31117H37.7613V12.7012H36.8313ZM36.8313 6.45117V5.25117H37.7613V6.45117H36.8313ZM40.7044 12.7012L38.5944 7.31117H39.6344L41.3244 11.8712H40.9644L42.6644 7.31117H43.7044L41.5844 12.7012H40.7044ZM44.5364 12.7012V7.31117H45.4664V12.7012H44.5364ZM44.5364 6.45117V5.25117H45.4664V6.45117H44.5364ZM49.0995 12.7612C48.5728 12.7612 48.1661 12.6112 47.8795 12.3112C47.5995 12.0112 47.4595 11.5878 47.4595 11.0412V8.20117H46.4795V7.31117H46.6795C46.9195 7.31117 47.1095 7.23784 47.2495 7.09117C47.3895 6.94451 47.4595 6.75117 47.4595 6.51117V6.07117H48.3895V7.31117H49.5995V8.20117H48.3895V11.0112C48.3895 11.1912 48.4161 11.3478 48.4695 11.4812C48.5295 11.6145 48.6261 11.7212 48.7595 11.8012C48.8928 11.8745 49.0695 11.9112 49.2895 11.9112C49.3361 11.9112 49.3928 11.9078 49.4595 11.9012C49.5328 11.8945 49.5995 11.8878 49.6595 11.8812V12.7012C49.5728 12.7212 49.4761 12.7345 49.3695 12.7412C49.2628 12.7545 49.1728 12.7612 49.0995 12.7612ZM52.3859 12.8212C52.0326 12.8212 51.7193 12.7578 51.4459 12.6312C51.1793 12.4978 50.9693 12.3178 50.8159 12.0912C50.6626 11.8578 50.5859 11.5912 50.5859 11.2912C50.5859 11.0045 50.6459 10.7478 50.7659 10.5212C50.8926 10.2878 51.0859 10.0912 51.3459 9.93117C51.6126 9.77117 51.9459 9.65784 52.3459 9.59117L54.3459 9.26117V10.0412L52.5559 10.3412C52.2093 10.4012 51.9559 10.5112 51.7959 10.6712C51.6426 10.8312 51.5659 11.0278 51.5659 11.2612C51.5659 11.4812 51.6526 11.6645 51.8259 11.8112C52.0059 11.9578 52.2293 12.0312 52.4959 12.0312C52.8359 12.0312 53.1293 11.9612 53.3759 11.8212C53.6293 11.6745 53.8259 11.4778 53.9659 11.2312C54.1126 10.9845 54.1859 10.7112 54.1859 10.4112V9.04117C54.1859 8.74784 54.0759 8.51117 53.8559 8.33117C53.6426 8.1445 53.3593 8.05117 53.0059 8.05117C52.6993 8.05117 52.4259 8.13117 52.1859 8.29117C51.9526 8.44451 51.7793 8.65117 51.6659 8.91117L50.8559 8.49117C50.9559 8.2445 51.1159 8.0245 51.3359 7.83117C51.5559 7.63117 51.8126 7.4745 52.1059 7.36117C52.3993 7.24784 52.7059 7.19117 53.0259 7.19117C53.4393 7.19117 53.8026 7.27117 54.1159 7.43117C54.4293 7.58451 54.6726 7.80117 54.8459 8.08117C55.0259 8.3545 55.1159 8.6745 55.1159 9.04117V12.7012H54.2059V11.6812L54.3759 11.7412C54.2626 11.9545 54.1093 12.1412 53.9159 12.3012C53.7226 12.4612 53.4959 12.5878 53.2359 12.6812C52.9759 12.7745 52.6926 12.8212 52.3859 12.8212ZM58.4879 12.8212C57.9479 12.8212 57.4779 12.6878 57.0779 12.4212C56.6779 12.1545 56.3946 11.7945 56.2279 11.3412L56.9679 10.9812C57.1212 11.3012 57.3312 11.5545 57.5979 11.7412C57.8646 11.9278 58.1612 12.0212 58.4879 12.0212C58.7812 12.0212 59.0246 11.9512 59.2179 11.8112C59.4112 11.6712 59.5079 11.4878 59.5079 11.2612C59.5079 11.1012 59.4612 10.9745 59.3679 10.8812C59.2812 10.7812 59.1746 10.7045 59.0479 10.6512C58.9212 10.5912 58.8046 10.5478 58.6979 10.5212L57.8879 10.2912C57.4012 10.1512 57.0446 9.95117 56.8179 9.69117C56.5979 9.43117 56.4879 9.12784 56.4879 8.78117C56.4879 8.46117 56.5679 8.1845 56.7279 7.95117C56.8946 7.71117 57.1179 7.5245 57.3979 7.39117C57.6846 7.25784 58.0046 7.19117 58.3579 7.19117C58.8312 7.19117 59.2546 7.31117 59.6279 7.55117C60.0079 7.79117 60.2779 8.12784 60.4379 8.56117L59.6779 8.91117C59.5579 8.63117 59.3779 8.41117 59.1379 8.25117C58.8979 8.0845 58.6279 8.00117 58.3279 8.00117C58.0546 8.00117 57.8379 8.07117 57.6779 8.21117C57.5179 8.3445 57.4379 8.5145 57.4379 8.72117C57.4379 8.8745 57.4779 9.00117 57.5579 9.10117C57.6379 9.19451 57.7346 9.26784 57.8479 9.32117C57.9612 9.36784 58.0712 9.40784 58.1779 9.44117L59.0579 9.70117C59.4979 9.82784 59.8379 10.0245 60.0779 10.2912C60.3246 10.5578 60.4479 10.8778 60.4479 11.2512C60.4479 11.5512 60.3646 11.8212 60.1979 12.0612C60.0312 12.3012 59.8012 12.4878 59.5079 12.6212C59.2146 12.7545 58.8746 12.8212 58.4879 12.8212Z" fill="#5263F3"/>
</svg>
