<svg width="66" height="17" viewBox="0 0 66 17" fill="none" xmlns="http://www.w3.org/2000/svg">
<rect x="0.0507812" y="0.701172" width="65" height="16" rx="8" fill="#F0DBFF"/>
<g clip-path="url(#clip0_3141_15192)">
<path d="M11.8008 11.4512C13.0508 13.2012 15.0251 11.9087 14.5508 10.2012C14.0279 8.31885 13.68 7.04892 13.4522 6.20841C13.2121 5.32264 12.407 4.70117 11.4893 4.70117H6.61237C5.69463 4.70117 4.89537 5.32609 4.67087 6.21594C4.32503 7.58672 3.99896 8.8473 3.62289 10.2012C3.14856 11.9087 5.12289 13.2012 6.37289 11.4512" stroke="#9B59B6" stroke-linecap="round" stroke-linejoin="round"/>
<path d="M12.0497 6.95117L12.0552 6.95617" stroke="#9B59B6" stroke-linecap="round" stroke-linejoin="round"/>
<path d="M11.2958 6.20117L11.3013 6.20617" stroke="#9B59B6" stroke-linecap="round" stroke-linejoin="round"/>
<path d="M11.2958 7.70117L11.3013 7.70617" stroke="#9B59B6" stroke-linecap="round" stroke-linejoin="round"/>
<path d="M10.5497 6.95117L10.5552 6.95617" stroke="#9B59B6" stroke-linecap="round" stroke-linejoin="round"/>
<path d="M6.55078 6.20117V7.70117" stroke="#9B59B6" stroke-linecap="round" stroke-linejoin="round"/>
<path d="M5.80078 6.95117H7.30078" stroke="#9B59B6" stroke-linecap="round" stroke-linejoin="round"/>
<path d="M7.05078 10.7012C7.60307 10.7012 8.05078 10.2535 8.05078 9.70117C8.05078 9.14889 7.60307 8.70117 7.05078 8.70117C6.4985 8.70117 6.05078 9.14889 6.05078 9.70117C6.05078 10.2535 6.4985 10.7012 7.05078 10.7012Z" stroke="#9B59B6" stroke-linecap="round" stroke-linejoin="round"/>
<path d="M11.0508 10.7012C11.6031 10.7012 12.0508 10.2535 12.0508 9.70117C12.0508 9.14889 11.6031 8.70117 11.0508 8.70117C10.4985 8.70117 10.0508 9.14889 10.0508 9.70117C10.0508 10.2535 10.4985 10.7012 11.0508 10.7012Z" stroke="#9B59B6" stroke-linecap="round" stroke-linejoin="round"/>
</g>
<path d="M19.8808 12.7012V5.25117H20.8608V8.57117H24.5908V5.25117H25.5808V12.7012H24.5908V9.47117H20.8608V12.7012H19.8808ZM27.1243 12.7012V7.31117H28.0543V12.7012H27.1243ZM27.1243 6.45117V5.25117H28.0543V6.45117H27.1243ZM32.2873 12.8212C31.854 12.8212 31.4573 12.7245 31.0973 12.5312C30.744 12.3378 30.4707 12.0645 30.2773 11.7112L30.4073 11.5512V12.7012H29.4973V5.13117H30.4273V8.47117L30.2873 8.24117C30.4873 7.92117 30.7607 7.66784 31.1073 7.48117C31.454 7.28784 31.8507 7.19117 32.2973 7.19117C32.804 7.19117 33.2573 7.31451 33.6573 7.56117C34.064 7.80784 34.384 8.1445 34.6173 8.57117C34.8507 8.99117 34.9673 9.47117 34.9673 10.0112C34.9673 10.5378 34.8507 11.0145 34.6173 11.4412C34.384 11.8678 34.064 12.2045 33.6573 12.4512C33.2573 12.6978 32.8007 12.8212 32.2873 12.8212ZM32.2173 11.9212C32.5573 11.9212 32.8607 11.8378 33.1273 11.6712C33.394 11.5045 33.6007 11.2778 33.7473 10.9912C33.9007 10.6978 33.9773 10.3712 33.9773 10.0112C33.9773 9.63784 33.9007 9.31117 33.7473 9.03117C33.6007 8.7445 33.394 8.51784 33.1273 8.35117C32.8607 8.17784 32.5573 8.09117 32.2173 8.09117C31.8773 8.09117 31.5707 8.1745 31.2973 8.34117C31.0307 8.50784 30.8173 8.73784 30.6573 9.03117C30.504 9.31784 30.4273 9.64451 30.4273 10.0112C30.4273 10.3712 30.504 10.6978 30.6573 10.9912C30.8173 11.2778 31.0307 11.5045 31.2973 11.6712C31.5707 11.8378 31.8773 11.9212 32.2173 11.9212ZM38.0968 12.8212C37.7101 12.8212 37.3601 12.7312 37.0468 12.5512C36.7401 12.3712 36.5001 12.1212 36.3268 11.8012C36.1601 11.4745 36.0768 11.1012 36.0768 10.6812V7.31117H37.0068V10.5812C37.0068 10.8478 37.0601 11.0812 37.1668 11.2812C37.2801 11.4812 37.4335 11.6378 37.6268 11.7512C37.8268 11.8645 38.0535 11.9212 38.3068 11.9212C38.5601 11.9212 38.7835 11.8645 38.9768 11.7512C39.1768 11.6378 39.3301 11.4745 39.4368 11.2612C39.5501 11.0478 39.6068 10.7945 39.6068 10.5012V7.31117H40.5468V12.7012H39.6368V11.6512L39.7868 11.7412C39.6601 12.0812 39.4435 12.3478 39.1368 12.5412C38.8368 12.7278 38.4901 12.8212 38.0968 12.8212ZM41.9876 12.7012V7.31117H42.8976V8.30117L42.7976 8.16117C42.9242 7.85451 43.1176 7.62784 43.3776 7.48117C43.6376 7.32784 43.9542 7.25117 44.3276 7.25117H44.6576V8.13117H44.1876C43.8076 8.13117 43.5009 8.25117 43.2676 8.49117C43.0342 8.72451 42.9176 9.05784 42.9176 9.49117V12.7012H41.9876ZM47.0637 12.8212C46.7103 12.8212 46.397 12.7578 46.1237 12.6312C45.857 12.4978 45.647 12.3178 45.4937 12.0912C45.3403 11.8578 45.2637 11.5912 45.2637 11.2912C45.2637 11.0045 45.3237 10.7478 45.4437 10.5212C45.5703 10.2878 45.7637 10.0912 46.0237 9.93117C46.2903 9.77117 46.6237 9.65784 47.0237 9.59117L49.0237 9.26117V10.0412L47.2337 10.3412C46.887 10.4012 46.6337 10.5112 46.4737 10.6712C46.3203 10.8312 46.2437 11.0278 46.2437 11.2612C46.2437 11.4812 46.3303 11.6645 46.5037 11.8112C46.6837 11.9578 46.907 12.0312 47.1737 12.0312C47.5137 12.0312 47.807 11.9612 48.0537 11.8212C48.307 11.6745 48.5037 11.4778 48.6437 11.2312C48.7903 10.9845 48.8637 10.7112 48.8637 10.4112V9.04117C48.8637 8.74784 48.7537 8.51117 48.5337 8.33117C48.3203 8.1445 48.037 8.05117 47.6837 8.05117C47.377 8.05117 47.1037 8.13117 46.8637 8.29117C46.6303 8.44451 46.457 8.65117 46.3437 8.91117L45.5337 8.49117C45.6337 8.2445 45.7937 8.0245 46.0137 7.83117C46.2337 7.63117 46.4903 7.4745 46.7837 7.36117C47.077 7.24784 47.3837 7.19117 47.7037 7.19117C48.117 7.19117 48.4803 7.27117 48.7937 7.43117C49.107 7.58451 49.3503 7.80117 49.5237 8.08117C49.7037 8.3545 49.7937 8.6745 49.7937 9.04117V12.7012H48.8837V11.6812L49.0537 11.7412C48.9403 11.9545 48.787 12.1412 48.5937 12.3012C48.4003 12.4612 48.1737 12.5878 47.9137 12.6812C47.6537 12.7745 47.3703 12.8212 47.0637 12.8212ZM51.2356 12.7012V7.31117H52.1456V8.36117L51.9956 8.27117C52.129 7.93117 52.3423 7.66784 52.6356 7.48117C52.9356 7.28784 53.2856 7.19117 53.6856 7.19117C54.0723 7.19117 54.4156 7.27784 54.7156 7.45117C55.0223 7.62451 55.2623 7.86451 55.4356 8.17117C55.6156 8.47784 55.7056 8.82451 55.7056 9.21117V12.7012H54.7656V9.51117C54.7656 9.21117 54.7123 8.95784 54.6056 8.75117C54.499 8.5445 54.3456 8.3845 54.1456 8.27117C53.9523 8.15117 53.729 8.09117 53.4756 8.09117C53.2223 8.09117 52.9956 8.15117 52.7956 8.27117C52.6023 8.3845 52.449 8.54784 52.3356 8.76117C52.2223 8.96784 52.1656 9.21784 52.1656 9.51117V12.7012H51.2356Z" fill="#9B59B6"/>
<defs>
<clipPath id="clip0_3141_15192">
<rect width="12" height="12" fill="white" transform="translate(3.05078 2.70117)"/>
</clipPath>
</defs>
</svg>
