<svg width="66" height="17" viewBox="0 0 66 17" fill="none" xmlns="http://www.w3.org/2000/svg">
<rect x="0.0507812" y="0.164062" width="65" height="16" rx="8" fill="#D2D8FF"/>
<path d="M3.55078 7.91736C3.55078 10.5389 5.67595 12.6641 8.29748 12.6641C10.1612 12.6641 11.7741 11.59 12.5508 10.027C8.29748 10.027 6.18784 7.91736 6.18784 3.66406C4.62489 4.44078 3.55078 6.05364 3.55078 7.91736Z" stroke="#283593" stroke-linecap="round" stroke-linejoin="round"/>
<path d="M18.8808 12.1641V4.71406H19.8608V12.1641H18.8808ZM23.3375 12.2841C22.7975 12.2841 22.3275 12.1507 21.9275 11.8841C21.5275 11.6174 21.2442 11.2574 21.0775 10.8041L21.8175 10.4441C21.9708 10.7641 22.1808 11.0174 22.4475 11.2041C22.7142 11.3907 23.0108 11.4841 23.3375 11.4841C23.6308 11.4841 23.8742 11.4141 24.0675 11.2741C24.2608 11.1341 24.3575 10.9507 24.3575 10.7241C24.3575 10.5641 24.3108 10.4374 24.2175 10.3441C24.1308 10.2441 24.0242 10.1674 23.8975 10.1141C23.7708 10.0541 23.6542 10.0107 23.5475 9.98406L22.7375 9.75406C22.2508 9.61406 21.8942 9.41406 21.6675 9.15406C21.4475 8.89406 21.3375 8.59073 21.3375 8.24406C21.3375 7.92406 21.4175 7.6474 21.5775 7.41406C21.7442 7.17406 21.9675 6.9874 22.2475 6.85406C22.5342 6.72073 22.8542 6.65406 23.2075 6.65406C23.6808 6.65406 24.1042 6.77406 24.4775 7.01406C24.8575 7.25406 25.1275 7.59073 25.2875 8.02406L24.5275 8.37406C24.4075 8.09406 24.2275 7.87406 23.9875 7.71406C23.7475 7.5474 23.4775 7.46406 23.1775 7.46406C22.9042 7.46406 22.6875 7.53406 22.5275 7.67406C22.3675 7.8074 22.2875 7.9774 22.2875 8.18406C22.2875 8.3374 22.3275 8.46406 22.4075 8.56406C22.4875 8.6574 22.5842 8.73073 22.6975 8.78406C22.8108 8.83073 22.9208 8.87073 23.0275 8.90406L23.9075 9.16406C24.3475 9.29073 24.6875 9.4874 24.9275 9.75406C25.1742 10.0207 25.2975 10.3407 25.2975 10.7141C25.2975 11.0141 25.2142 11.2841 25.0475 11.5241C24.8808 11.7641 24.6508 11.9507 24.3575 12.0841C24.0642 12.2174 23.7242 12.2841 23.3375 12.2841ZM28.7049 12.2241C28.1783 12.2241 27.7716 12.0741 27.4849 11.7741C27.2049 11.4741 27.0649 11.0507 27.0649 10.5041V7.66406H26.0849V6.77406H26.2849C26.5249 6.77406 26.7149 6.70073 26.8549 6.55406C26.9949 6.4074 27.0649 6.21406 27.0649 5.97406V5.53406H27.9949V6.77406H29.2049V7.66406H27.9949V10.4741C27.9949 10.6541 28.0216 10.8107 28.0749 10.9441C28.1349 11.0774 28.2316 11.1841 28.3649 11.2641C28.4983 11.3374 28.6749 11.3741 28.8949 11.3741C28.9416 11.3741 28.9983 11.3707 29.0649 11.3641C29.1383 11.3574 29.2049 11.3507 29.2649 11.3441V12.1641C29.1783 12.1841 29.0816 12.1974 28.9749 12.2041C28.8683 12.2174 28.7783 12.2241 28.7049 12.2241ZM30.4798 12.1641V6.77406H31.4098V12.1641H30.4798ZM30.4798 5.91406V4.71406H31.4098V5.91406H30.4798ZM32.8528 12.1641V6.77406H33.7628V7.76406L33.6628 7.62406C33.7895 7.3174 33.9828 7.09073 34.2428 6.94406C34.5028 6.79073 34.8195 6.71406 35.1928 6.71406H35.5228V7.59406H35.0528C34.6728 7.59406 34.3661 7.71406 34.1328 7.95406C33.8995 8.1874 33.7828 8.52073 33.7828 8.95406V12.1641H32.8528ZM37.9289 12.2841C37.5756 12.2841 37.2622 12.2207 36.9889 12.0941C36.7222 11.9607 36.5122 11.7807 36.3589 11.5541C36.2056 11.3207 36.1289 11.0541 36.1289 10.7541C36.1289 10.4674 36.1889 10.2107 36.3089 9.98406C36.4356 9.75073 36.6289 9.55406 36.8889 9.39406C37.1556 9.23406 37.4889 9.12073 37.8889 9.05406L39.8889 8.72406V9.50406L38.0989 9.80406C37.7522 9.86406 37.4989 9.97406 37.3389 10.1341C37.1856 10.2941 37.1089 10.4907 37.1089 10.7241C37.1089 10.9441 37.1956 11.1274 37.3689 11.2741C37.5489 11.4207 37.7722 11.4941 38.0389 11.4941C38.3789 11.4941 38.6722 11.4241 38.9189 11.2841C39.1722 11.1374 39.3689 10.9407 39.5089 10.6941C39.6556 10.4474 39.7289 10.1741 39.7289 9.87406V8.50406C39.7289 8.21073 39.6189 7.97406 39.3989 7.79406C39.1856 7.6074 38.9022 7.51406 38.5489 7.51406C38.2422 7.51406 37.9689 7.59406 37.7289 7.75406C37.4956 7.9074 37.3222 8.11406 37.2089 8.37406L36.3989 7.95406C36.4989 7.7074 36.6589 7.4874 36.8789 7.29406C37.0989 7.09406 37.3556 6.9374 37.6489 6.82406C37.9422 6.71073 38.2489 6.65406 38.5689 6.65406C38.9822 6.65406 39.3456 6.73406 39.6589 6.89406C39.9722 7.0474 40.2156 7.26406 40.3889 7.54406C40.5689 7.8174 40.6589 8.1374 40.6589 8.50406V12.1641H39.7489V11.1441L39.9189 11.2041C39.8056 11.4174 39.6522 11.6041 39.4589 11.7641C39.2656 11.9241 39.0389 12.0507 38.7789 12.1441C38.5189 12.2374 38.2356 12.2841 37.9289 12.2841ZM42.1009 12.1641V4.59406H43.0309V7.82406L42.8609 7.73406C42.9942 7.39406 43.2075 7.13073 43.5009 6.94406C43.8009 6.75073 44.1509 6.65406 44.5509 6.65406C44.9375 6.65406 45.2809 6.74073 45.5809 6.91406C45.8875 7.0874 46.1275 7.3274 46.3009 7.63406C46.4809 7.94073 46.5709 8.2874 46.5709 8.67406V12.1641H45.6309V8.97406C45.6309 8.67406 45.5742 8.42073 45.4609 8.21406C45.3542 8.0074 45.2042 7.8474 45.0109 7.73406C44.8175 7.61406 44.5942 7.55406 44.3409 7.55406C44.0942 7.55406 43.8709 7.61406 43.6709 7.73406C43.4709 7.8474 43.3142 8.01073 43.2009 8.22406C43.0875 8.43073 43.0309 8.68073 43.0309 8.97406V12.1641H42.1009ZM49.4816 12.2841C49.1283 12.2841 48.815 12.2207 48.5416 12.0941C48.275 11.9607 48.065 11.7807 47.9116 11.5541C47.7583 11.3207 47.6816 11.0541 47.6816 10.7541C47.6816 10.4674 47.7416 10.2107 47.8616 9.98406C47.9883 9.75073 48.1816 9.55406 48.4416 9.39406C48.7083 9.23406 49.0416 9.12073 49.4416 9.05406L51.4416 8.72406V9.50406L49.6516 9.80406C49.305 9.86406 49.0516 9.97406 48.8916 10.1341C48.7383 10.2941 48.6616 10.4907 48.6616 10.7241C48.6616 10.9441 48.7483 11.1274 48.9216 11.2741C49.1016 11.4207 49.325 11.4941 49.5916 11.4941C49.9316 11.4941 50.225 11.4241 50.4716 11.2841C50.725 11.1374 50.9216 10.9407 51.0616 10.6941C51.2083 10.4474 51.2816 10.1741 51.2816 9.87406V8.50406C51.2816 8.21073 51.1716 7.97406 50.9516 7.79406C50.7383 7.6074 50.455 7.51406 50.1016 7.51406C49.795 7.51406 49.5216 7.59406 49.2816 7.75406C49.0483 7.9074 48.875 8.11406 48.7616 8.37406L47.9516 7.95406C48.0516 7.7074 48.2116 7.4874 48.4316 7.29406C48.6516 7.09406 48.9083 6.9374 49.2016 6.82406C49.495 6.71073 49.8016 6.65406 50.1216 6.65406C50.535 6.65406 50.8983 6.73406 51.2116 6.89406C51.525 7.0474 51.7683 7.26406 51.9416 7.54406C52.1216 7.8174 52.2116 8.1374 52.2116 8.50406V12.1641H51.3016V11.1441L51.4716 11.2041C51.3583 11.4174 51.205 11.6041 51.0116 11.7641C50.8183 11.9241 50.5916 12.0507 50.3316 12.1441C50.0716 12.2374 49.7883 12.2841 49.4816 12.2841ZM55.7459 12.2241C55.2193 12.2241 54.8126 12.0741 54.5259 11.7741C54.2459 11.4741 54.1059 11.0507 54.1059 10.5041V7.66406H53.1259V6.77406H53.3259C53.5659 6.77406 53.7559 6.70073 53.8959 6.55406C54.0359 6.4074 54.1059 6.21406 54.1059 5.97406V5.53406H55.0359V6.77406H56.2459V7.66406H55.0359V10.4741C55.0359 10.6541 55.0626 10.8107 55.1159 10.9441C55.1759 11.0774 55.2726 11.1841 55.4059 11.2641C55.5393 11.3374 55.7159 11.3741 55.9359 11.3741C55.9826 11.3741 56.0393 11.3707 56.1059 11.3641C56.1793 11.3574 56.2459 11.3507 56.3059 11.3441V12.1641C56.2193 12.1841 56.1226 12.1974 56.0159 12.2041C55.9093 12.2174 55.8193 12.2241 55.7459 12.2241Z" fill="#283593"/>
</svg>
