<svg width="73" height="17" viewBox="0 0 73 17" fill="none" xmlns="http://www.w3.org/2000/svg">
<rect x="0.550781" y="0.242188" width="72" height="16" rx="8" fill="#FFD8D8"/>
<g clip-path="url(#clip0_3141_15288)">
<path d="M6.95078 5.74219H6.15078C5.81941 5.74219 5.55078 6.01082 5.55078 6.34219V10.1422C5.55078 10.4736 5.81941 10.7422 6.15078 10.7422H6.95078C7.28215 10.7422 7.55078 10.4736 7.55078 10.1422V6.34219C7.55078 6.01082 7.28215 5.74219 6.95078 5.74219Z" stroke="#E74C3C" stroke-linecap="round" stroke-linejoin="round"/>
<path d="M12.9508 5.74219H12.1508C11.8194 5.74219 11.5508 6.01082 11.5508 6.34219V10.1422C11.5508 10.4736 11.8194 10.7422 12.1508 10.7422H12.9508C13.2822 10.7422 13.5508 10.4736 13.5508 10.1422V6.34219C13.5508 6.01082 13.2822 5.74219 12.9508 5.74219Z" stroke="#E74C3C" stroke-linecap="round" stroke-linejoin="round"/>
<path d="M4.05078 9.14219V7.34219C4.05078 7.01082 4.31941 6.74219 4.65078 6.74219H4.95078C5.28215 6.74219 5.55078 7.01082 5.55078 7.34219V9.14219C5.55078 9.47356 5.28215 9.74219 4.95078 9.74219H4.65078C4.31941 9.74219 4.05078 9.47356 4.05078 9.14219Z" stroke="#E74C3C" stroke-linecap="round" stroke-linejoin="round"/>
<path d="M15.0508 9.14219V7.34219C15.0508 7.01082 14.7822 6.74219 14.4508 6.74219H14.1508C13.8194 6.74219 13.5508 7.01082 13.5508 7.34219V9.14219C13.5508 9.47356 13.8194 9.74219 14.1508 9.74219H14.4508C14.7822 9.74219 15.0508 9.47356 15.0508 9.14219Z" stroke="#E74C3C" stroke-linecap="round" stroke-linejoin="round"/>
<path d="M7.55078 8.24219H11.5508" stroke="#E74C3C" stroke-linecap="round" stroke-linejoin="round"/>
</g>
<path d="M23.9408 12.3622C23.4141 12.3622 22.9208 12.2689 22.4608 12.0822C22.0008 11.8889 21.5974 11.6189 21.2508 11.2722C20.9108 10.9255 20.6441 10.5189 20.4508 10.0522C20.2574 9.57885 20.1608 9.06552 20.1608 8.51219C20.1608 7.95219 20.2574 7.43885 20.4508 6.97219C20.6441 6.50552 20.9108 6.09885 21.2508 5.75219C21.5974 5.40552 21.9974 5.13885 22.4508 4.95219C22.9108 4.76552 23.4074 4.67219 23.9408 4.67219C24.4741 4.67219 24.9674 4.76885 25.4208 4.96219C25.8808 5.14885 26.2808 5.41552 26.6208 5.76219C26.9674 6.10219 27.2374 6.50552 27.4308 6.97219C27.6308 7.43885 27.7308 7.95219 27.7308 8.51219C27.7308 9.06552 27.6308 9.57885 27.4308 10.0522C27.2374 10.5189 26.9674 10.9255 26.6208 11.2722C26.2808 11.6189 25.8808 11.8889 25.4208 12.0822C24.9674 12.2689 24.4741 12.3622 23.9408 12.3622ZM23.9408 11.4522C24.3541 11.4522 24.7308 11.3789 25.0708 11.2322C25.4108 11.0789 25.7041 10.8689 25.9508 10.6022C26.2041 10.3289 26.3974 10.0155 26.5308 9.66219C26.6708 9.30219 26.7408 8.91885 26.7408 8.51219C26.7408 8.10552 26.6708 7.72552 26.5308 7.37219C26.3974 7.01885 26.2041 6.70885 25.9508 6.44219C25.7041 6.16885 25.4108 5.95885 25.0708 5.81219C24.7308 5.65885 24.3541 5.58219 23.9408 5.58219C23.5341 5.58219 23.1608 5.65885 22.8208 5.81219C22.4808 5.95885 22.1841 6.16885 21.9308 6.44219C21.6841 6.70885 21.4908 7.01885 21.3508 7.37219C21.2108 7.72552 21.1408 8.10552 21.1408 8.51219C21.1408 8.91885 21.2108 9.30219 21.3508 9.66219C21.4908 10.0155 21.6841 10.3289 21.9308 10.6022C22.1841 10.8689 22.4808 11.0789 22.8208 11.2322C23.1608 11.3789 23.5341 11.4522 23.9408 11.4522ZM29.0501 12.2422V4.67219H29.9801V12.2422H29.0501ZM33.0031 12.3622C32.6498 12.3622 32.3365 12.2989 32.0631 12.1722C31.7965 12.0389 31.5865 11.8589 31.4331 11.6322C31.2798 11.3989 31.2031 11.1322 31.2031 10.8322C31.2031 10.5455 31.2631 10.2889 31.3831 10.0622C31.5098 9.82885 31.7031 9.63219 31.9631 9.47219C32.2298 9.31219 32.5631 9.19885 32.9631 9.13219L34.9631 8.80219V9.58219L33.1731 9.88219C32.8265 9.94219 32.5731 10.0522 32.4131 10.2122C32.2598 10.3722 32.1831 10.5689 32.1831 10.8022C32.1831 11.0222 32.2698 11.2055 32.4431 11.3522C32.6231 11.4989 32.8465 11.5722 33.1131 11.5722C33.4531 11.5722 33.7465 11.5022 33.9931 11.3622C34.2465 11.2155 34.4431 11.0189 34.5831 10.7722C34.7298 10.5255 34.8031 10.2522 34.8031 9.95219V8.58219C34.8031 8.28885 34.6931 8.05219 34.4731 7.87219C34.2598 7.68552 33.9765 7.59219 33.6231 7.59219C33.3165 7.59219 33.0431 7.67219 32.8031 7.83219C32.5698 7.98552 32.3965 8.19219 32.2831 8.45219L31.4731 8.03219C31.5731 7.78552 31.7331 7.56552 31.9531 7.37219C32.1731 7.17219 32.4298 7.01552 32.7231 6.90219C33.0165 6.78885 33.3231 6.73219 33.6431 6.73219C34.0565 6.73219 34.4198 6.81219 34.7331 6.97219C35.0465 7.12552 35.2898 7.34219 35.4631 7.62219C35.6431 7.89552 35.7331 8.21552 35.7331 8.58219V12.2422H34.8231V11.2222L34.9931 11.2822C34.8798 11.4955 34.7265 11.6822 34.5331 11.8422C34.3398 12.0022 34.1131 12.1289 33.8531 12.2222C33.5931 12.3155 33.3098 12.3622 33.0031 12.3622ZM37.1751 12.2422V4.67219H38.1051V7.90219L37.9351 7.81219C38.0684 7.47219 38.2817 7.20885 38.5751 7.02219C38.8751 6.82885 39.2251 6.73219 39.6251 6.73219C40.0117 6.73219 40.3551 6.81885 40.6551 6.99219C40.9617 7.16552 41.2017 7.40552 41.3751 7.71219C41.5551 8.01885 41.6451 8.36552 41.6451 8.75219V12.2422H40.7051V9.05219C40.7051 8.75219 40.6484 8.49885 40.5351 8.29219C40.4284 8.08552 40.2784 7.92552 40.0851 7.81219C39.8917 7.69219 39.6684 7.63219 39.4151 7.63219C39.1684 7.63219 38.9451 7.69219 38.7451 7.81219C38.5451 7.92552 38.3884 8.08885 38.2751 8.30219C38.1617 8.50885 38.1051 8.75885 38.1051 9.05219V12.2422H37.1751ZM42.9759 12.2422V6.85219H43.8859V7.84219L43.7859 7.70219C43.9125 7.39552 44.1059 7.16885 44.3659 7.02219C44.6259 6.86885 44.9425 6.79219 45.3159 6.79219H45.6459V7.67219H45.1759C44.7959 7.67219 44.4892 7.79219 44.2559 8.03219C44.0225 8.26552 43.9059 8.59885 43.9059 9.03219V12.2422H42.9759ZM48.052 12.3622C47.6986 12.3622 47.3853 12.2989 47.112 12.1722C46.8453 12.0389 46.6353 11.8589 46.482 11.6322C46.3286 11.3989 46.252 11.1322 46.252 10.8322C46.252 10.5455 46.312 10.2889 46.432 10.0622C46.5586 9.82885 46.752 9.63219 47.012 9.47219C47.2786 9.31219 47.612 9.19885 48.012 9.13219L50.012 8.80219V9.58219L48.222 9.88219C47.8753 9.94219 47.622 10.0522 47.462 10.2122C47.3086 10.3722 47.232 10.5689 47.232 10.8022C47.232 11.0222 47.3186 11.2055 47.492 11.3522C47.672 11.4989 47.8953 11.5722 48.162 11.5722C48.502 11.5722 48.7953 11.5022 49.042 11.3622C49.2953 11.2155 49.492 11.0189 49.632 10.7722C49.7786 10.5255 49.852 10.2522 49.852 9.95219V8.58219C49.852 8.28885 49.742 8.05219 49.522 7.87219C49.3086 7.68552 49.0253 7.59219 48.672 7.59219C48.3653 7.59219 48.092 7.67219 47.852 7.83219C47.6186 7.98552 47.4453 8.19219 47.332 8.45219L46.522 8.03219C46.622 7.78552 46.782 7.56552 47.002 7.37219C47.222 7.17219 47.4786 7.01552 47.772 6.90219C48.0653 6.78885 48.372 6.73219 48.692 6.73219C49.1053 6.73219 49.4686 6.81219 49.782 6.97219C50.0953 7.12552 50.3386 7.34219 50.512 7.62219C50.692 7.89552 50.782 8.21552 50.782 8.58219V12.2422H49.872V11.2222L50.042 11.2822C49.9286 11.4955 49.7753 11.6822 49.582 11.8422C49.3886 12.0022 49.162 12.1289 48.902 12.2222C48.642 12.3155 48.3586 12.3622 48.052 12.3622ZM54.7939 14.4422C54.4139 14.4422 54.0606 14.3822 53.7339 14.2622C53.4139 14.1422 53.1372 13.9755 52.9039 13.7622C52.6772 13.5555 52.5039 13.3122 52.3839 13.0322L53.2539 12.6322C53.3472 12.8855 53.5239 13.0989 53.7839 13.2722C54.0506 13.4522 54.3839 13.5422 54.7839 13.5422C55.0906 13.5422 55.3672 13.4822 55.6139 13.3622C55.8672 13.2489 56.0672 13.0755 56.2139 12.8422C56.3606 12.6155 56.4339 12.3389 56.4339 12.0122V10.8022L56.6039 10.9822C56.4172 11.3489 56.1472 11.6289 55.7939 11.8222C55.4472 12.0155 55.0639 12.1122 54.6439 12.1122C54.1372 12.1122 53.6839 11.9955 53.2839 11.7622C52.8839 11.5222 52.5706 11.1989 52.3439 10.7922C52.1172 10.3789 52.0039 9.92219 52.0039 9.42219C52.0039 8.91552 52.1172 8.45885 52.3439 8.05219C52.5706 7.64552 52.8806 7.32552 53.2739 7.09219C53.6739 6.85219 54.1272 6.73219 54.6339 6.73219C55.0539 6.73219 55.4339 6.82885 55.7739 7.02219C56.1206 7.20885 56.3972 7.46885 56.6039 7.80219L56.4639 8.05219V6.85219H57.3739V12.0122C57.3739 12.4789 57.2639 12.8955 57.0439 13.2622C56.8239 13.6289 56.5172 13.9155 56.1239 14.1222C55.7372 14.3355 55.2939 14.4422 54.7939 14.4422ZM54.7239 11.2122C55.0439 11.2122 55.3306 11.1322 55.5839 10.9722C55.8439 10.8122 56.0506 10.5989 56.2039 10.3322C56.3572 10.0589 56.4339 9.75552 56.4339 9.42219C56.4339 9.09552 56.3572 8.79552 56.2039 8.52219C56.0506 8.24885 55.8439 8.03219 55.5839 7.87219C55.3306 7.71219 55.0439 7.63219 54.7239 7.63219C54.3972 7.63219 54.1006 7.71219 53.8339 7.87219C53.5672 8.03219 53.3572 8.24885 53.2039 8.52219C53.0572 8.78885 52.9839 9.08885 52.9839 9.42219C52.9839 9.75552 53.0572 10.0589 53.2039 10.3322C53.3572 10.5989 53.5639 10.8122 53.8239 10.9722C54.0906 11.1322 54.3906 11.2122 54.7239 11.2122ZM60.3957 12.3622C60.0424 12.3622 59.729 12.2989 59.4557 12.1722C59.189 12.0389 58.979 11.8589 58.8257 11.6322C58.6724 11.3989 58.5957 11.1322 58.5957 10.8322C58.5957 10.5455 58.6557 10.2889 58.7757 10.0622C58.9024 9.82885 59.0957 9.63219 59.3557 9.47219C59.6224 9.31219 59.9557 9.19885 60.3557 9.13219L62.3557 8.80219V9.58219L60.5657 9.88219C60.219 9.94219 59.9657 10.0522 59.8057 10.2122C59.6524 10.3722 59.5757 10.5689 59.5757 10.8022C59.5757 11.0222 59.6624 11.2055 59.8357 11.3522C60.0157 11.4989 60.239 11.5722 60.5057 11.5722C60.8457 11.5722 61.139 11.5022 61.3857 11.3622C61.639 11.2155 61.8357 11.0189 61.9757 10.7722C62.1224 10.5255 62.1957 10.2522 62.1957 9.95219V8.58219C62.1957 8.28885 62.0857 8.05219 61.8657 7.87219C61.6524 7.68552 61.369 7.59219 61.0157 7.59219C60.709 7.59219 60.4357 7.67219 60.1957 7.83219C59.9624 7.98552 59.789 8.19219 59.6757 8.45219L58.8657 8.03219C58.9657 7.78552 59.1257 7.56552 59.3457 7.37219C59.5657 7.17219 59.8224 7.01552 60.1157 6.90219C60.409 6.78885 60.7157 6.73219 61.0357 6.73219C61.449 6.73219 61.8124 6.81219 62.1257 6.97219C62.439 7.12552 62.6824 7.34219 62.8557 7.62219C63.0357 7.89552 63.1257 8.21552 63.1257 8.58219V12.2422H62.2157V11.2222L62.3857 11.2822C62.2724 11.4955 62.119 11.6822 61.9257 11.8422C61.7324 12.0022 61.5057 12.1289 61.2457 12.2222C60.9857 12.3155 60.7024 12.3622 60.3957 12.3622Z" fill="#E74C3C"/>
<defs>
<clipPath id="clip0_3141_15288">
<rect width="12" height="12" fill="white" transform="translate(3.55078 2.24219)"/>
</clipPath>
</defs>
</svg>
