<svg width="76" height="17" viewBox="0 0 76 17" fill="none" xmlns="http://www.w3.org/2000/svg">
<rect x="0.0507812" y="0.261719" width="75" height="16" rx="8" fill="#FFE2D3"/>
<g clip-path="url(#clip0_3141_15336)">
<path d="M7.55078 6.26172H6.05078C4.94621 6.26172 4.05078 7.15715 4.05078 8.26172V10.7617C4.05078 11.8663 4.94621 12.7617 6.05078 12.7617H12.0508C13.1554 12.7617 14.0508 11.8663 14.0508 10.7617V8.26172C14.0508 7.15715 13.1554 6.26172 12.0508 6.26172H10.5508M7.55078 6.26172V4.36172C7.55078 4.03035 7.81941 3.76172 8.15078 3.76172H9.95078C10.2822 3.76172 10.5508 4.03035 10.5508 4.36172V6.26172M7.55078 6.26172H10.5508M7.55078 6.26172V9.26172M10.5508 6.26172V9.26172" stroke="#8E5C42" stroke-linecap="round" stroke-linejoin="round"/>
</g>
<path d="M19.8808 12.2617V4.81172H22.5108C23.0041 4.81172 23.4374 4.90505 23.8108 5.09172C24.1841 5.27839 24.4741 5.54505 24.6808 5.89172C24.8941 6.23839 25.0008 6.64505 25.0008 7.11172C25.0008 7.57839 24.8941 7.98505 24.6808 8.33172C24.4741 8.67172 24.1841 8.93839 23.8108 9.13172C23.4441 9.31839 23.0108 9.41172 22.5108 9.41172H20.8608V12.2617H19.8808ZM20.8608 8.51172H22.5408C22.8408 8.51172 23.1008 8.45505 23.3208 8.34172C23.5408 8.22839 23.7108 8.06505 23.8308 7.85172C23.9508 7.63839 24.0108 7.39172 24.0108 7.11172C24.0108 6.82505 23.9508 6.57839 23.8308 6.37172C23.7108 6.15838 23.5408 5.99505 23.3208 5.88172C23.1008 5.76839 22.8408 5.71172 22.5408 5.71172H20.8608V8.51172ZM28.5008 12.3817C27.9808 12.3817 27.5174 12.2584 27.1108 12.0117C26.7041 11.7651 26.3841 11.4284 26.1508 11.0017C25.9174 10.5684 25.8008 10.0851 25.8008 9.55172C25.8008 9.01172 25.9141 8.53172 26.1408 8.11172C26.3741 7.69172 26.6874 7.36172 27.0808 7.12172C27.4808 6.87505 27.9274 6.75172 28.4208 6.75172C28.8208 6.75172 29.1741 6.82505 29.4808 6.97172C29.7941 7.11172 30.0574 7.30505 30.2708 7.55172C30.4908 7.79172 30.6574 8.06839 30.7708 8.38172C30.8908 8.68839 30.9508 9.00839 30.9508 9.34172C30.9508 9.41505 30.9441 9.49839 30.9308 9.59172C30.9241 9.67839 30.9141 9.76172 30.9008 9.84172H26.4808V9.04172H30.3608L29.9208 9.40172C29.9808 9.05505 29.9474 8.74505 29.8208 8.47172C29.6941 8.19839 29.5074 7.98172 29.2608 7.82172C29.0141 7.66172 28.7341 7.58172 28.4208 7.58172C28.1074 7.58172 27.8208 7.66172 27.5608 7.82172C27.3008 7.98172 27.0974 8.21172 26.9508 8.51172C26.8108 8.80505 26.7541 9.15505 26.7808 9.56172C26.7541 9.95505 26.8141 10.3017 26.9608 10.6017C27.1141 10.8951 27.3274 11.1251 27.6008 11.2917C27.8808 11.4517 28.1841 11.5317 28.5108 11.5317C28.8708 11.5317 29.1741 11.4484 29.4208 11.2817C29.6674 11.1151 29.8674 10.9017 30.0208 10.6417L30.8008 11.0417C30.6941 11.2884 30.5274 11.5151 30.3008 11.7217C30.0808 11.9217 29.8174 12.0817 29.5108 12.2017C29.2108 12.3217 28.8741 12.3817 28.5008 12.3817ZM32.1634 12.2617V4.69172H33.0934V9.88172L32.7134 9.79172L35.5734 6.87172H36.7634L34.6934 9.04172L36.9034 12.2617H35.8034L33.7834 9.34172L34.3634 9.31172L32.7934 10.9517L33.0934 10.2717V12.2617H32.1634ZM40.1219 12.3817C39.6019 12.3817 39.1385 12.2584 38.7319 12.0117C38.3252 11.7651 38.0052 11.4284 37.7719 11.0017C37.5385 10.5684 37.4219 10.0851 37.4219 9.55172C37.4219 9.01172 37.5352 8.53172 37.7619 8.11172C37.9952 7.69172 38.3085 7.36172 38.7019 7.12172C39.1019 6.87505 39.5485 6.75172 40.0419 6.75172C40.4419 6.75172 40.7952 6.82505 41.1019 6.97172C41.4152 7.11172 41.6785 7.30505 41.8919 7.55172C42.1119 7.79172 42.2785 8.06839 42.3919 8.38172C42.5119 8.68839 42.5719 9.00839 42.5719 9.34172C42.5719 9.41505 42.5652 9.49839 42.5519 9.59172C42.5452 9.67839 42.5352 9.76172 42.5219 9.84172H38.1019V9.04172H41.9819L41.5419 9.40172C41.6019 9.05505 41.5685 8.74505 41.4419 8.47172C41.3152 8.19839 41.1285 7.98172 40.8819 7.82172C40.6352 7.66172 40.3552 7.58172 40.0419 7.58172C39.7285 7.58172 39.4419 7.66172 39.1819 7.82172C38.9219 7.98172 38.7185 8.21172 38.5719 8.51172C38.4319 8.80505 38.3752 9.15505 38.4019 9.56172C38.3752 9.95505 38.4352 10.3017 38.5819 10.6017C38.7352 10.8951 38.9485 11.1251 39.2219 11.2917C39.5019 11.4517 39.8052 11.5317 40.1319 11.5317C40.4919 11.5317 40.7952 11.4484 41.0419 11.2817C41.2885 11.1151 41.4885 10.9017 41.6419 10.6417L42.4219 11.0417C42.3152 11.2884 42.1485 11.5151 41.9219 11.7217C41.7019 11.9217 41.4385 12.0817 41.1319 12.2017C40.8319 12.3217 40.4952 12.3817 40.1219 12.3817ZM43.7845 12.2617V6.87172H44.6945V7.86172L44.5945 7.72172C44.7211 7.41505 44.9145 7.18839 45.1745 7.04172C45.4345 6.88839 45.7511 6.81172 46.1245 6.81172H46.4545V7.69172H45.9845C45.6045 7.69172 45.2978 7.81172 45.0645 8.05172C44.8311 8.28505 44.7145 8.61839 44.7145 9.05172V12.2617H43.7845ZM46.3605 14.4617C46.3005 14.4617 46.2272 14.4584 46.1405 14.4517C46.0539 14.4451 45.9839 14.4351 45.9305 14.4217V13.5817C46.0639 13.6017 46.1972 13.6117 46.3305 13.6117C46.6039 13.6117 46.8305 13.5351 47.0105 13.3817C47.1905 13.2284 47.2805 12.9951 47.2805 12.6817V6.87172H48.2105V12.6817C48.2105 13.0684 48.1305 13.3917 47.9705 13.6517C47.8105 13.9184 47.5905 14.1184 47.3105 14.2517C47.0305 14.3917 46.7139 14.4617 46.3605 14.4617ZM47.2805 6.01172V4.81172H48.2105V6.01172H47.2805ZM51.2336 12.3817C50.8803 12.3817 50.5669 12.3184 50.2936 12.1917C50.0269 12.0584 49.8169 11.8784 49.6636 11.6517C49.5103 11.4184 49.4336 11.1517 49.4336 10.8517C49.4336 10.5651 49.4936 10.3084 49.6136 10.0817C49.7403 9.84839 49.9336 9.65172 50.1936 9.49172C50.4603 9.33172 50.7936 9.21839 51.1936 9.15172L53.1936 8.82172V9.60172L51.4036 9.90172C51.0569 9.96172 50.8036 10.0717 50.6436 10.2317C50.4903 10.3917 50.4136 10.5884 50.4136 10.8217C50.4136 11.0417 50.5003 11.2251 50.6736 11.3717C50.8536 11.5184 51.0769 11.5917 51.3436 11.5917C51.6836 11.5917 51.9769 11.5217 52.2236 11.3817C52.4769 11.2351 52.6736 11.0384 52.8136 10.7917C52.9603 10.5451 53.0336 10.2717 53.0336 9.97172V8.60172C53.0336 8.30839 52.9236 8.07172 52.7036 7.89172C52.4903 7.70505 52.2069 7.61172 51.8536 7.61172C51.5469 7.61172 51.2736 7.69172 51.0336 7.85172C50.8003 8.00505 50.6269 8.21172 50.5136 8.47172L49.7036 8.05172C49.8036 7.80505 49.9636 7.58505 50.1836 7.39172C50.4036 7.19172 50.6603 7.03505 50.9536 6.92172C51.2469 6.80839 51.5536 6.75172 51.8736 6.75172C52.2869 6.75172 52.6503 6.83172 52.9636 6.99172C53.2769 7.14505 53.5203 7.36172 53.6936 7.64172C53.8736 7.91505 53.9636 8.23505 53.9636 8.60172V12.2617H53.0536V11.2417L53.2236 11.3017C53.1103 11.5151 52.9569 11.7017 52.7636 11.8617C52.5703 12.0217 52.3436 12.1484 52.0836 12.2417C51.8236 12.3351 51.5403 12.3817 51.2336 12.3817ZM56.9855 12.3817C56.6322 12.3817 56.3189 12.3184 56.0455 12.1917C55.7789 12.0584 55.5689 11.8784 55.4155 11.6517C55.2622 11.4184 55.1855 11.1517 55.1855 10.8517C55.1855 10.5651 55.2455 10.3084 55.3655 10.0817C55.4922 9.84839 55.6855 9.65172 55.9455 9.49172C56.2122 9.33172 56.5455 9.21839 56.9455 9.15172L58.9455 8.82172V9.60172L57.1555 9.90172C56.8089 9.96172 56.5555 10.0717 56.3955 10.2317C56.2422 10.3917 56.1655 10.5884 56.1655 10.8217C56.1655 11.0417 56.2522 11.2251 56.4255 11.3717C56.6055 11.5184 56.8289 11.5917 57.0955 11.5917C57.4355 11.5917 57.7289 11.5217 57.9755 11.3817C58.2289 11.2351 58.4255 11.0384 58.5655 10.7917C58.7122 10.5451 58.7855 10.2717 58.7855 9.97172V8.60172C58.7855 8.30839 58.6755 8.07172 58.4555 7.89172C58.2422 7.70505 57.9589 7.61172 57.6055 7.61172C57.2989 7.61172 57.0255 7.69172 56.7855 7.85172C56.5522 8.00505 56.3789 8.21172 56.2655 8.47172L55.4555 8.05172C55.5555 7.80505 55.7155 7.58505 55.9355 7.39172C56.1555 7.19172 56.4122 7.03505 56.7055 6.92172C56.9989 6.80839 57.3055 6.75172 57.6255 6.75172C58.0389 6.75172 58.4022 6.83172 58.7155 6.99172C59.0289 7.14505 59.2722 7.36172 59.4455 7.64172C59.6255 7.91505 59.7155 8.23505 59.7155 8.60172V12.2617H58.8055V11.2417L58.9755 11.3017C58.8622 11.5151 58.7089 11.7017 58.5155 11.8617C58.3222 12.0217 58.0955 12.1484 57.8355 12.2417C57.5755 12.3351 57.2922 12.3817 56.9855 12.3817ZM61.1575 12.2617V6.87172H62.0675V7.92172L61.9175 7.83172C62.0508 7.49172 62.2642 7.22839 62.5575 7.04172C62.8575 6.84839 63.2075 6.75172 63.6075 6.75172C63.9942 6.75172 64.3375 6.83839 64.6375 7.01172C64.9442 7.18505 65.1842 7.42505 65.3575 7.73172C65.5375 8.03839 65.6275 8.38505 65.6275 8.77172V12.2617H64.6875V9.07172C64.6875 8.77172 64.6342 8.51839 64.5275 8.31172C64.4208 8.10505 64.2675 7.94505 64.0675 7.83172C63.8742 7.71172 63.6508 7.65172 63.3975 7.65172C63.1442 7.65172 62.9175 7.71172 62.7175 7.83172C62.5242 7.94505 62.3708 8.10839 62.2575 8.32172C62.1442 8.52839 62.0875 8.77839 62.0875 9.07172V12.2617H61.1575Z" fill="#8E5C42"/>
<defs>
<clipPath id="clip0_3141_15336">
<rect width="12" height="12" fill="white" transform="translate(3.05078 2.26172)"/>
</clipPath>
</defs>
</svg>
