<svg width="63" height="17" viewBox="0 0 63 17" fill="none" xmlns="http://www.w3.org/2000/svg">
<rect x="0.550781" y="0.183594" width="62" height="16" rx="8" fill="#FFF3C2"/>
<path d="M7.05078 11.1836V10.6836C7.05078 9.30288 8.17007 8.18359 9.55078 8.18359V8.18359C10.9315 8.18359 12.0508 9.30288 12.0508 10.6836V11.1836" stroke="#F1C40F" stroke-linecap="round"/>
<path d="M9.55078 8.18359C10.3792 8.18359 11.0508 7.51202 11.0508 6.68359C11.0508 5.85517 10.3792 5.18359 9.55078 5.18359C8.72235 5.18359 8.05078 5.85517 8.05078 6.68359C8.05078 7.51202 8.72235 8.18359 9.55078 8.18359Z" stroke="#F1C40F" stroke-linecap="round" stroke-linejoin="round"/>
<path d="M14.0508 4.28359V12.0836C14.0508 12.415 13.7822 12.6836 13.4508 12.6836H5.65078C5.31941 12.6836 5.05078 12.415 5.05078 12.0836V4.28359C5.05078 3.95222 5.31941 3.68359 5.65078 3.68359H13.4508C13.7822 3.68359 14.0508 3.95222 14.0508 4.28359Z" stroke="#F1C40F" stroke-linecap="round" stroke-linejoin="round"/>
<path d="M20.3808 12.1836V4.73359H23.0108C23.5041 4.73359 23.9374 4.82693 24.3108 5.01359C24.6841 5.20026 24.9741 5.46693 25.1808 5.81359C25.3941 6.16026 25.5008 6.56693 25.5008 7.03359C25.5008 7.50026 25.3941 7.90693 25.1808 8.25359C24.9741 8.59359 24.6841 8.86026 24.3108 9.05359C23.9441 9.24026 23.5108 9.33359 23.0108 9.33359H21.3608V12.1836H20.3808ZM21.3608 8.43359H23.0408C23.3408 8.43359 23.6008 8.37693 23.8208 8.26359C24.0408 8.15026 24.2108 7.98693 24.3308 7.77359C24.4508 7.56026 24.5108 7.31359 24.5108 7.03359C24.5108 6.74693 24.4508 6.50026 24.3308 6.29359C24.2108 6.08026 24.0408 5.91693 23.8208 5.80359C23.6008 5.69026 23.3408 5.63359 23.0408 5.63359H21.3608V8.43359ZM26.7161 12.1836V6.79359H27.6261V7.78359L27.5261 7.64359C27.6528 7.33693 27.8461 7.11026 28.1061 6.96359C28.3661 6.81026 28.6828 6.73359 29.0561 6.73359H29.3861V7.61359H28.9161C28.5361 7.61359 28.2294 7.73359 27.9961 7.97359C27.7628 8.20693 27.6461 8.54026 27.6461 8.97359V12.1836H26.7161ZM30.2122 12.1836V6.79359H31.1422V12.1836H30.2122ZM30.2122 5.93359V4.73359H31.1422V5.93359H30.2122ZM35.3752 12.3036C34.9419 12.3036 34.5452 12.2069 34.1852 12.0136C33.8319 11.8203 33.5586 11.5469 33.3652 11.1936L33.4952 11.0336V12.1836H32.5852V4.61359H33.5152V7.95359L33.3752 7.72359C33.5752 7.40359 33.8486 7.15026 34.1952 6.96359C34.5419 6.77026 34.9386 6.67359 35.3852 6.67359C35.8919 6.67359 36.3452 6.79693 36.7452 7.04359C37.1519 7.29026 37.4719 7.62693 37.7052 8.05359C37.9386 8.47359 38.0552 8.95359 38.0552 9.49359C38.0552 10.0203 37.9386 10.4969 37.7052 10.9236C37.4719 11.3503 37.1519 11.6869 36.7452 11.9336C36.3452 12.1803 35.8886 12.3036 35.3752 12.3036ZM35.3052 11.4036C35.6452 11.4036 35.9486 11.3203 36.2152 11.1536C36.4819 10.9869 36.6886 10.7603 36.8352 10.4736C36.9886 10.1803 37.0652 9.85359 37.0652 9.49359C37.0652 9.12026 36.9886 8.79359 36.8352 8.51359C36.6886 8.22693 36.4819 8.00026 36.2152 7.83359C35.9486 7.66026 35.6452 7.57359 35.3052 7.57359C34.9652 7.57359 34.6586 7.65693 34.3852 7.82359C34.1186 7.99026 33.9052 8.22026 33.7452 8.51359C33.5919 8.80026 33.5152 9.12693 33.5152 9.49359C33.5152 9.85359 33.5919 10.1803 33.7452 10.4736C33.9052 10.7603 34.1186 10.9869 34.3852 11.1536C34.6586 11.3203 34.9652 11.4036 35.3052 11.4036ZM40.8547 12.3036C40.5014 12.3036 40.188 12.2403 39.9147 12.1136C39.648 11.9803 39.438 11.8003 39.2847 11.5736C39.1314 11.3403 39.0547 11.0736 39.0547 10.7736C39.0547 10.4869 39.1147 10.2303 39.2347 10.0036C39.3614 9.77026 39.5547 9.57359 39.8147 9.41359C40.0814 9.25359 40.4147 9.14026 40.8147 9.07359L42.8147 8.74359V9.52359L41.0247 9.82359C40.678 9.88359 40.4247 9.99359 40.2647 10.1536C40.1114 10.3136 40.0347 10.5103 40.0347 10.7436C40.0347 10.9636 40.1214 11.1469 40.2947 11.2936C40.4747 11.4403 40.698 11.5136 40.9647 11.5136C41.3047 11.5136 41.598 11.4436 41.8447 11.3036C42.098 11.1569 42.2947 10.9603 42.4347 10.7136C42.5814 10.4669 42.6547 10.1936 42.6547 9.89359V8.52359C42.6547 8.23026 42.5447 7.99359 42.3247 7.81359C42.1114 7.62693 41.828 7.53359 41.4747 7.53359C41.168 7.53359 40.8947 7.61359 40.6547 7.77359C40.4214 7.92693 40.248 8.13359 40.1347 8.39359L39.3247 7.97359C39.4247 7.72693 39.5847 7.50693 39.8047 7.31359C40.0247 7.11359 40.2814 6.95693 40.5747 6.84359C40.868 6.73026 41.1747 6.67359 41.4947 6.67359C41.908 6.67359 42.2714 6.75359 42.5847 6.91359C42.898 7.06693 43.1414 7.28359 43.3147 7.56359C43.4947 7.83693 43.5847 8.15693 43.5847 8.52359V12.1836H42.6747V11.1636L42.8447 11.2236C42.7314 11.4369 42.578 11.6236 42.3847 11.7836C42.1914 11.9436 41.9647 12.0703 41.7047 12.1636C41.4447 12.2569 41.1614 12.3036 40.8547 12.3036ZM47.4766 12.3036C46.97 12.3036 46.5133 12.1803 46.1066 11.9336C45.7066 11.6869 45.39 11.3503 45.1566 10.9236C44.9233 10.4969 44.8066 10.0203 44.8066 9.49359C44.8066 8.95359 44.9233 8.47359 45.1566 8.05359C45.39 7.62693 45.7066 7.29026 46.1066 7.04359C46.5133 6.79693 46.97 6.67359 47.4766 6.67359C47.9233 6.67359 48.32 6.77026 48.6666 6.96359C49.0133 7.15026 49.2866 7.40359 49.4866 7.72359L49.3366 7.95359V4.61359H50.2766V12.1836H49.3666V11.0336L49.4866 11.1936C49.3 11.5469 49.0266 11.8203 48.6666 12.0136C48.3133 12.2069 47.9166 12.3036 47.4766 12.3036ZM47.5566 11.4036C47.8966 11.4036 48.2 11.3203 48.4666 11.1536C48.7333 10.9869 48.9433 10.7603 49.0966 10.4736C49.2566 10.1803 49.3366 9.85359 49.3366 9.49359C49.3366 9.12693 49.2566 8.80026 49.0966 8.51359C48.9433 8.22026 48.7333 7.99026 48.4666 7.82359C48.2 7.65693 47.8966 7.57359 47.5566 7.57359C47.2233 7.57359 46.92 7.66026 46.6466 7.83359C46.38 8.00026 46.17 8.22693 46.0166 8.51359C45.8633 8.79359 45.7866 9.12026 45.7866 9.49359C45.7866 9.85359 45.8633 10.1803 46.0166 10.4736C46.17 10.7603 46.38 10.9869 46.6466 11.1536C46.9133 11.3203 47.2166 11.4036 47.5566 11.4036ZM51.7161 12.1836V6.79359H52.6461V12.1836H51.7161ZM51.7161 5.93359V4.73359H52.6461V5.93359H51.7161Z" fill="#F1C40F"/>
</svg>
