<svg width="57" height="17" viewBox="0 0 57 17" fill="none" xmlns="http://www.w3.org/2000/svg">
<rect x="0.402344" y="0.222656" width="56.3" height="16" rx="8" fill="#FFE3CA"/>
<g clip-path="url(#clip0_3141_15312)">
<path d="M6.90234 11.2227V10.7227C6.90234 9.34194 8.02163 8.22266 9.40234 8.22266V8.22266C10.7831 8.22266 11.9023 9.34194 11.9023 10.7227V11.2227" stroke="#E67E22" stroke-width="0.9" stroke-linecap="round" stroke-linejoin="round"/>
<path d="M3.90234 11.2227V10.7227C3.90234 9.89423 4.57392 9.22266 5.40234 9.22266V9.22266" stroke="#E67E22" stroke-width="0.9" stroke-linecap="round" stroke-linejoin="round"/>
<path d="M14.9023 11.2227V10.7227C14.9023 9.89423 14.2308 9.22266 13.4023 9.22266V9.22266" stroke="#E67E22" stroke-width="0.9" stroke-linecap="round" stroke-linejoin="round"/>
<path d="M9.40234 8.22266C10.2308 8.22266 10.9023 7.55108 10.9023 6.72266C10.9023 5.89423 10.2308 5.22266 9.40234 5.22266C8.57392 5.22266 7.90234 5.89423 7.90234 6.72266C7.90234 7.55108 8.57392 8.22266 9.40234 8.22266Z" stroke="#E67E22" stroke-width="0.9" stroke-linecap="round" stroke-linejoin="round"/>
<path d="M5.40234 9.22266C5.95463 9.22266 6.40234 8.77494 6.40234 8.22266C6.40234 7.67037 5.95463 7.22266 5.40234 7.22266C4.85006 7.22266 4.40234 7.67037 4.40234 8.22266C4.40234 8.77494 4.85006 9.22266 5.40234 9.22266Z" stroke="#E67E22" stroke-width="0.9" stroke-linecap="round" stroke-linejoin="round"/>
<path d="M13.4023 9.22266C13.9546 9.22266 14.4023 8.77494 14.4023 8.22266C14.4023 7.67037 13.9546 7.22266 13.4023 7.22266C12.8501 7.22266 12.4023 7.67037 12.4023 8.22266C12.4023 8.77494 12.8501 9.22266 13.4023 9.22266Z" stroke="#E67E22" stroke-width="0.9" stroke-linecap="round" stroke-linejoin="round"/>
</g>
<path d="M22.7923 12.3427C22.319 12.3427 21.8857 12.256 21.4923 12.0827C21.099 11.9027 20.7657 11.6593 20.4923 11.3527C20.219 11.046 20.0223 10.7027 19.9023 10.3227L20.7523 9.97266C20.9323 10.4527 21.199 10.8227 21.5523 11.0827C21.9123 11.336 22.3323 11.4627 22.8123 11.4627C23.1057 11.4627 23.3623 11.416 23.5823 11.3227C23.8023 11.2293 23.9723 11.0993 24.0923 10.9327C24.219 10.7593 24.2823 10.5593 24.2823 10.3327C24.2823 10.0193 24.1923 9.77266 24.0123 9.59266C23.839 9.40599 23.5823 9.26599 23.2423 9.17266L21.8723 8.75266C21.3323 8.58599 20.919 8.32266 20.6323 7.96266C20.3457 7.60266 20.2023 7.18932 20.2023 6.72266C20.2023 6.31599 20.299 5.95932 20.4923 5.65266C20.6923 5.33932 20.9657 5.09599 21.3123 4.92266C21.6657 4.74266 22.0657 4.65266 22.5123 4.65266C22.959 4.65266 23.3623 4.73266 23.7223 4.89266C24.089 5.05266 24.399 5.26932 24.6523 5.54266C24.9057 5.80932 25.0923 6.11599 25.2123 6.46266L24.3723 6.81266C24.2123 6.39266 23.9723 6.07599 23.6523 5.86266C23.3323 5.64266 22.9557 5.53266 22.5223 5.53266C22.2557 5.53266 22.019 5.57932 21.8123 5.67266C21.6123 5.75932 21.4557 5.88932 21.3423 6.06266C21.2357 6.22932 21.1823 6.42932 21.1823 6.66266C21.1823 6.93599 21.269 7.17932 21.4423 7.39266C21.6157 7.60599 21.879 7.76932 22.2323 7.88266L23.4823 8.25266C24.069 8.43266 24.5123 8.68932 24.8123 9.02266C25.1123 9.35599 25.2623 9.76932 25.2623 10.2627C25.2623 10.6693 25.1557 11.0293 24.9423 11.3427C24.7357 11.656 24.4457 11.9027 24.0723 12.0827C23.7057 12.256 23.279 12.3427 22.7923 12.3427ZM29.1472 12.3427C28.6272 12.3427 28.1572 12.2227 27.7372 11.9827C27.3172 11.736 26.9839 11.3993 26.7372 10.9727C26.4905 10.546 26.3672 10.0627 26.3672 9.52266C26.3672 8.98266 26.4872 8.50266 26.7272 8.08266C26.9739 7.66266 27.3072 7.32932 27.7272 7.08266C28.1472 6.83599 28.6205 6.71266 29.1472 6.71266C29.6672 6.71266 30.1372 6.83599 30.5572 7.08266C30.9772 7.32266 31.3072 7.65266 31.5472 8.07266C31.7939 8.49266 31.9172 8.97599 31.9172 9.52266C31.9172 10.0693 31.7905 10.556 31.5372 10.9827C31.2839 11.4027 30.9472 11.736 30.5272 11.9827C30.1139 12.2227 29.6539 12.3427 29.1472 12.3427ZM29.1472 11.4427C29.4805 11.4427 29.7805 11.3593 30.0472 11.1927C30.3205 11.026 30.5339 10.796 30.6872 10.5027C30.8472 10.2093 30.9272 9.88266 30.9272 9.52266C30.9272 9.15599 30.8472 8.83266 30.6872 8.55266C30.5339 8.26599 30.3205 8.03932 30.0472 7.87266C29.7805 7.69932 29.4805 7.61266 29.1472 7.61266C28.8072 7.61266 28.5005 7.69932 28.2272 7.87266C27.9605 8.03932 27.7472 8.26599 27.5872 8.55266C27.4272 8.83266 27.3472 9.15599 27.3472 9.52266C27.3472 9.88266 27.4272 10.2093 27.5872 10.5027C27.7472 10.796 27.9605 11.026 28.2272 11.1927C28.5005 11.3593 28.8072 11.4427 29.1472 11.4427ZM35.0602 12.3427C34.5202 12.3427 34.0502 12.2093 33.6502 11.9427C33.2502 11.676 32.9668 11.316 32.8002 10.8627L33.5402 10.5027C33.6935 10.8227 33.9035 11.076 34.1702 11.2627C34.4368 11.4493 34.7335 11.5427 35.0602 11.5427C35.3535 11.5427 35.5968 11.4727 35.7902 11.3327C35.9835 11.1927 36.0802 11.0093 36.0802 10.7827C36.0802 10.6227 36.0335 10.496 35.9402 10.4027C35.8535 10.3027 35.7468 10.226 35.6202 10.1727C35.4935 10.1127 35.3768 10.0693 35.2702 10.0427L34.4602 9.81266C33.9735 9.67266 33.6168 9.47266 33.3902 9.21266C33.1702 8.95266 33.0602 8.64932 33.0602 8.30266C33.0602 7.98266 33.1402 7.70599 33.3002 7.47266C33.4668 7.23266 33.6902 7.04599 33.9702 6.91266C34.2568 6.77932 34.5768 6.71266 34.9302 6.71266C35.4035 6.71266 35.8268 6.83266 36.2002 7.07266C36.5802 7.31266 36.8502 7.64932 37.0102 8.08266L36.2502 8.43266C36.1302 8.15266 35.9502 7.93266 35.7102 7.77266C35.4702 7.60599 35.2002 7.52266 34.9002 7.52266C34.6268 7.52266 34.4102 7.59266 34.2502 7.73266C34.0902 7.86599 34.0102 8.03599 34.0102 8.24266C34.0102 8.39599 34.0502 8.52266 34.1302 8.62266C34.2102 8.71599 34.3068 8.78932 34.4202 8.84266C34.5335 8.88932 34.6435 8.92932 34.7502 8.96266L35.6302 9.22266C36.0702 9.34932 36.4102 9.54599 36.6502 9.81266C36.8968 10.0793 37.0202 10.3993 37.0202 10.7727C37.0202 11.0727 36.9368 11.3427 36.7702 11.5827C36.6035 11.8227 36.3735 12.0093 36.0802 12.1427C35.7868 12.276 35.4468 12.3427 35.0602 12.3427ZM38.2376 12.2227V6.83266H39.1676V12.2227H38.2376ZM38.2376 5.97266V4.77266H39.1676V5.97266H38.2376ZM42.1906 12.3427C41.8373 12.3427 41.524 12.2793 41.2506 12.1527C40.984 12.0193 40.774 11.8393 40.6206 11.6127C40.4673 11.3793 40.3906 11.1127 40.3906 10.8127C40.3906 10.526 40.4506 10.2693 40.5706 10.0427C40.6973 9.80932 40.8906 9.61266 41.1506 9.45266C41.4173 9.29266 41.7506 9.17932 42.1506 9.11266L44.1506 8.78266V9.56266L42.3606 9.86266C42.014 9.92266 41.7606 10.0327 41.6006 10.1927C41.4473 10.3527 41.3706 10.5493 41.3706 10.7827C41.3706 11.0027 41.4573 11.186 41.6306 11.3327C41.8106 11.4793 42.034 11.5527 42.3006 11.5527C42.6406 11.5527 42.934 11.4827 43.1806 11.3427C43.434 11.196 43.6306 10.9993 43.7706 10.7527C43.9173 10.506 43.9906 10.2327 43.9906 9.93266V8.56266C43.9906 8.26932 43.8806 8.03266 43.6606 7.85266C43.4473 7.66599 43.164 7.57266 42.8106 7.57266C42.504 7.57266 42.2306 7.65266 41.9906 7.81266C41.7573 7.96599 41.584 8.17266 41.4706 8.43266L40.6606 8.01266C40.7606 7.76599 40.9206 7.54599 41.1406 7.35266C41.3606 7.15266 41.6173 6.99599 41.9106 6.88266C42.204 6.76932 42.5106 6.71266 42.8306 6.71266C43.244 6.71266 43.6073 6.79266 43.9206 6.95266C44.234 7.10599 44.4773 7.32266 44.6506 7.60266C44.8306 7.87599 44.9206 8.19599 44.9206 8.56266V12.2227H44.0106V11.2027L44.1806 11.2627C44.0673 11.476 43.914 11.6627 43.7206 11.8227C43.5273 11.9827 43.3006 12.1093 43.0406 12.2027C42.7806 12.296 42.4973 12.3427 42.1906 12.3427ZM46.3626 12.2227V4.65266H47.2926V12.2227H46.3626Z" fill="#E67E22"/>
<defs>
<clipPath id="clip0_3141_15312">
<rect width="12" height="12" fill="white" transform="translate(3.40234 2.22266)"/>
</clipPath>
</defs>
</svg>
