<svg width="66" height="17" viewBox="0 0 66 17" fill="none" xmlns="http://www.w3.org/2000/svg">
<rect x="0.0507812" y="0.203125" width="65" height="16" rx="8" fill="#D3FFE6"/>
<path d="M8.12805 3.29458C8.04282 3.29268 7.95958 3.31978 7.89277 3.37119C7.82595 3.4226 7.77977 3.49509 7.76222 3.57608L6.48096 9.39968L5.7965 10.0636L7.3149 11.5365L8.17301 10.7035C8.27294 10.607 8.35221 10.4922 8.40622 10.3658C8.46023 10.2394 8.48792 10.1039 8.4877 9.96704V3.64972C8.48757 3.55656 8.44985 3.46714 8.38262 3.40065C8.31539 3.33416 8.224 3.29644 8.12805 3.29458ZM6.66303 3.34804C6.71618 3.10685 6.83194 2.88284 6.99933 2.69728C7.16671 2.51173 7.38017 2.37077 7.61944 2.28781C7.85871 2.20484 8.11586 2.18262 8.36646 2.22324C8.61707 2.26386 8.85282 2.36599 9.05134 2.51992C9.24985 2.36583 9.48566 2.26359 9.73634 2.22292C9.98703 2.18224 10.2443 2.20448 10.4836 2.28753C10.7229 2.37057 10.9364 2.51165 11.1038 2.69737C11.2711 2.88309 11.3867 3.10726 11.4397 3.34859L12.6512 8.85632L15.0508 11.1858L11.9432 14.2026L9.13395 11.4754C9.10585 11.4478 9.07813 11.4194 9.05078 11.3903C9.02385 11.4194 8.99612 11.4478 8.96761 11.4754L6.1584 14.2031L3.05078 11.1863L5.45033 8.85632L6.66303 3.34804ZM10.3399 3.57553C10.3218 3.48873 10.271 3.41161 10.1974 3.35924C10.1239 3.30688 10.0328 3.28303 9.94213 3.29238C9.85141 3.30173 9.76755 3.34359 9.70695 3.40977C9.64634 3.47596 9.61335 3.56172 9.61442 3.65027V9.96649C9.61442 10.2431 9.72738 10.5082 9.92912 10.703L10.7872 11.5365L12.3045 10.063L11.6212 9.39913L10.3399 3.57553Z" fill="#27AE60"/>
<path d="M22.4408 12.3231C21.9674 12.3231 21.5341 12.2365 21.1408 12.0631C20.7474 11.8831 20.4141 11.6398 20.1408 11.3331C19.8674 11.0265 19.6708 10.6831 19.5508 10.3031L20.4008 9.95312C20.5808 10.4331 20.8474 10.8031 21.2008 11.0631C21.5608 11.3165 21.9808 11.4431 22.4608 11.4431C22.7541 11.4431 23.0108 11.3965 23.2308 11.3031C23.4508 11.2098 23.6208 11.0798 23.7408 10.9131C23.8674 10.7398 23.9308 10.5398 23.9308 10.3131C23.9308 9.99979 23.8408 9.75312 23.6608 9.57312C23.4874 9.38646 23.2308 9.24646 22.8908 9.15312L21.5208 8.73312C20.9808 8.56646 20.5674 8.30312 20.2808 7.94312C19.9941 7.58312 19.8508 7.16979 19.8508 6.70312C19.8508 6.29646 19.9474 5.93979 20.1408 5.63312C20.3408 5.31979 20.6141 5.07646 20.9608 4.90312C21.3141 4.72312 21.7141 4.63312 22.1608 4.63312C22.6074 4.63312 23.0108 4.71312 23.3708 4.87312C23.7374 5.03312 24.0474 5.24979 24.3008 5.52312C24.5541 5.78979 24.7408 6.09646 24.8608 6.44312L24.0208 6.79312C23.8608 6.37312 23.6208 6.05646 23.3008 5.84312C22.9808 5.62312 22.6041 5.51312 22.1708 5.51312C21.9041 5.51312 21.6674 5.55979 21.4608 5.65312C21.2608 5.73979 21.1041 5.86979 20.9908 6.04312C20.8841 6.20979 20.8308 6.40979 20.8308 6.64312C20.8308 6.91646 20.9174 7.15979 21.0908 7.37312C21.2641 7.58646 21.5274 7.74979 21.8808 7.86312L23.1308 8.23312C23.7174 8.41312 24.1608 8.66979 24.4608 9.00312C24.7608 9.33646 24.9108 9.74979 24.9108 10.2431C24.9108 10.6498 24.8041 11.0098 24.5908 11.3231C24.3841 11.6365 24.0941 11.8831 23.7208 12.0631C23.3541 12.2365 22.9274 12.3231 22.4408 12.3231ZM26.2356 14.2031V6.81312H27.1456V7.97312L27.0256 7.74312C27.2256 7.42312 27.499 7.16979 27.8456 6.98312C28.1923 6.78979 28.589 6.69313 29.0356 6.69313C29.5423 6.69313 29.9956 6.81646 30.3956 7.06313C30.8023 7.30979 31.1223 7.64646 31.3556 8.07312C31.589 8.49312 31.7056 8.97312 31.7056 9.51312C31.7056 10.0398 31.589 10.5165 31.3556 10.9431C31.1223 11.3698 30.8023 11.7065 30.3956 11.9531C29.9956 12.1998 29.539 12.3231 29.0256 12.3231C28.5923 12.3231 28.1956 12.2265 27.8356 12.0331C27.4823 11.8398 27.209 11.5665 27.0156 11.2131L27.1656 11.0531V14.2031H26.2356ZM28.9556 11.4231C29.2956 11.4231 29.599 11.3398 29.8656 11.1731C30.1323 11.0065 30.339 10.7798 30.4856 10.4931C30.639 10.1998 30.7156 9.87312 30.7156 9.51312C30.7156 9.13979 30.639 8.81312 30.4856 8.53312C30.339 8.24646 30.1323 8.01979 29.8656 7.85312C29.599 7.67979 29.2956 7.59312 28.9556 7.59312C28.6156 7.59312 28.309 7.67646 28.0356 7.84312C27.769 8.00979 27.5556 8.23979 27.3956 8.53312C27.2423 8.81979 27.1656 9.14646 27.1656 9.51312C27.1656 9.87312 27.2423 10.1998 27.3956 10.4931C27.5556 10.7798 27.769 11.0065 28.0356 11.1731C28.309 11.3398 28.6156 11.4231 28.9556 11.4231ZM32.9251 12.2031V6.81312H33.8551V12.2031H32.9251ZM32.9251 5.95312V4.75312H33.8551V5.95312H32.9251ZM35.2981 12.2031V6.81312H36.2081V7.80312L36.1081 7.66312C36.2348 7.35646 36.4281 7.12979 36.6881 6.98312C36.9481 6.82979 37.2648 6.75312 37.6381 6.75312H37.9681V7.63312H37.4981C37.1181 7.63312 36.8115 7.75312 36.5781 7.99312C36.3448 8.22646 36.2281 8.55979 36.2281 8.99312V12.2031H35.2981ZM38.7942 12.2031V6.81312H39.7242V12.2031H38.7942ZM38.7942 5.95312V4.75312H39.7242V5.95312H38.7942ZM43.3573 12.2631C42.8306 12.2631 42.4239 12.1131 42.1373 11.8131C41.8573 11.5131 41.7173 11.0898 41.7173 10.5431V7.70312H40.7373V6.81312H40.9373C41.1773 6.81312 41.3673 6.73979 41.5073 6.59312C41.6473 6.44646 41.7173 6.25312 41.7173 6.01312V5.57312H42.6473V6.81312H43.8573V7.70312H42.6473V10.5131C42.6473 10.6931 42.6739 10.8498 42.7273 10.9831C42.7873 11.1165 42.8839 11.2231 43.0173 11.3031C43.1506 11.3765 43.3273 11.4131 43.5473 11.4131C43.5939 11.4131 43.6506 11.4098 43.7173 11.4031C43.7906 11.3965 43.8573 11.3898 43.9173 11.3831V12.2031C43.8306 12.2231 43.7339 12.2365 43.6273 12.2431C43.5206 12.2565 43.4306 12.2631 43.3573 12.2631ZM47.0421 12.3231C46.6554 12.3231 46.3054 12.2331 45.9921 12.0531C45.6854 11.8731 45.4454 11.6231 45.2721 11.3031C45.1054 10.9765 45.0221 10.6031 45.0221 10.1831V6.81312H45.9521V10.0831C45.9521 10.3498 46.0054 10.5831 46.1121 10.7831C46.2254 10.9831 46.3788 11.1398 46.5721 11.2531C46.7721 11.3665 46.9988 11.4231 47.2521 11.4231C47.5054 11.4231 47.7288 11.3665 47.9221 11.2531C48.1221 11.1398 48.2754 10.9765 48.3821 10.7631C48.4954 10.5498 48.5521 10.2965 48.5521 10.0031V6.81312H49.4921V12.2031H48.5821V11.1531L48.7321 11.2431C48.6054 11.5831 48.3888 11.8498 48.0821 12.0431C47.7821 12.2298 47.4354 12.3231 47.0421 12.3231ZM52.5129 12.3231C52.1596 12.3231 51.8462 12.2598 51.5729 12.1331C51.3062 11.9998 51.0962 11.8198 50.9429 11.5931C50.7896 11.3598 50.7129 11.0931 50.7129 10.7931C50.7129 10.5065 50.7729 10.2498 50.8929 10.0231C51.0196 9.78979 51.2129 9.59312 51.4729 9.43312C51.7396 9.27312 52.0729 9.15979 52.4729 9.09312L54.4729 8.76312V9.54312L52.6829 9.84312C52.3362 9.90312 52.0829 10.0131 51.9229 10.1731C51.7696 10.3331 51.6929 10.5298 51.6929 10.7631C51.6929 10.9831 51.7796 11.1665 51.9529 11.3131C52.1329 11.4598 52.3562 11.5331 52.6229 11.5331C52.9629 11.5331 53.2562 11.4631 53.5029 11.3231C53.7562 11.1765 53.9529 10.9798 54.0929 10.7331C54.2396 10.4865 54.3129 10.2131 54.3129 9.91312V8.54312C54.3129 8.24979 54.2029 8.01312 53.9829 7.83312C53.7696 7.64646 53.4862 7.55312 53.1329 7.55312C52.8262 7.55312 52.5529 7.63312 52.3129 7.79312C52.0796 7.94646 51.9062 8.15312 51.7929 8.41312L50.9829 7.99312C51.0829 7.74646 51.2429 7.52646 51.4629 7.33312C51.6829 7.13312 51.9396 6.97646 52.2329 6.86312C52.5262 6.74979 52.8329 6.69313 53.1529 6.69313C53.5662 6.69313 53.9296 6.77312 54.2429 6.93312C54.5562 7.08646 54.7996 7.30312 54.9729 7.58312C55.1529 7.85646 55.2429 8.17646 55.2429 8.54312V12.2031H54.3329V11.1831L54.5029 11.2431C54.3896 11.4565 54.2362 11.6431 54.0429 11.8031C53.8496 11.9631 53.6229 12.0898 53.3629 12.1831C53.1029 12.2765 52.8196 12.3231 52.5129 12.3231ZM56.6848 12.2031V4.63312H57.6148V12.2031H56.6848Z" fill="#27AE60"/>
</svg>
