<svg width="200" height="203" viewBox="0 0 200 203" fill="none" xmlns="http://www.w3.org/2000/svg">
<path d="M75.1092 7.82155C75.3458 6.12463 72.9437 4.72797 71.1422 4.58239C70.2823 4.5096 69.3906 4.64153 68.5763 4.35947C66.8157 3.7453 66.1105 1.46606 64.3863 0.719961C63.0988 0.178584 61.6203 0.660819 60.3738 1.28863C59.1272 1.91645 57.8898 2.70804 56.4977 2.79903C55.2876 2.87637 53.9682 2.42598 52.9082 3.0174C52.1166 3.47234 51.7026 4.38222 50.9747 4.9054C50.2173 5.37377 49.3402 5.61239 48.4498 5.59235C47.562 5.56829 46.6777 5.71182 45.843 6.01545C45.0378 6.38395 44.3736 7.23923 44.5419 8.10816L75.1092 7.82155Z" fill="#F5F5F5"/>
<path d="M195.901 108.231C196.292 105.406 192.303 103.082 189.305 102.84C187.876 102.722 186.393 102.94 185.037 102.467C182.107 101.448 180.943 97.6586 178.072 96.4485C175.934 95.5386 173.468 96.353 171.394 97.3948C169.319 98.4366 167.272 99.7514 164.952 99.9015C162.936 100.029 160.748 99.2828 158.983 100.27C157.668 101.002 156.981 102.517 155.771 103.409C154.561 104.301 153.041 104.469 151.567 104.551C150.093 104.633 148.574 104.642 147.236 105.256C145.899 105.87 144.789 107.285 145.066 108.732L195.901 108.231Z" fill="#FFC550"/>
<path d="M44.2233 39.2813C44.519 37.1203 41.4664 35.3415 39.1735 35.155C38.0817 35.0686 36.9489 35.2369 35.9116 34.8729C33.6687 34.0904 32.7725 31.1925 30.5797 30.2689C28.9465 29.5774 27.0585 30.1962 25.4708 30.9923C23.883 31.7884 22.318 32.8121 20.5438 32.9121C19.0015 33.0077 17.3274 32.4572 15.9944 33.1897C14.989 33.7538 14.4658 34.9093 13.5377 35.5917C12.6097 36.2741 11.4496 36.4061 10.3213 36.4652C9.19307 36.5244 8.04662 36.538 7.00936 37.0066C5.9721 37.4752 5.13957 38.5579 5.34884 39.6634L44.2233 39.2813Z" fill="#F5F5F5"/>
<path d="M164.997 157.042L154.875 200.989L159.156 200.975L169.297 157.456L164.997 157.042Z" fill="#FFAB20"/>
<path d="M183.457 157.042L193.616 200.989H197.683L187.856 157.042H183.457Z" fill="#FFAB20"/>
<path d="M158.164 124.036L163.928 154.294H170.475L164.319 124.036H158.164Z" fill="#FFAB20"/>
<path d="M57.7923 157.042L49.5352 200.989H53.7388L62.3644 157.042H57.7923Z" fill="#FFAB20"/>
<path d="M75.1523 157.042L84.5878 200.748H88.7414L79.6289 157.042H75.1523Z" fill="#FFAB20"/>
<path d="M50.957 124.036L56.7211 154.294H63.2677L57.1123 124.036H50.957Z" fill="#FFAB20"/>
<path d="M37.9922 121.288L39.1705 126.788H170.67L169.137 121.288H37.9922Z" fill="#FFC550"/>
<path d="M40.5039 131.97L41.896 137.47H172.504L171.317 131.97H40.5039Z" fill="#FFC550"/>
<path d="M43.1016 143.029L44.3936 148.53H174.602L173.369 143.029H43.1016Z" fill="#FFC550"/>
<path d="M193.462 154.294H53.0547V159.794H193.462V154.294Z" fill="#FFC550"/>
<path d="M136.568 86.1716C135.483 86.172 134.417 85.8871 133.477 85.3454C132.537 84.8038 131.756 84.0245 131.212 83.0858C130.668 82.147 130.381 81.0817 130.379 79.9968C130.377 78.9119 130.66 77.8454 131.2 76.9045L148.943 45.9687C149.478 45.0221 150.256 44.2352 151.196 43.6891C152.136 43.1429 153.205 42.8572 154.293 42.8614C155.377 42.855 156.443 43.1363 157.383 43.6765C158.323 44.2168 159.103 44.9968 159.643 45.9368L177.567 76.768C178.112 77.7073 178.401 78.7735 178.403 79.8595C178.406 80.9454 178.123 82.0131 177.583 82.9552C177.043 83.8973 176.264 84.6807 175.326 85.2269C174.387 85.7731 173.321 86.0628 172.235 86.067L136.573 86.1761L136.568 86.1716ZM154.311 44.7039C153.548 44.7016 152.798 44.9027 152.138 45.2865C151.478 45.6703 150.933 46.223 150.558 46.8876L132.815 77.8235C132.436 78.4833 132.237 79.2311 132.239 79.9919C132.24 80.7527 132.441 81.4999 132.822 82.1584C133.204 82.8169 133.751 83.3636 134.41 83.7438C135.069 84.124 135.817 84.3243 136.577 84.3245L172.24 84.2154C172.999 84.2108 173.744 84.0071 174.4 83.6248C175.056 83.2424 175.6 82.6947 175.978 82.0363C176.356 81.3779 176.554 80.6318 176.554 79.8726C176.553 79.1134 176.354 78.3677 175.975 77.7097L158.05 46.8831C157.675 46.2206 157.131 45.6697 156.473 45.2868C155.815 44.9039 155.068 44.7028 154.306 44.7039H154.311Z" fill="#FFC550"/>
<path d="M150.824 58.0883L151.657 69.6301C151.688 70.0855 151.886 70.5135 152.212 70.8329C152.538 71.1524 152.97 71.3411 153.426 71.3634C153.906 71.3881 154.377 71.2277 154.742 70.9153C155.107 70.6029 155.338 70.1624 155.387 69.6847L156.57 58.0701C156.591 57.8627 156.567 57.6533 156.501 57.4557C156.435 57.2581 156.327 57.0768 156.186 56.9238C156.044 56.7707 155.872 56.6494 155.68 56.5678C155.488 56.4862 155.282 56.4463 155.073 56.4505L152.257 56.5142C152.058 56.5186 151.862 56.5634 151.681 56.6459C151.5 56.7284 151.337 56.8468 151.203 56.994C151.069 57.1412 150.966 57.3141 150.901 57.5022C150.836 57.6903 150.81 57.8897 150.824 58.0883Z" fill="#FFC550"/>
<path d="M156.546 77.8323C156.375 78.3619 156.05 78.8289 155.614 79.1742C155.177 79.5195 154.648 79.7277 154.093 79.7724C153.538 79.8172 152.983 79.6965 152.496 79.4256C152.01 79.1547 151.615 78.7458 151.361 78.2505C151.107 77.7552 151.006 77.1957 151.069 76.6427C151.133 76.0898 151.359 75.5681 151.719 75.1437C152.08 74.7192 152.557 74.411 153.093 74.2579C153.628 74.1049 154.196 74.1139 154.726 74.2838C155.079 74.3969 155.406 74.5785 155.689 74.8181C155.971 75.0578 156.204 75.3508 156.373 75.6805C156.542 76.0101 156.644 76.3699 156.674 76.7391C156.704 77.1084 156.66 77.4799 156.546 77.8323Z" fill="#FFC550"/>
<path d="M200 200.934C200 200.997 155.225 201.052 100.005 201.052C44.7841 201.052 0 200.997 0 200.934C0 200.87 44.7659 200.815 100.005 200.815C155.243 200.815 200 200.865 200 200.934Z" fill="#263238"/>
<path d="M130.719 152.129L84.7704 152.097C79.2474 152.097 74.7617 147.388 74.7617 141.583V20.5696C74.7617 14.7646 79.2474 10.056 84.7704 10.0606L130.696 10.0878C136.224 10.0878 140.705 14.7965 140.705 20.6015L140.682 141.615C140.728 147.425 136.247 152.129 130.719 152.129Z" fill="#263238"/>
<path d="M130.704 14.373H121.797C121.196 14.4025 120.631 14.669 120.226 15.1141C119.821 15.5592 119.609 16.1466 119.636 16.7478V18.4447C119.663 19.0467 119.45 19.6348 119.044 20.08C118.638 20.5253 118.072 20.7912 117.47 20.8195H100.114C99.5124 20.7901 98.9468 20.523 98.5417 20.0769C98.1365 19.6308 97.9249 19.0421 97.9534 18.4402V16.7478C97.9806 16.1466 97.7684 15.5592 97.3634 15.1141C96.9584 14.669 96.3935 14.4025 95.7924 14.373H84.8739C81.0024 14.373 77.8633 17.6714 77.8633 21.7385V139.85C77.8633 143.912 80.9978 147.211 84.8648 147.215L130.704 147.242C134.576 147.242 137.715 143.949 137.715 139.882L137.706 21.7522C137.706 17.6577 134.576 14.373 130.704 14.373Z" fill="white"/>
<path d="M90.3539 136.064V138.953C90.3535 139.01 90.3381 139.065 90.3091 139.114C90.2802 139.163 90.2388 139.203 90.1892 139.23C90.1396 139.257 90.0836 139.271 90.027 139.27C89.9704 139.268 89.9152 139.251 89.8671 139.222L87.5924 137.775C87.5473 137.746 87.5102 137.706 87.4845 137.659C87.4588 137.613 87.4453 137.56 87.4453 137.506C87.4453 137.453 87.4588 137.4 87.4845 137.353C87.5102 137.306 87.5473 137.267 87.5924 137.238L89.8671 135.791C89.9155 135.761 89.9711 135.745 90.0281 135.743C90.0851 135.742 90.1414 135.756 90.1912 135.784C90.2409 135.812 90.2823 135.852 90.3109 135.902C90.3395 135.951 90.3543 136.007 90.3539 136.064Z" fill="#E0E0E0"/>
<path d="M109.036 137.48C109.035 137.874 108.918 138.258 108.698 138.585C108.479 138.912 108.167 139.167 107.803 139.317C107.439 139.467 107.038 139.506 106.652 139.429C106.266 139.351 105.911 139.161 105.633 138.882C105.355 138.604 105.165 138.249 105.089 137.862C105.012 137.476 105.052 137.075 105.203 136.711C105.354 136.348 105.609 136.037 105.937 135.818C106.264 135.599 106.65 135.482 107.043 135.482C107.572 135.484 108.079 135.695 108.453 136.069C108.826 136.443 109.036 136.951 109.036 137.48Z" fill="#E0E0E0"/>
<path d="M126.173 135.741H124.198C123.729 135.741 123.348 136.122 123.348 136.592V138.575C123.348 139.045 123.729 139.426 124.198 139.426H126.173C126.643 139.426 127.024 139.045 127.024 138.575V136.592C127.024 136.122 126.643 135.741 126.173 135.741Z" fill="#E0E0E0"/>
<path d="M129.934 71.8688C132.869 59.7207 125.4 47.494 113.251 44.5595C101.103 41.6251 88.8766 49.0942 85.9422 61.2423C83.0077 73.3903 90.4769 85.6171 102.625 88.5516C114.773 91.486 127 84.0169 129.934 71.8688Z" fill="#F5F5F5"/>
<path d="M108.947 76.517C108.946 76.887 108.835 77.2484 108.629 77.5554C108.422 77.8625 108.129 78.1015 107.787 78.242C107.445 78.3826 107.069 78.4184 106.706 78.345C106.343 78.2716 106.011 78.0923 105.75 77.8297C105.489 77.5671 105.312 77.2331 105.242 76.8699C105.171 76.5067 105.209 76.1307 105.352 75.7895C105.495 75.4483 105.737 75.1571 106.045 74.953C106.354 74.7488 106.716 74.6408 107.086 74.6426C107.581 74.6462 108.054 74.8453 108.402 75.1964C108.751 75.5475 108.947 76.0222 108.947 76.517Z" fill="#455A64"/>
<path d="M103.345 74.1151C103.822 73.6015 104.399 73.1901 105.039 72.9057C105.68 72.6213 106.372 72.4698 107.072 72.4605C107.773 72.4511 108.469 72.5841 109.117 72.8513C109.765 73.1185 110.352 73.5144 110.843 74.015C111.798 74.9795 113.29 73.5009 112.335 72.5364C111.648 71.8443 110.83 71.2966 109.928 70.9254C109.026 70.5543 108.06 70.3672 107.085 70.3752C106.11 70.3833 105.146 70.5863 104.251 70.9723C103.356 71.3583 102.546 71.9195 101.871 72.6229C100.939 73.601 102.417 75.0977 103.354 74.1151H103.345Z" fill="#455A64"/>
<path d="M96.9946 65.4266C99.838 62.9699 103.232 61.4231 107.031 61.414C110.823 61.3599 114.492 62.7562 117.289 65.3174C118.272 66.2273 119.769 64.7669 118.782 63.8389C115.593 60.8858 111.399 59.2589 107.053 59.2895C102.681 59.2895 98.7962 61.1092 95.5252 63.9162C94.5015 64.8033 95.9801 66.291 97.0082 65.4084L96.9946 65.4266Z" fill="#455A64"/>
<path d="M99.4998 70.2345C100.448 69.1765 101.605 68.3265 102.898 67.7379C104.19 67.1494 105.591 66.8352 107.012 66.8151C108.432 66.795 109.841 67.0695 111.15 67.6212C112.459 68.1729 113.64 68.9899 114.617 70.0207C115.564 70.9897 117.056 69.5111 116.11 68.5376C114.937 67.3119 113.525 66.3401 111.961 65.6825C110.397 65.0249 108.715 64.6955 107.019 64.7147C105.322 64.7339 103.648 65.1012 102.1 65.7941C100.551 66.4869 99.1614 67.4903 98.0167 68.7423C97.1068 69.7341 98.5762 71.2308 99.4998 70.2345Z" fill="#455A64"/>
<path d="M124.747 61.4625C125.298 58.3426 123.217 55.366 120.097 54.8142C116.977 54.2624 114 56.3443 113.448 59.4642C112.897 62.5841 114.978 65.5606 118.098 66.1124C121.218 66.6642 124.195 64.5824 124.747 61.4625Z" fill="#5263F3"/>
<path d="M121.462 58.8598L120.648 58.0459L117.004 61.6906L117.818 62.5045L121.462 58.8598Z" fill="white"/>
<path d="M117.818 58.0406L117.004 58.8545L120.649 62.4992L121.463 61.6854L117.818 58.0406Z" fill="white"/>
<path d="M106.42 27.0068C106.705 26.8357 107.011 26.7026 107.33 26.611L107.516 25.7011L109.031 25.6738L109.25 26.5837C109.568 26.6643 109.874 26.7867 110.16 26.9477L110.919 26.4381L112.011 27.4936L111.533 28.2761C111.705 28.5608 111.838 28.8667 111.929 29.186L112.839 29.3725L112.866 30.892L111.957 31.1058C111.878 31.4236 111.757 31.7296 111.597 32.0157L112.098 32.78L111.047 33.8718L110.264 33.4169C109.979 33.5863 109.673 33.7178 109.354 33.8081L109.168 34.718L107.653 34.7453L107.434 33.8354C107.117 33.7539 106.811 33.6316 106.525 33.4715L105.756 33.9719L104.664 32.921L105.142 32.1385C104.97 31.8541 104.837 31.5481 104.746 31.2286L103.836 31.0421L103.809 29.5272L104.718 29.3088C104.798 28.9912 104.919 28.6854 105.078 28.3989L104.577 27.6301L105.633 26.5428L106.415 26.9977L106.42 27.0068ZM107.225 29.0313C107.001 29.263 106.851 29.5559 106.794 29.873C106.737 30.19 106.775 30.5169 106.903 30.8124C107.032 31.1078 107.245 31.3585 107.516 31.5327C107.787 31.707 108.104 31.7969 108.426 31.7912C108.748 31.7854 109.061 31.6843 109.326 31.5005C109.59 31.3168 109.794 31.0587 109.912 30.7588C110.03 30.459 110.057 30.131 109.988 29.8162C109.919 29.5014 109.759 29.214 109.527 28.9903C109.216 28.6907 108.799 28.5266 108.368 28.5343C107.936 28.542 107.525 28.7207 107.225 29.0313Z" fill="#E0E0E0"/>
<path d="M87.1802 30.3964C86.7252 30.3964 86.0929 30.3964 85.4878 30.3964C84.7644 30.3964 84.0411 30.3964 83.5361 30.3964C83.4758 30.3964 83.4179 30.3724 83.3753 30.3298C83.3326 30.2871 83.3086 30.2293 83.3086 30.1689C83.308 30.1393 83.3134 30.1098 83.3243 30.0822C83.3352 30.0546 83.3515 30.0295 83.3723 30.0083C83.3931 29.9872 83.4178 29.9703 83.4452 29.9588C83.4725 29.9474 83.5019 29.9414 83.5316 29.9415C84.0365 29.9415 84.769 29.9415 85.4969 29.9415C86.2248 29.9415 86.9436 29.9687 87.4486 29.9415C87.4782 29.9408 87.5077 29.9462 87.5353 29.9571C87.5629 29.968 87.588 29.9844 87.6092 30.0051C87.6303 30.0259 87.6472 30.0507 87.6587 30.078C87.6701 30.1053 87.6761 30.1347 87.6761 30.1644C87.6767 30.1942 87.6714 30.2239 87.6605 30.2518C87.6496 30.2796 87.6334 30.305 87.6127 30.3266C87.592 30.3481 87.5672 30.3654 87.5398 30.3773C87.5125 30.3893 87.483 30.3958 87.4531 30.3964H87.1802Z" fill="#263238"/>
<path d="M84.9188 31.9248C84.887 31.9242 84.8556 31.917 84.8266 31.9037C84.7977 31.8904 84.7718 31.8712 84.7505 31.8475L83.3857 30.287C83.3486 30.2441 83.3281 30.1892 83.3281 30.1324C83.3281 30.0756 83.3486 30.0207 83.3857 29.9777L84.7505 28.5583C84.7704 28.5341 84.7951 28.5144 84.823 28.5002C84.8509 28.4861 84.8815 28.4778 84.9127 28.476C84.9439 28.4741 84.9752 28.4788 85.0046 28.4896C85.0339 28.5004 85.0608 28.5172 85.0834 28.5388C85.1059 28.5605 85.1238 28.5866 85.1359 28.6154C85.1479 28.6443 85.1539 28.6754 85.1534 28.7067C85.1529 28.7379 85.146 28.7688 85.133 28.7973C85.12 28.8258 85.1013 28.8513 85.0781 28.8722L83.8725 30.1415L85.119 31.5472C85.148 31.5802 85.1668 31.6209 85.1732 31.6643C85.1796 31.7078 85.1732 31.7521 85.155 31.7921C85.1367 31.832 85.1072 31.8658 85.0702 31.8893C85.0331 31.9129 84.9901 31.9252 84.9461 31.9248H84.9188Z" fill="#263238"/>
<path d="M131.815 29.0714C132.204 29.0714 132.52 28.7557 132.52 28.3663C132.52 27.9768 132.204 27.6611 131.815 27.6611C131.425 27.6611 131.109 27.9768 131.109 28.3663C131.109 28.7557 131.425 29.0714 131.815 29.0714Z" fill="#263238"/>
<path d="M132.517 30.5958C132.518 30.7365 132.477 30.8744 132.399 30.9918C132.322 31.1092 132.211 31.2009 132.081 31.2551C131.951 31.3094 131.808 31.3239 131.67 31.2966C131.532 31.2694 131.405 31.2017 131.306 31.1022C131.206 31.0026 131.138 30.8758 131.111 30.7377C131.084 30.5996 131.098 30.4565 131.153 30.3266C131.207 30.1968 131.298 30.086 131.416 30.0083C131.533 29.9307 131.671 29.8897 131.812 29.8906C131.999 29.8906 132.178 29.9649 132.311 30.0972C132.443 30.2294 132.517 30.4088 132.517 30.5958Z" fill="#263238"/>
<path d="M131.815 33.5304C132.204 33.5304 132.52 33.2147 132.52 32.8253C132.52 32.4358 132.204 32.1201 131.815 32.1201C131.425 32.1201 131.109 32.4358 131.109 32.8253C131.109 33.2147 131.425 33.5304 131.815 33.5304Z" fill="#263238"/>
<path d="M92.6118 97.6763C91.5394 97.7934 90.4599 97.8329 89.3818 97.7946C88.3051 97.8328 87.2272 97.7933 86.1562 97.6763C87.2272 97.5594 88.3051 97.5199 89.3818 97.5581C90.4599 97.5198 91.5394 97.5593 92.6118 97.6763Z" fill="#263238"/>
<path d="M104.2 105.229C104.2 105.292 100.233 105.347 95.342 105.347C90.4514 105.347 86.4844 105.292 86.4844 105.229C86.4844 105.165 90.4469 105.11 95.342 105.11C100.237 105.11 104.2 105.165 104.2 105.229Z" fill="#263238"/>
<path d="M104.2 112.739C104.2 112.803 100.233 112.858 95.342 112.858C90.4514 112.858 86.4844 112.803 86.4844 112.739C86.4844 112.676 90.4469 112.621 95.342 112.621C100.237 112.621 104.2 112.667 104.2 112.739Z" fill="#263238"/>
<path d="M127.613 102.395H121.135C119.57 102.395 118.301 103.662 118.301 105.227C118.301 106.791 119.57 108.059 121.135 108.059H127.613C129.179 108.059 130.448 106.791 130.448 105.227C130.448 103.662 129.179 102.395 127.613 102.395Z" fill="#EBEBEB"/>
<path d="M123.476 105.228C123.476 105.698 123.337 106.157 123.076 106.548C122.815 106.938 122.444 107.243 122.01 107.422C121.576 107.602 121.099 107.649 120.638 107.557C120.177 107.466 119.754 107.24 119.422 106.908C119.09 106.575 118.864 106.152 118.772 105.692C118.681 105.231 118.728 104.753 118.907 104.32C119.087 103.886 119.391 103.515 119.782 103.254C120.173 102.993 120.632 102.854 121.101 102.854C121.413 102.854 121.722 102.915 122.01 103.034C122.298 103.154 122.56 103.329 122.781 103.549C123.001 103.77 123.176 104.031 123.295 104.32C123.415 104.608 123.476 104.916 123.476 105.228Z" fill="#E0E0E0"/>
<path d="M127.618 115.565H121.135C120.383 115.565 119.662 115.266 119.131 114.735C118.599 114.203 118.301 113.482 118.301 112.731C118.301 111.979 118.599 111.258 119.131 110.727C119.662 110.195 120.383 109.896 121.135 109.896H127.618C128.37 109.896 129.091 110.195 129.622 110.727C130.154 111.258 130.452 111.979 130.452 112.731C130.452 113.482 130.154 114.203 129.622 114.735C129.091 115.266 128.37 115.565 127.618 115.565Z" fill="#EBEBEB"/>
<path d="M121.101 115.105C122.413 115.105 123.476 114.042 123.476 112.73C123.476 111.419 122.413 110.355 121.101 110.355C119.79 110.355 118.727 111.419 118.727 112.73C118.727 114.042 119.79 115.105 121.101 115.105Z" fill="#E0E0E0"/>
<path d="M104.2 120.282C104.2 120.351 100.233 120.401 95.342 120.401C90.4514 120.401 86.4844 120.351 86.4844 120.282C86.4844 120.214 90.4469 120.164 95.342 120.164C100.237 120.164 104.2 120.219 104.2 120.282Z" fill="#263238"/>
<path d="M127.618 123.954H121.135C120.763 123.955 120.395 123.882 120.051 123.74C119.707 123.598 119.394 123.39 119.131 123.127C118.868 122.864 118.659 122.552 118.517 122.208C118.374 121.865 118.301 121.496 118.301 121.124C118.301 120.373 118.599 119.652 119.131 119.12C119.662 118.589 120.383 118.29 121.135 118.29H127.618C128.37 118.29 129.091 118.589 129.622 119.12C130.154 119.652 130.452 120.373 130.452 121.124C130.452 121.496 130.379 121.865 130.236 122.208C130.094 122.552 129.885 122.864 129.622 123.127C129.359 123.39 129.046 123.598 128.702 123.74C128.358 123.882 127.99 123.955 127.618 123.954Z" fill="#EBEBEB"/>
<path d="M121.101 123.499C122.413 123.499 123.476 122.435 123.476 121.124C123.476 119.812 122.413 118.749 121.101 118.749C119.79 118.749 118.727 119.812 118.727 121.124C118.727 122.435 119.79 123.499 121.101 123.499Z" fill="#E0E0E0"/>
<path d="M181.737 22.3241C182.39 18.2809 179.641 14.4742 175.598 13.8216C171.555 13.1689 167.748 15.9174 167.096 19.9605C166.443 24.0037 169.192 27.8103 173.235 28.463C177.278 29.1157 181.085 26.3672 181.737 22.3241Z" fill="#FFC550"/>
<path d="M173.363 37.7244C173.322 37.7244 173.285 36.3596 173.285 34.6627C173.285 32.9657 173.322 31.6055 173.363 31.6055C173.441 32.6225 173.467 33.6429 173.44 34.6627C173.467 35.6839 173.441 36.7059 173.363 37.7244Z" fill="#FFAB20"/>
<path d="M169.093 29.8821C169.13 29.8821 168.434 31.1833 167.537 32.7346C166.641 34.2859 165.882 35.5325 165.845 35.5097C165.809 35.487 166.505 34.2132 167.401 32.6573C168.297 31.1014 169.057 29.8594 169.093 29.8821Z" fill="#FFAB20"/>
<path d="M164.705 27.1523C164.163 27.6832 163.586 28.1758 162.976 28.6263C162.399 29.1193 161.791 29.5752 161.156 29.9912C161.698 29.4603 162.275 28.9677 162.885 28.5172C163.46 28.0217 164.068 27.5657 164.705 27.1523Z" fill="#FFAB20"/>
<path d="M180.762 34.7082C180.673 34.4648 180.608 34.2134 180.566 33.9576C180.462 33.5027 180.307 32.8475 180.111 32.1378C179.916 31.4281 179.729 30.8003 179.588 30.3454C179.493 30.1028 179.423 29.8513 179.379 29.5947C179.508 29.821 179.614 30.0605 179.693 30.309C179.861 30.7639 180.07 31.3872 180.261 32.0969C180.453 32.8066 180.584 33.4617 180.666 33.9166C180.726 34.1764 180.758 34.4417 180.762 34.7082Z" fill="#FFAB20"/>
<path d="M188.281 29.3717C187.518 28.8053 186.786 28.1978 186.088 27.552C185.357 26.9476 184.66 26.3036 184 25.623C184.763 26.1895 185.495 26.797 186.193 27.4428C186.923 28.0472 187.621 28.6912 188.281 29.3717Z" fill="#FFAB20"/>
<path d="M191.161 22.039C190.854 22.0202 190.55 21.9776 190.251 21.9116C189.7 21.8206 188.94 21.7024 188.099 21.6068C187.257 21.5113 186.488 21.4521 185.933 21.4157C185.628 21.4151 185.324 21.3892 185.023 21.3384C185.325 21.2974 185.63 21.2867 185.933 21.3066C186.493 21.3066 187.266 21.3566 188.112 21.4521C188.959 21.5477 189.723 21.6842 190.269 21.8024C190.573 21.8537 190.871 21.9329 191.161 22.039Z" fill="#FFAB20"/>
<path d="M191.17 14.8275C191.17 14.873 189.578 15.2824 187.585 15.7828C185.593 16.2833 183.973 16.6245 183.946 16.5835C183.918 16.5426 185.542 16.1286 187.531 15.6327C189.519 15.1368 191.161 14.7865 191.17 14.8275Z" fill="#FFAB20"/>
<path d="M182.797 6.42969C182.829 6.42969 182.065 7.67622 181.082 9.15932C180.099 10.6424 179.262 11.8344 179.235 11.8071C179.208 11.7798 179.968 10.5605 180.95 9.07743C181.521 8.16411 182.137 7.28039 182.797 6.42969Z" fill="#FFAB20"/>
<path d="M174.478 4.67383C174.501 5.0131 174.501 5.35362 174.478 5.69289C174.478 6.32071 174.478 7.18509 174.478 8.14046C174.478 9.09583 174.478 9.96021 174.505 10.5971C174.529 10.9349 174.529 11.2739 174.505 11.6116C174.44 11.2787 174.405 10.9408 174.4 10.6017C174.364 9.97386 174.332 9.10493 174.332 8.14501C174.332 7.18509 174.359 6.32526 174.396 5.68834C174.392 5.34839 174.42 5.00883 174.478 4.67383Z" fill="#FFAB20"/>
<path d="M168.183 12.5119C168.147 12.5347 167.364 11.3245 166.441 9.8096C165.517 8.29465 164.789 7.04357 164.826 7.02082C164.862 6.99808 165.644 8.21276 166.572 9.75045C167.501 11.2881 168.242 12.4937 168.183 12.5119Z" fill="#FFAB20"/>
<path d="M164.419 15.7106C164.153 15.6997 163.889 15.6585 163.632 15.5878C163.15 15.4831 162.49 15.3239 161.767 15.1328C161.044 14.9417 160.402 14.6779 159.947 14.5187C159.693 14.4378 159.447 14.3311 159.215 14.2002C159.478 14.248 159.735 14.3211 159.984 14.4186C160.439 14.5641 161.098 14.7734 161.803 14.9827C162.509 15.192 163.168 15.3739 163.65 15.5013C163.913 15.5466 164.17 15.6167 164.419 15.7106Z" fill="#FFAB20"/>
<path d="M162.78 21.4062C162 21.5623 161.209 21.6642 160.414 21.7111C159.625 21.8126 158.831 21.8642 158.035 21.8657C158.816 21.7089 159.606 21.6056 160.401 21.5564C161.19 21.4575 161.985 21.4074 162.78 21.4062Z" fill="#FFAB20"/>
<path d="M157.723 153.565L164.356 200.82L166.084 200.875C164.983 184.824 163.81 168.456 157.723 153.565Z" fill="#455A64"/>
<path d="M176.15 151.351C171.514 156.414 169.649 163.416 168.475 170.19C166.81 179.793 166.656 191.14 167.161 200.875L169.581 200.93C168.622 184.137 170.851 167.314 176.15 151.351Z" fill="#455A64"/>
<path d="M158.942 181.522C158.409 179.179 157.8 176.8 156.462 174.802C154.643 172.109 151.717 170.408 148.756 169.079C145.794 167.751 142.687 166.695 140.012 164.857C142.996 169.748 149.766 171.049 153.205 175.626C154.92 177.901 155.634 180.758 156.303 183.528C157.773 189.57 158.673 194.797 160.138 200.816H162.104C161.457 194.324 160.401 187.88 158.942 181.522Z" fill="#455A64"/>
<path d="M171.352 200.875C171.352 200.875 173.012 182.109 174.245 178.661C175.478 175.212 187.124 165.695 187.015 166.145C186.906 166.596 178.276 177.009 177.043 179.161C175.81 181.313 173.699 200.875 173.699 200.875H171.352Z" fill="#455A64"/>
<path d="M116.297 181.249C116.757 181.433 117.175 181.708 117.526 182.057C117.877 182.407 118.154 182.823 118.34 183.283C118.711 184.204 118.867 185.199 118.795 186.19C118.699 188.1 117.749 190.088 116.684 191.681C114.996 190.389 114.473 187.982 114.282 186.74C113.982 184.784 114.628 181.062 116.307 181.249" fill="#5263F3"/>
<path d="M118.733 194.688C118.589 194.152 118.589 193.588 118.734 193.053C118.878 192.518 119.162 192.03 119.556 191.64C119.955 191.257 120.427 190.957 120.943 190.759C121.459 190.56 122.01 190.467 122.563 190.484C122.814 190.468 123.066 190.505 123.301 190.594C123.536 190.682 123.75 190.82 123.928 190.998C124.067 191.195 124.151 191.425 124.17 191.666C124.19 191.906 124.144 192.147 124.037 192.363C123.823 192.793 123.498 193.157 123.095 193.419C121.767 194.379 120.307 195.061 118.71 194.692" fill="#5263F3"/>
<path d="M117.066 200.639C117.067 200.508 117.077 200.377 117.098 200.247C117.13 199.97 117.171 199.611 117.221 199.183C117.325 197.997 117.618 196.836 118.09 195.744C118.585 194.65 119.362 193.708 120.342 193.014C120.64 192.812 120.961 192.645 121.297 192.518C121.388 192.481 121.48 192.451 121.575 192.427L121.675 192.404C121.227 192.592 120.799 192.824 120.397 193.096C119.455 193.799 118.705 194.729 118.217 195.798C117.747 196.878 117.44 198.022 117.308 199.192C117.239 199.647 117.185 200.002 117.139 200.252C117.129 200.383 117.104 200.513 117.066 200.639Z" fill="#263238"/>
<path d="M116.051 184.124C116.069 184.179 116.079 184.235 116.083 184.292L116.142 184.779C116.196 185.207 116.26 185.816 116.333 186.576C116.483 188.096 116.656 190.193 116.788 192.513C116.92 194.833 117.011 196.94 117.047 198.464C117.047 199.228 117.074 199.828 117.074 200.283V200.775C117.074 200.889 117.074 200.948 117.074 200.948C117.07 200.89 117.07 200.832 117.074 200.775L117.052 200.283C117.052 199.828 117.011 199.233 116.979 198.464C116.915 196.94 116.824 194.824 116.683 192.518C116.542 190.211 116.383 188.1 116.26 186.581C116.196 185.835 116.151 185.216 116.114 184.784C116.114 184.584 116.087 184.42 116.078 184.292C116.065 184.237 116.056 184.181 116.051 184.124Z" fill="#263238"/>
<path d="M116.044 196.026C115.778 194.889 115.244 193.831 114.487 192.942C113.729 192.053 112.771 191.357 111.691 190.912C111.14 190.689 110.431 190.566 110.017 190.994C109.603 191.422 109.748 192.127 110.017 192.664C110.56 193.779 111.422 194.709 112.493 195.335C113.564 195.962 114.797 196.258 116.035 196.185" fill="#5263F3"/>
<path d="M112.067 192.69C112.187 192.721 112.305 192.763 112.417 192.818C112.526 192.863 112.663 192.918 112.813 192.995C112.963 193.073 113.14 193.154 113.322 193.273C113.524 193.388 113.718 193.516 113.904 193.655C114.123 193.81 114.332 193.977 114.532 194.155C114.991 194.563 115.401 195.02 115.756 195.52C116.104 196.029 116.392 196.577 116.611 197.153C116.704 197.404 116.783 197.659 116.848 197.918C116.907 198.144 116.954 198.373 116.989 198.605C117.021 198.794 117.043 198.986 117.053 199.178C117.064 199.329 117.064 199.481 117.053 199.633C117.064 199.755 117.064 199.879 117.053 200.001C117.021 200.001 117.053 199.474 116.893 198.636C116.854 198.409 116.802 198.185 116.739 197.963C116.669 197.709 116.586 197.458 116.489 197.213C116.267 196.649 115.983 196.112 115.642 195.611C115.294 195.116 114.894 194.658 114.45 194.246C114.255 194.067 114.05 193.898 113.836 193.741C113.645 193.587 113.445 193.468 113.268 193.35C112.549 192.909 112.057 192.718 112.067 192.69Z" fill="#263238"/>
<path d="M36.3404 175.885L23.543 186.38L36.5224 202.362C37.9736 201.029 34.325 190.27 34.325 190.27L42.8005 183.901L36.3404 175.885Z" fill="#455A64"/>
<g opacity="0.6">
<path d="M31.0047 184.77C30.8335 184.654 30.6258 184.606 30.4211 184.634C30.2164 184.661 30.0291 184.763 29.8947 184.92C29.7722 185.087 29.7186 185.295 29.7448 185.501C29.771 185.707 29.8752 185.894 30.0357 186.026C30.2196 186.144 30.4399 186.192 30.6562 186.161C30.8726 186.13 31.0706 186.022 31.214 185.857C31.323 185.669 31.355 185.446 31.3033 185.235C31.2516 185.024 31.1201 184.841 30.9365 184.725" fill="white"/>
</g>
<g opacity="0.6">
<path d="M23.5938 186.335L24.8812 185.271L36.7642 201.121C36.7642 201.121 37.0281 202.085 36.4594 202.408L23.5938 186.335Z" fill="white"/>
</g>
<path d="M34.6152 190.466C34.5379 190.53 34.1603 190.166 33.6189 189.988C33.0775 189.811 32.5634 189.87 32.5361 189.77C32.5088 189.67 33.0548 189.424 33.7326 189.656C34.4105 189.888 34.7016 190.425 34.6152 190.466Z" fill="#263238"/>
<path d="M35.2848 192.709C35.2256 192.786 34.8298 192.558 34.2703 192.558C33.7107 192.558 33.3149 192.768 33.2558 192.69C33.1966 192.613 33.597 192.199 34.2748 192.208C34.9527 192.217 35.3576 192.645 35.2848 192.709Z" fill="#263238"/>
<path d="M34.0353 195.289C33.9579 195.234 34.2627 194.806 34.8542 194.661C35.4456 194.515 35.9096 194.743 35.8687 194.825C35.8277 194.907 35.4137 194.87 34.9588 194.997C34.5039 195.125 34.1217 195.361 34.0353 195.289Z" fill="#263238"/>
<path d="M36.3853 188.796C36.2898 188.823 36.1078 188.378 35.7165 187.959C35.3253 187.541 34.9113 187.313 34.9431 187.218C34.975 187.122 35.5255 187.218 35.9758 187.723C36.4262 188.228 36.4808 188.787 36.3853 188.796Z" fill="#263238"/>
<path d="M37.974 186.895C37.9422 186.922 37.6465 186.654 37.328 186.09C37.1459 185.759 37.0039 185.408 36.9049 185.043C36.8468 184.828 36.8042 184.609 36.7775 184.388C36.7564 184.257 36.7564 184.124 36.7775 183.993C36.794 183.897 36.8404 183.81 36.9099 183.743C36.9794 183.676 37.0685 183.633 37.1642 183.619C37.2501 183.614 37.3362 183.628 37.4154 183.662C37.4945 183.696 37.5644 183.749 37.6192 183.815C37.7024 183.917 37.7713 184.031 37.8239 184.152C37.9204 184.357 37.9981 184.57 38.0559 184.789C38.1542 185.156 38.1926 185.537 38.1696 185.917C38.1876 186.27 38.0937 186.621 37.9012 186.918C37.8512 186.918 37.9467 186.527 37.9012 185.917C37.887 185.563 37.8274 185.213 37.7238 184.875C37.6614 184.678 37.5839 184.487 37.4918 184.302C37.4008 184.097 37.2825 183.952 37.1733 183.97C37.0641 183.988 37.1187 183.97 37.096 184.061C37.0828 184.156 37.0828 184.252 37.096 184.347C37.1187 184.555 37.1521 184.762 37.1961 184.966C37.2752 185.314 37.3864 185.653 37.5282 185.981C37.7 186.274 37.849 186.579 37.974 186.895Z" fill="#263238"/>
<path d="M37.7824 186.868C37.746 186.868 37.9007 186.467 38.3829 186.026C38.6685 185.773 38.9945 185.57 39.3474 185.425C39.5576 185.341 39.7755 185.277 39.998 185.234C40.1387 185.192 40.2878 185.187 40.4311 185.219C40.5745 185.251 40.7073 185.319 40.8169 185.416C40.8735 185.489 40.9083 185.577 40.9171 185.668C40.926 185.76 40.9086 185.853 40.8669 185.935C40.8057 186.051 40.7292 186.158 40.6394 186.253C40.4852 186.432 40.3041 186.585 40.1026 186.708C39.7671 186.908 39.3874 187.023 38.9971 187.04C38.3284 187.063 37.969 186.813 37.9917 186.786C38.319 186.803 38.647 186.803 38.9744 186.786C39.3199 186.741 39.6519 186.624 39.9479 186.44C40.1192 186.334 40.2727 186.202 40.4029 186.049C40.553 185.885 40.6394 185.712 40.5712 185.662C40.4989 185.616 40.4177 185.587 40.3329 185.575C40.2482 185.563 40.1619 185.57 40.0799 185.594C39.8775 185.63 39.6782 185.681 39.4839 185.748C39.159 185.871 38.8528 186.038 38.574 186.244C38.0508 186.581 37.8279 186.895 37.7824 186.868Z" fill="#263238"/>
<path d="M30.543 184.456L30.6976 200.998L51.2882 200.911C51.1608 198.946 40.4879 195.038 40.4879 195.038L40.8246 184.434L30.543 184.456Z" fill="#455A64"/>
<g opacity="0.6">
<path d="M34.1205 194.173C33.9223 194.235 33.7536 194.367 33.647 194.545C33.5403 194.723 33.5032 194.934 33.5428 195.138C33.5974 195.337 33.7264 195.508 33.9032 195.616C34.0801 195.723 34.2913 195.759 34.4936 195.716C34.6995 195.646 34.8738 195.505 34.9848 195.318C35.0958 195.131 35.1362 194.911 35.0986 194.696C35.0208 194.494 34.8675 194.329 34.6707 194.236C34.474 194.144 34.2491 194.131 34.0432 194.201" fill="white"/>
</g>
<g opacity="0.6">
<path d="M30.6953 200.943V199.269L50.4988 199.942C50.4988 199.942 51.4087 200.342 51.3086 200.988L30.6953 200.943Z" fill="white"/>
</g>
<path d="M40.825 194.942C40.825 195.042 40.32 195.093 39.8242 195.397C39.3283 195.702 39.069 196.148 38.978 196.107C38.887 196.066 39.0326 195.488 39.6376 195.102C40.2427 194.715 40.8569 194.851 40.825 194.942Z" fill="#263238"/>
<path d="M42.9857 195.825C42.9857 195.925 42.5762 196.098 42.235 196.526C41.8938 196.954 41.7801 197.399 41.6982 197.399C41.6163 197.399 41.5344 196.826 41.9666 196.303C42.3988 195.78 42.9857 195.73 42.9857 195.825Z" fill="#263238"/>
<path d="M44.2241 198.41C44.1331 198.41 43.9921 197.927 44.2241 197.377C44.4561 196.826 44.952 196.604 44.9929 196.685C45.0339 196.767 44.7473 197.068 44.538 197.522C44.3287 197.977 44.3242 198.396 44.2241 198.41Z" fill="#263238"/>
<path d="M40.6351 192.518C40.5896 192.609 40.1301 192.472 39.5614 192.518C38.9928 192.563 38.5515 192.741 38.4969 192.654C38.4423 192.568 38.8699 192.199 39.5387 192.167C40.2074 192.136 40.6806 192.436 40.6351 192.518Z" fill="#263238"/>
<path d="M40.1286 190.08C39.7922 190.172 39.4369 190.172 39.1005 190.08C38.5073 189.975 37.9393 189.758 37.4263 189.443C37.3105 189.378 37.2047 189.297 37.1124 189.202C37.0486 189.129 37.0098 189.037 37.0016 188.941C36.9934 188.844 37.0163 188.747 37.0669 188.665C37.1181 188.592 37.1863 188.533 37.2656 188.492C37.3448 188.452 37.4328 188.431 37.5218 188.433C37.6527 188.432 37.7829 188.451 37.9085 188.487C38.5038 188.625 39.0538 188.913 39.5054 189.324C39.983 189.779 40.1514 190.139 40.115 190.157C40.0786 190.175 39.8375 189.879 39.3461 189.515C39.067 189.304 38.761 189.131 38.4363 189.001C38.2429 188.924 38.0436 188.864 37.8403 188.819C37.6219 188.765 37.4399 188.765 37.3853 188.86C37.3308 188.956 37.3853 188.91 37.4126 188.974C37.4785 189.045 37.5553 189.105 37.6401 189.151C37.8167 189.264 37.9989 189.367 38.186 189.461C38.5071 189.618 38.8422 189.744 39.1869 189.838C39.5057 189.898 39.8203 189.979 40.1286 190.08Z" fill="#263238"/>
<path d="M40.0044 190.22C39.968 190.22 39.7678 189.879 39.7269 189.224C39.7077 188.843 39.7538 188.461 39.8634 188.096C39.929 187.878 40.0159 187.668 40.1227 187.468C40.1774 187.331 40.2665 187.212 40.3813 187.12C40.4961 187.028 40.6327 186.968 40.7778 186.945C40.8735 186.942 40.9679 186.968 41.0489 187.019C41.1299 187.07 41.1939 187.144 41.2327 187.231C41.2849 187.352 41.3216 187.479 41.3419 187.609C41.3867 187.918 41.3696 188.233 41.2915 188.535C41.2134 188.837 41.0759 189.121 40.887 189.369C40.4866 189.906 40.0681 190.029 40.059 189.993C40.0499 189.956 40.3729 189.747 40.6777 189.233C40.8566 188.938 40.967 188.607 41.0007 188.264C41.0301 188.066 41.0301 187.865 41.0007 187.668C40.9643 187.45 40.8824 187.272 40.8006 187.295C40.7187 187.318 40.523 187.459 40.4412 187.636C40.3404 187.815 40.2552 188.002 40.1864 188.196C40.0731 188.527 40.0072 188.874 39.9908 189.224C39.9498 189.829 40.059 190.206 40.0044 190.22Z" fill="#263238"/>
<path d="M32.3095 88.5869C32.3095 88.5869 29.4206 91.6759 28.0057 94.6376C26.5909 97.5992 25.681 104.646 25.681 104.646C25.681 104.646 21.6957 113.522 22.3008 118.062C22.9059 122.603 26.9639 153.684 26.9639 153.684C26.9639 153.684 26.7638 183.874 29.639 189.256L30.2804 192.163L41.8905 190.079L41.8177 188.337L44.5473 129.14L51.5352 88.8371L32.3095 88.5869Z" fill="#263238"/>
<path d="M57.9277 97.3901C57.9277 97.3901 64.8655 135.605 65.4796 142.233C66.0938 148.862 42.4643 183.838 42.4643 183.838L31.6641 172.587L47.1684 143.767L42.1276 114.719L49.1382 89.0557L56.4991 89.315L57.9277 97.3901Z" fill="#263238"/>
<path d="M27.8398 179.853C27.8516 180.136 27.8789 180.418 27.9217 180.699C27.9945 181.254 28.131 182.064 28.3221 183.119C28.7088 185.221 29.3366 188.269 30.1782 192.077V192.159H30.2601L41.8747 190.121H41.9611V190.03C42.2841 182.064 42.6708 172.542 43.0848 162.328C43.5125 151.342 43.9083 141.151 44.2358 132.794C45.1048 126.079 45.8236 120.51 46.3285 116.639C46.5697 114.71 46.7607 113.195 46.8927 112.149C46.9518 111.639 47.0019 111.239 47.0337 110.97C47.0655 110.702 47.0701 110.565 47.0701 110.565C47.0701 110.565 47.0428 110.697 47.0018 110.966C46.9609 111.234 46.9018 111.635 46.829 112.14C46.6834 113.181 46.4741 114.696 46.2057 116.621C45.6962 120.474 44.9546 126.038 44.0447 132.757C43.7081 141.115 43.2941 151.305 42.8483 162.292C42.4479 172.505 42.0749 182.027 41.7655 189.993L41.8565 189.889L30.2556 191.977L30.3511 192.04C29.4867 188.237 28.8362 185.194 28.4222 183.101C28.2174 182.05 28.0673 181.24 27.9672 180.69C27.9172 180.417 27.8899 180.207 27.8717 180.066C27.8648 179.995 27.8542 179.923 27.8398 179.853Z" fill="#455A64"/>
<path d="M14.3594 72.7738C14.3594 72.7738 21.5474 57.2786 23.2443 56.4551C24.9412 55.6317 29.8182 55.3542 30.4778 56.2822L17.594 74.8346L14.3594 72.7738Z" fill="#455A64"/>
<path d="M14.7328 70.6803C14.4154 70.5045 14.043 70.4558 13.691 70.5438C11.4573 71.0988 3.29568 73.2734 2.3858 75.6073C1.33035 78.296 7.78592 113.235 8.61846 114.182C9.451 115.128 22.2894 113.54 22.6852 112.048C23.0809 110.556 18.5088 72.8958 18.5088 72.8958L14.7328 70.6803Z" fill="#455A64"/>
<path d="M4.59783 94.4785C4.59783 94.4785 3.86992 94.524 3.14657 96.1299C2.42322 97.7359 3.69705 110.774 4.65697 112.107C5.61689 113.44 8.41931 113.722 8.41931 113.722L4.59783 94.4785Z" fill="#455A64"/>
<path d="M18.9065 112.762C18.8806 112.737 18.8591 112.708 18.8428 112.676L18.6699 112.407C18.5198 112.171 18.3196 111.811 18.0831 111.334C17.4321 109.98 16.9391 108.556 16.6136 107.089C16.141 104.918 15.8007 102.719 15.5945 100.506C15.3307 98.0132 15.0395 95.2744 14.7302 92.3992C14.1114 86.6488 13.5974 81.4352 13.5109 77.6365C13.4654 75.7394 13.5109 74.2062 13.561 73.1462C13.5883 72.6185 13.6201 72.2045 13.6474 71.927C13.6474 71.7996 13.6701 71.6995 13.6792 71.6131C13.6745 71.5769 13.6745 71.5401 13.6792 71.5039C13.6843 71.5401 13.6843 71.5769 13.6792 71.6131C13.6792 71.6995 13.6792 71.8042 13.6792 71.9315C13.6792 72.2273 13.6792 72.6367 13.6383 73.1508C13.611 74.2062 13.5974 75.7394 13.6656 77.6319C13.793 81.417 14.3344 86.6261 14.9531 92.3765C15.2533 95.2472 15.5399 97.9859 15.7993 100.479C15.9933 102.687 16.3153 104.882 16.7637 107.053C17.0725 108.513 17.5377 109.936 18.1513 111.297C18.3742 111.775 18.5607 112.139 18.6972 112.385L18.8473 112.662C18.8928 112.74 18.911 112.74 18.9065 112.762Z" fill="#263238"/>
<path d="M14.8123 92.0403C14.3099 92.1634 13.8011 92.2591 13.2883 92.3269C12.3511 92.4861 11.0545 92.7364 9.64876 93.0867C8.243 93.437 6.97372 93.8191 6.06839 94.1148C5.58501 94.2957 5.09128 94.4476 4.58984 94.5698C4.70222 94.4877 4.82649 94.4232 4.95834 94.3787C5.20401 94.2695 5.56341 94.1239 6.0138 93.9556C8.36438 93.0785 10.806 92.4681 13.2928 92.1358C13.7478 92.0767 14.1526 92.0358 14.4211 92.0221C14.5517 92.0093 14.6834 92.0155 14.8123 92.0403Z" fill="#263238"/>
<path d="M4.43089 93.0361C4.45985 93.1042 4.47826 93.1763 4.48549 93.25C4.51733 93.4183 4.55373 93.623 4.59922 93.8687L4.97682 96.1434C5.29983 98.0678 5.76841 100.725 6.34163 103.645C6.91486 106.566 7.52447 109.2 7.97031 111.102C8.18868 112.012 8.36611 112.785 8.50259 113.354L8.63907 113.968C8.65983 114.039 8.67055 114.112 8.67092 114.186C8.63415 114.123 8.60802 114.054 8.59358 113.982L8.4116 113.376C8.26147 112.853 8.0522 112.089 7.80653 111.143C7.31975 109.25 6.69649 106.621 6.10961 103.695C5.52274 100.77 5.08146 98.1042 4.79939 96.1661C4.65836 95.2016 4.55373 94.4146 4.49458 93.8914C4.46729 93.6412 4.44454 93.4365 4.42634 93.2636C4.41913 93.1879 4.42066 93.1115 4.43089 93.0361Z" fill="#263238"/>
<path d="M13.5612 77.305C13.5416 76.9802 13.5661 76.6542 13.634 76.336C13.8645 74.7905 14.2658 73.2754 14.8305 71.8185C14.9292 71.5088 15.0684 71.2136 15.2445 70.9404C15.3082 70.9677 14.7896 72.3507 14.3346 74.125C13.8797 75.8993 13.6431 77.3141 13.5612 77.305Z" fill="#263238"/>
<path d="M58.6638 44.1308C58.591 42.816 58.4272 36.3968 58.3499 35.4415C58.2683 34.11 57.6942 32.8564 56.7394 31.9248C56.2687 31.4634 55.6727 31.1506 55.0256 31.0252C54.3786 30.8999 53.7089 30.9675 53.0999 31.2196C52.7153 31.3168 52.3634 31.5141 52.0797 31.7914C51.796 32.0686 51.5908 32.416 51.4849 32.7983C48.7916 42.352 49.2102 52.5745 48.0273 62.4739C51.544 63.0471 56.2754 62.8151 59.8284 62.6286C59.8193 54.7218 59.1506 52.6882 58.6638 44.1308Z" fill="#263238"/>
<path d="M57.1858 57.6281C57.1651 57.5448 57.1559 57.4591 57.1585 57.3733C57.1585 57.1822 57.1358 56.9184 57.1221 56.6408C57.1221 55.9721 57.0721 55.0531 57.0402 53.9385C56.9902 51.6274 56.9265 48.4792 56.8537 45.0263C56.8264 43.2838 56.7991 41.6279 56.7764 40.1175C56.7764 39.3623 56.7764 38.648 56.7536 37.9747C56.7617 37.3656 56.7191 36.757 56.6263 36.155C56.5724 35.7157 56.4221 35.2938 56.1862 34.9195C55.9502 34.5451 55.6344 34.2275 55.2614 33.9895C54.9803 33.8351 54.6708 33.7391 54.3516 33.7074C54.3516 33.7074 54.3516 33.7074 54.4153 33.7074C54.4788 33.7004 54.5428 33.7004 54.6063 33.7074C54.8563 33.7305 55.0991 33.8032 55.3206 33.9212C55.6707 34.1072 55.9728 34.372 56.2032 34.6946C56.5091 35.1229 56.7158 35.614 56.8082 36.1322C56.9152 36.7497 56.9685 37.3753 56.9675 38.002C56.9675 38.6753 56.9948 39.3941 57.0129 40.1448C57.0402 41.6552 57.0721 43.3293 57.1085 45.0536C57.154 48.5202 57.1949 51.6593 57.2268 53.9658C57.2268 55.085 57.2268 55.9994 57.2268 56.6681C57.2268 56.9684 57.2268 57.2095 57.2268 57.4051C57.2193 57.4805 57.2056 57.555 57.1858 57.6281Z" fill="#455A64"/>
<path d="M53.9856 53.9979C53.9549 53.8085 53.9412 53.6166 53.9446 53.4247C53.9446 53.0517 53.9219 52.5148 53.9219 51.8506C53.9219 50.5222 53.9492 48.6661 53.9992 46.6598C54.0493 44.6535 54.1039 42.8474 54.1448 41.4735C54.1448 40.8457 54.1812 40.3179 54.1948 39.9039C54.1906 39.7101 54.2074 39.5164 54.2449 39.3262C54.2756 39.5172 54.2893 39.7105 54.2858 39.9039C54.2858 40.2724 54.2858 40.8138 54.2858 41.478C54.2858 42.8065 54.2585 44.6626 54.2085 46.6643C54.1584 48.6661 54.0993 50.4767 54.0629 51.8506C54.0402 52.4784 54.0265 53.0062 54.0129 53.4247C54.0244 53.6162 54.0153 53.8084 53.9856 53.9979Z" fill="#455A64"/>
<path d="M30.824 56.4551C30.3691 56.4551 21.789 57.0647 19.7963 66.2545C17.8037 75.4442 17.2305 88.319 17.2305 88.319L26.534 87.4091L30.824 56.4551Z" fill="#5263F3"/>
<path d="M35.0369 54.4216L36.5473 51.6328L49.7405 51.2734L50.6504 53.6482L58.4252 56.4552L57.7747 90.9031L63.5342 122.708C63.5342 122.708 63.4751 127.298 48.1391 128.754L46.9244 112.131L39.2587 111.949L39.468 128.185C39.468 128.185 25.9381 127.967 21.648 124.905C21.648 124.905 20.3469 109.437 24.041 98.2959C27.2756 88.542 28.5358 86.0125 28.5358 86.0125L28.7997 56.7827L35.0369 54.4216Z" fill="#5263F3"/>
<g opacity="0.3">
<path d="M30.9575 56.8506C28.3067 68.1968 25.6529 79.5475 22.9961 90.9027L25.6939 93.7643C27.0762 93.1196 28.2472 92.0961 29.0711 90.8124C29.8949 89.5288 30.3376 88.0378 30.3479 86.5126C30.3479 84.9385 29.8475 83.4054 29.7838 81.8313C29.6382 78.2827 31.6035 75.0299 32.5134 71.5951C33.7645 66.7319 32.8501 61.5092 30.9575 56.8506Z" fill="black"/>
</g>
<path d="M56.7392 56.0137C59.9238 56.6005 62.3759 59.9671 63.1084 63.5793C63.5315 65.6948 64.7644 75.8945 64.7644 75.8945L65.4422 79.6341C65.4422 79.6341 66.0109 92.4861 63.2858 93.9237C60.1012 95.5979 58.2815 93.7599 57.226 92.4133C56.1706 91.0667 55.0469 82.3046 55.0469 82.3046L56.2343 61.3319L56.7392 56.0137Z" fill="#5263F3"/>
<path d="M58.2472 61.1729C58.2463 61.2965 58.2341 61.4199 58.2108 61.5414C58.1744 61.7992 58.1243 62.1495 58.0606 62.5923C57.9151 63.5021 57.7149 64.8351 57.4647 66.4456C57.2145 68.0561 56.8915 70.0169 56.5548 72.1642C56.3774 73.2378 56.1954 74.3661 56.0043 75.5353C55.8132 76.7045 55.5767 77.91 55.4766 79.1748C55.4153 79.8892 55.4153 80.6076 55.4766 81.3221C56.4638 85.7395 57.3873 89.6384 58.0834 92.4317C58.4337 93.7965 58.7158 94.9247 58.9205 95.7209C59.016 96.0894 59.0934 96.3806 59.1525 96.6035C59.1878 96.705 59.2107 96.8104 59.2207 96.9174C59.1739 96.8214 59.1373 96.7208 59.1116 96.6171L58.8386 95.7436C58.6111 94.9793 58.2927 93.8647 57.9287 92.4726C57.1917 89.6884 56.2409 85.7896 55.2491 81.3767C55.1878 80.6501 55.1878 79.9196 55.2491 79.193C55.3492 77.9282 55.5858 76.7181 55.7814 75.5535C55.977 74.3888 56.1681 73.2788 56.3455 72.1824C56.7095 70.0396 57.037 68.0879 57.31 66.4729C57.583 64.8579 57.8195 63.5613 57.9833 62.6287C58.0652 62.1965 58.1289 61.8462 58.1789 61.5868C58.1863 61.4468 58.2092 61.3079 58.2472 61.1729Z" fill="#263238"/>
<path d="M24.4805 58.6022L26.8916 90.9028C26.8916 90.9028 31.4046 70.3259 31.5866 65.0623C31.7248 62.0434 31.4183 59.0206 30.6767 56.0909C30.6767 56.0909 26.3002 55.3858 24.4805 58.6022Z" fill="#455A64"/>
<path d="M23.087 56.5547C23.385 56.6468 23.6596 56.802 23.8923 57.0096C24.1639 57.2268 24.3675 57.5173 24.4792 57.8467C24.6074 58.2359 24.6884 58.6392 24.7203 59.0477C24.7976 59.903 24.7931 60.6764 24.7931 61.236C24.8126 61.5397 24.8004 61.8447 24.7567 62.1459C24.6664 61.8511 24.6219 61.5443 24.6247 61.236C24.5792 60.681 24.561 59.9076 24.4837 59.066C24.4064 58.2243 24.2153 57.4691 23.8058 57.1188C23.3964 56.7685 23.0643 56.5911 23.087 56.5547Z" fill="#263238"/>
<path d="M39.8218 57.7243C39.8218 57.7243 39.7172 57.6379 39.5488 57.4423C39.3805 57.2466 39.1439 56.9873 38.8482 56.6006H38.9847C38.6572 57.5515 38.1567 58.9299 37.588 60.4767L37.5062 60.6951L37.3833 60.5086C37.3151 60.4039 37.2332 60.2993 37.1695 60.1901C36.788 59.5059 36.4727 58.7869 36.2278 58.0428C35.9867 57.3649 35.7728 56.7553 35.6182 56.223C35.4635 55.6908 35.3088 55.3131 35.2042 55.0174C35.1415 54.8707 35.0927 54.7184 35.0586 54.5625C35.1573 54.6874 35.2356 54.8271 35.2906 54.9765C35.4225 55.2495 35.5863 55.6589 35.7774 56.1639C35.9685 56.6689 36.1914 57.2876 36.4325 57.9427C36.6857 58.6682 36.9992 59.3713 37.3697 60.0445C37.4334 60.1491 37.5062 60.2447 37.5699 60.3402L37.3651 60.3721C37.9429 58.8298 38.4661 57.4605 38.8391 56.5233L38.8892 56.3914L38.9756 56.5051C39.2853 56.8916 39.5681 57.299 39.8218 57.7243Z" fill="#263238"/>
<path d="M50.2854 55.5039C50.2504 55.654 50.197 55.7992 50.1261 55.9361C50.0079 56.2091 49.8259 56.5958 49.5984 57.0734C49.3709 57.5511 49.0889 58.1153 48.7568 58.7385C48.4082 59.422 48.0098 60.0789 47.5648 60.7039L47.4147 60.9086L47.3556 60.6584L47.3328 60.5537C46.9598 58.966 46.6368 57.5238 46.4229 56.4593L46.5685 56.4957C46.2515 56.7985 45.9022 57.0655 45.5267 57.2918C45.281 57.4692 45.1673 57.5966 45.1537 57.583C45.14 57.5693 45.231 57.4283 45.4676 57.219C45.8149 56.9677 46.1406 56.6877 46.4411 56.3819L46.5458 56.2591L46.5913 56.4183C46.8551 57.4601 47.2054 58.8977 47.5785 60.4855V60.5901L47.3692 60.5446C47.8053 59.9289 48.2019 59.2862 48.5566 58.6202L49.4392 56.987L50.0352 55.8815C50.1025 55.7457 50.1866 55.6189 50.2854 55.5039Z" fill="#263238"/>
<path d="M40.0502 57.5963C40.0502 57.5963 38.7718 74.2016 38.4397 76.3398C38.1076 78.478 39.2449 111.948 39.2449 111.948L46.7241 112.43C46.7241 112.43 46.8014 84.7926 46.7241 84.6015C46.6468 84.4104 46.7605 65.0892 46.7605 65.0892L45.0636 57.3916L42.1702 60.8173L40.0502 57.5963Z" fill="white"/>
<path d="M48.3961 73.3827C48.3961 73.4191 48.1322 73.4783 48.0003 73.8377C47.9619 73.9341 47.9449 74.0377 47.9504 74.1414C47.9559 74.2451 47.9838 74.3463 48.0321 74.4382C48.1015 74.5393 48.2 74.617 48.3146 74.6609C48.4292 74.7047 48.5543 74.7128 48.6736 74.6838C48.7951 74.67 48.9094 74.6189 49.0007 74.5374C49.0919 74.4559 49.1557 74.3481 49.1831 74.2289C49.1963 74.1259 49.1868 74.0212 49.1554 73.9222C49.124 73.8232 49.0713 73.7322 49.0011 73.6557C48.8563 73.5099 48.6707 73.4116 48.4688 73.3736C48.4688 73.3736 48.528 73.3281 48.6508 73.3281C48.8221 73.3464 48.9824 73.4217 49.1058 73.5419C49.2051 73.6326 49.2819 73.7452 49.3301 73.8708C49.3783 73.9964 49.3965 74.1314 49.3833 74.2653C49.3464 74.4298 49.262 74.5798 49.1405 74.6967C49.019 74.8136 48.8658 74.8922 48.7 74.9228C48.5342 74.9533 48.3631 74.9344 48.208 74.8685C48.0528 74.8026 47.9205 74.6925 47.8274 74.5519C47.7662 74.4314 47.7344 74.2981 47.7344 74.1629C47.7344 74.0278 47.7662 73.8945 47.8274 73.774C47.902 73.6136 48.0309 73.4847 48.1913 73.41C48.3233 73.36 48.3915 73.3691 48.3961 73.3827Z" fill="#263238"/>
<path d="M48.396 87.877C48.396 87.9134 48.1322 87.9771 48.0002 88.3319C47.9618 88.4284 47.9448 88.532 47.9503 88.6357C47.9558 88.7393 47.9837 88.8406 48.0321 88.9324C48.1055 89.0291 48.2044 89.1035 48.3176 89.1473C48.4309 89.1911 48.5541 89.2026 48.6735 89.1804C48.7929 89.1582 48.9037 89.1033 48.9937 89.0217C49.0837 88.9402 49.1493 88.8352 49.1831 88.7186C49.1965 88.6156 49.1872 88.5108 49.1558 88.4118C49.1243 88.3127 49.0715 88.2218 49.0011 88.1454C48.7463 87.8588 48.4643 87.8997 48.4688 87.8588C48.4734 87.8178 48.528 87.8133 48.6508 87.8178C48.8218 87.8338 48.9823 87.9076 49.1057 88.0271C49.2042 88.1184 49.2805 88.2311 49.3286 88.3565C49.3767 88.4819 49.3954 88.6167 49.3832 88.7505C49.3463 88.915 49.2619 89.065 49.1404 89.1819C49.019 89.2988 48.8658 89.3774 48.7 89.4079C48.5342 89.4385 48.3631 89.4196 48.2079 89.3537C48.0528 89.2877 47.9204 89.1776 47.8273 89.0371C47.7662 88.9173 47.7344 88.7848 47.7344 88.6504C47.7344 88.5159 47.7662 88.3834 47.8273 88.2637C47.902 88.1032 48.0309 87.9743 48.1913 87.8997C48.3232 87.8542 48.3915 87.8679 48.396 87.877Z" fill="#263238"/>
<path d="M49.0467 105.411C49.0467 105.448 48.7828 105.511 48.6509 105.866C48.6125 105.963 48.5955 106.066 48.601 106.17C48.6065 106.274 48.6344 106.375 48.6828 106.467C48.7562 106.563 48.8551 106.638 48.9683 106.682C49.0816 106.725 49.2048 106.737 49.3242 106.715C49.4436 106.692 49.5544 106.637 49.6444 106.556C49.7344 106.474 49.8 106.369 49.8338 106.253C49.8472 106.15 49.8379 106.045 49.8065 105.946C49.775 105.847 49.7222 105.756 49.6518 105.68C49.397 105.393 49.115 105.434 49.1195 105.393C49.1241 105.352 49.1786 105.347 49.3015 105.352C49.4729 105.367 49.6338 105.441 49.7564 105.561C49.8566 105.651 49.9343 105.764 49.9832 105.889C50.0322 106.015 50.0511 106.15 50.0385 106.285C50.0024 106.45 49.9181 106.602 49.7963 106.72C49.6744 106.837 49.5204 106.917 49.3537 106.947C49.1869 106.978 49.0148 106.959 48.859 106.892C48.7032 106.825 48.5706 106.713 48.478 106.571C48.418 106.451 48.3867 106.319 48.3867 106.185C48.3867 106.05 48.418 105.918 48.478 105.798C48.5527 105.637 48.6816 105.509 48.842 105.434C48.9876 105.388 49.0467 105.402 49.0467 105.411Z" fill="#263238"/>
<g opacity="0.3">
<path d="M58.7541 73.2511C58.5903 71.9272 58.24 70.6307 58.1536 69.2977C58.0444 67.7054 58.3219 66.1131 58.008 64.5254C56.9252 66.3451 56.6796 68.5152 56.675 70.6216C56.6705 72.7279 56.8661 74.8434 56.5658 76.927C56.3611 78.3555 55.8971 80.0706 55.7242 81.5037C55.5513 82.9368 55.9608 83.7238 56.3793 85.8757C57.8215 81.804 59.2818 77.5412 58.7541 73.2511Z" fill="black"/>
</g>
<path d="M56.2292 69.8662C57.0883 72.3217 57.3665 74.943 57.0421 77.5241C56.7177 80.1053 55.7994 82.5762 54.3594 84.7427" fill="#5263F3"/>
<path d="M54.3617 84.7427C54.3208 84.7154 54.8167 83.9966 55.4172 82.7319C55.7634 81.9949 56.0583 81.2348 56.2998 80.4572C56.5857 79.4971 56.7956 78.5159 56.9276 77.5229C57.044 76.528 57.0835 75.5257 57.0459 74.5248C57.0068 73.7078 56.911 72.8946 56.7593 72.0909C56.4909 70.7261 56.186 69.8981 56.2315 69.8799C56.3305 70.0605 56.4098 70.2511 56.4681 70.4486C56.5363 70.6351 56.6137 70.8626 56.6865 71.131C56.7593 71.3994 56.8594 71.7087 56.923 72.0408C57.1002 72.8512 57.2142 73.6741 57.2643 74.5021C57.3849 76.5332 57.1289 78.5692 56.5091 80.5072C56.2528 81.2881 55.938 82.0485 55.5673 82.7819C55.4172 83.1049 55.2489 83.3779 55.1124 83.619C54.9941 83.8288 54.865 84.0322 54.7257 84.2286C54.6229 84.4124 54.5009 84.5848 54.3617 84.7427Z" fill="#263238"/>
<path d="M33.6321 91.8121C33.3127 91.6143 33.0193 91.3775 32.7587 91.1069C31.4292 89.8744 30.2627 88.477 29.2875 86.9488C29.065 86.6429 28.883 86.3096 28.7461 85.957C28.998 86.2401 29.2248 86.5445 29.424 86.8669C29.8288 87.4265 30.3975 88.1908 31.0708 89.0006C31.7441 89.8104 32.3947 90.5019 32.8906 91.0023C33.16 91.251 33.408 91.5219 33.6321 91.8121Z" fill="#263238"/>
<path d="M30.6414 92.2905C30.4491 92.029 30.2958 91.7409 30.1865 91.4352C29.546 90.0028 29.0875 88.4958 28.8217 86.9495C28.7436 86.6327 28.7114 86.3064 28.7261 85.9805C28.7944 85.9805 29.0582 87.4226 29.5905 89.165C30.1228 90.9075 30.7051 92.2677 30.6414 92.2905Z" fill="#263238"/>
<path d="M45.2712 83.6235C45.2712 83.6554 44.9937 83.4779 44.5433 83.3005C43.9554 83.0711 43.3238 82.9753 42.6943 83.0201C42.0648 83.065 41.4532 83.2493 40.9038 83.5598C40.4852 83.801 40.2623 84.0148 40.2305 83.9784C40.3776 83.7468 40.579 83.5547 40.8173 83.4188C41.3703 83.0498 42.0102 82.8318 42.6735 82.7864C43.3358 82.7355 43.9999 82.8611 44.5979 83.1504C44.8576 83.2506 45.0888 83.4131 45.2712 83.6235Z" fill="#263238"/>
<path d="M20.013 82.5452C20.013 82.5452 16.6692 86.1847 16.924 88.7233C17.1788 91.2618 18.3616 96.8485 21.4734 96.6801C24.5852 96.5118 27.4376 91.4756 27.8425 87.4813C28.2474 83.4869 27.8425 74.0879 27.8425 74.0879L23.3796 75.0933L20.013 82.5452Z" fill="#FFBE9D"/>
<path d="M13.3694 59.2526C15.6805 62.2052 21.4082 69.325 21.4082 69.325L26.7992 67.9602C26.9918 67.9121 27.1652 67.8068 27.2968 67.6582C27.4283 67.5095 27.5118 67.3246 27.5362 67.1276C27.5521 66.9988 27.5422 66.8681 27.507 66.7431C27.4719 66.6181 27.4122 66.5014 27.3315 66.3997L19.775 56.846C19.493 56.4876 19.1042 56.2282 18.665 56.1055C18.2257 55.9828 17.7588 56.0032 17.3319 56.1636L13.879 57.4602C13.7095 57.5242 13.5574 57.627 13.4349 57.7604C13.3123 57.8937 13.2226 58.054 13.1731 58.2282C13.1236 58.4024 13.1155 58.5858 13.1496 58.7637C13.1837 58.9416 13.259 59.1091 13.3694 59.2526Z" fill="#263238"/>
<path d="M26.9656 66.7501C26.7798 66.5989 26.6064 66.4331 26.447 66.2543C26.124 65.9176 25.6645 65.4308 25.114 64.8167C24.0131 63.5838 22.5391 61.8323 21.0196 59.8123C20.642 59.3073 20.278 58.8115 19.9323 58.3247C19.6464 57.8483 19.2617 57.4387 18.804 57.1236C18.5817 57.0203 18.3395 56.9667 18.0943 56.9667C17.8492 56.9667 17.6069 57.0203 17.3846 57.1236L16.1108 57.5786L14.2501 58.1927C14.0262 58.2794 13.7947 58.3448 13.5586 58.3884C13.7711 58.278 13.9916 58.1837 14.2183 58.1063L16.038 57.4193L17.3073 56.9644C17.5508 56.8735 17.8043 56.8124 18.0625 56.7824C18.3509 56.7586 18.64 56.8187 18.895 56.9553C19.3874 57.2793 19.8022 57.7081 20.1097 58.2109L21.197 59.694C22.7074 61.7094 24.1541 63.47 25.2232 64.7257C25.7373 65.3307 26.1695 65.8312 26.497 66.2133C26.6673 66.3795 26.824 66.559 26.9656 66.7501Z" fill="#455A64"/>
<path d="M16.4338 58.2606C16.5147 58.2208 16.6056 58.2059 16.6949 58.2179C16.7843 58.2298 16.8681 58.2681 16.9357 58.3278C17.0033 58.3874 17.0516 58.4658 17.0746 58.553C17.0975 58.6402 17.094 58.7323 17.0646 58.8175C17.0351 58.9027 16.981 58.9773 16.9091 59.0317C16.8371 59.086 16.7507 59.1178 16.6607 59.123C16.5707 59.1282 16.4811 59.1065 16.4035 59.0606C16.3258 59.0148 16.2635 58.947 16.2245 58.8657C16.1726 58.7576 16.1655 58.6334 16.2047 58.5201C16.2439 58.4068 16.3262 58.3135 16.4338 58.2606Z" fill="white"/>
<path d="M21.0545 64.7163L18.5615 65.1303L17.6516 65.9492C17.5229 66.0603 17.424 66.2016 17.3636 66.3604C17.3033 66.5193 17.2834 66.6907 17.3058 66.8591C17.3767 67.3074 17.5722 67.7267 17.8699 68.0692C18.1911 68.4678 18.5541 68.8308 18.9527 69.152C18.9527 69.152 18.0792 70.5714 19.4349 71.2902C19.4349 71.2902 19.3439 72.7597 20.7679 72.9098C20.7679 72.9098 21.1819 74.3065 22.2556 74.3838L23.3611 75.4802L23.0244 76.149L27.9696 76.3036C27.9946 74.9844 27.9293 73.665 27.774 72.3548C27.69 71.8215 27.5606 71.2964 27.3873 70.7852C27.6375 69.3931 26.5957 68.8108 26.4364 68.9109C26.4364 68.9109 28.7976 68.2922 28.4973 66.668L26.2226 67.2504L22.069 68.1147L24.735 66.3359C24.8671 66.2147 24.9833 66.0771 25.0807 65.9265C25.3082 65.5671 25.6448 64.9165 25.3582 64.5344C25.2354 64.3751 21.9598 65.7445 21.9598 65.7445L19.9308 67.6143L19.2939 66.7044C19.2939 66.7044 21.3821 66.2768 21.0545 64.7163Z" fill="#FFBE9D"/>
<path d="M26.7564 68.9291C26.7564 69.0019 25.8783 69.1248 24.8274 69.4341C23.7765 69.7435 22.9576 70.1029 22.9258 70.0392C23.4717 69.6446 24.0901 69.3617 24.7455 69.2066C25.3904 68.9803 26.0743 68.886 26.7564 68.9291Z" fill="#EB996E"/>
<path d="M25.6129 73.2102C25.9102 72.9398 26.1856 72.6462 26.4364 72.3322L26.5228 72.2185L26.582 72.3504C26.6637 72.5244 26.8084 72.661 26.9869 72.7326C27.0806 72.7794 27.1851 72.8008 27.2897 72.7944C27.3944 72.788 27.4955 72.7541 27.5828 72.6962C27.6206 72.6669 27.6486 72.6269 27.6632 72.5815C27.6779 72.536 27.6784 72.4872 27.6647 72.4414L27.5965 72.032C27.5623 71.7475 27.506 71.4661 27.4281 71.1903C27.3908 71.0732 27.3166 70.9714 27.2165 70.9C27.1165 70.8287 26.996 70.7917 26.8731 70.7945C26.616 70.8057 26.3617 70.8532 26.1179 70.9356L24.7849 71.2631C24.3793 71.3818 23.9635 71.4625 23.543 71.5042C23.9307 71.3344 24.3326 71.1989 24.744 71.0993L26.0542 70.7263C26.3198 70.6282 26.5993 70.5729 26.8822 70.5625C27.0441 70.566 27.2017 70.6148 27.3372 70.7035C27.4747 70.8063 27.5791 70.947 27.6374 71.1084C27.7197 71.399 27.779 71.6957 27.8148 71.9956C27.8148 72.1366 27.8558 72.2776 27.8785 72.4141C27.8953 72.499 27.8875 72.5868 27.856 72.6674C27.8246 72.748 27.7709 72.8179 27.7011 72.869C27.5824 72.948 27.4448 72.9939 27.3024 73.0019C27.16 73.0099 27.0181 72.9797 26.8913 72.9145C26.6832 72.8095 26.5212 72.6313 26.4364 72.4141H26.5774C26.387 72.6526 26.1633 72.8625 25.9132 73.0374C25.7267 73.1602 25.622 73.2239 25.6129 73.2102Z" fill="#EB996E"/>
<path d="M21.2389 66.3359C20.9097 66.8496 20.5384 67.335 20.1288 67.7872C19.7834 68.2898 19.3952 68.7616 18.9688 69.1975C19.1999 68.6318 19.5244 68.1089 19.9287 67.6507C20.2843 67.1385 20.7279 66.6933 21.2389 66.3359Z" fill="#EB996E"/>
<path d="M22.2702 68.0515C22.2702 68.1197 21.7515 68.2835 21.3603 68.8158C21.1557 69.1537 21.0024 69.5201 20.9054 69.9031C20.8735 69.9031 20.828 69.7666 20.8371 69.53C20.8651 69.2217 20.9759 68.9266 21.1576 68.676C21.3394 68.4254 21.5855 68.2285 21.8698 68.1061C22.1155 68.0242 22.2611 68.0242 22.2702 68.0515Z" fill="#EB996E"/>
<path d="M48.9559 31.4011C48.5737 30.4002 48.7238 29.2856 48.5737 28.2165C48.2462 25.8826 46.3673 24.0083 44.1927 23.0939C42.1682 22.2477 39.6979 22.4297 37.2594 23.2122C35.5656 23.7237 34.0524 24.7068 32.8965 26.0464C32.16 26.955 31.6517 28.0268 31.4142 29.1721C31.1768 30.3174 31.2171 31.5029 31.5317 32.6294L43.4784 30.9052C44.593 31.815 45.7531 32.775 47.0952 33.2936C47.4861 33.4678 47.9158 33.5368 48.3417 33.4938C48.55 33.4652 48.746 33.3782 48.907 33.243C49.068 33.1077 49.1874 32.9297 49.2516 32.7295C49.3881 32.2791 49.1242 31.8378 48.9559 31.4011Z" fill="#263238"/>
<path d="M41.5302 22.4977C44.1461 22.0428 46.4435 23.0664 48.6454 24.5449C50.8442 26.0643 52.5255 28.2202 53.4632 30.723C54.4686 33.3298 54.7234 37.0921 53.9181 39.7808C53.571 41.0432 52.9239 42.203 52.0319 43.1615C51.14 44.1199 50.0297 44.8486 48.7955 45.2856C45.2015 46.5594 41.0616 46.4002 38.0044 44.0982C34.9472 41.7962 33.2275 37.9884 33.0865 34.176C32.9524 31.5297 33.6543 28.9083 35.0928 26.6832C35.8177 25.5828 36.7612 24.6433 37.8648 23.9233C38.9683 23.2032 40.2083 22.718 41.5074 22.4977" fill="#263238"/>
<path d="M37.376 50.9456L37.4715 53.0747L42.1665 61.3773L48.9906 52.6425L49.2226 30.8055C49.2134 30.3175 49.0212 29.8508 48.6842 29.4977C48.3472 29.1447 47.8899 28.9311 47.4029 28.8993L36.9802 26.6746C33.6592 26.4517 31.6119 30.6053 31.521 33.9536C31.43 37.6523 31.4573 42.1698 31.9759 44.904C33.0632 50.4042 37.3305 50.9501 37.3305 50.9501" fill="#FFBE9D"/>
<path d="M33.043 38.5351C33.0466 38.7205 33.1231 38.8971 33.2559 39.0265C33.3887 39.1559 33.5672 39.2278 33.7527 39.2266C33.8434 39.2302 33.934 39.2157 34.0191 39.1839C34.1041 39.1521 34.182 39.1037 34.2481 39.0414C34.3142 38.9791 34.3672 38.9042 34.404 38.8212C34.4408 38.7382 34.4606 38.6486 34.4624 38.5578C34.4553 38.374 34.3776 38.1999 34.2454 38.0719C34.1132 37.9439 33.9367 37.8719 33.7527 37.8709C33.6621 37.8666 33.5717 37.8805 33.4866 37.9118C33.4016 37.9431 33.3237 37.9911 33.2575 38.0531C33.1913 38.115 33.1383 38.1895 33.1014 38.2723C33.0646 38.3551 33.0447 38.4445 33.043 38.5351Z" fill="#263238"/>
<path d="M32.6145 36.0828C32.7055 36.1738 33.2287 35.7553 33.9793 35.728C34.73 35.7007 35.3169 36.0601 35.3942 35.9646C35.4715 35.869 35.3396 35.7598 35.0848 35.5915C34.7473 35.3727 34.3492 35.266 33.9475 35.2867C33.5508 35.2994 33.1684 35.438 32.8556 35.6825C32.6418 35.8554 32.569 36.0419 32.6145 36.0828Z" fill="#263238"/>
<path d="M39.9727 38.4032C39.9774 38.5891 40.0549 38.7656 40.1885 38.895C40.322 39.0243 40.501 39.096 40.6869 39.0948C40.7771 39.0984 40.867 39.084 40.9515 39.0524C41.0361 39.0209 41.1134 38.9727 41.1791 38.9109C41.2448 38.849 41.2975 38.7747 41.334 38.6922C41.3706 38.6097 41.3903 38.5208 41.3921 38.4305C41.3885 38.2451 41.312 38.0686 41.1791 37.9391C41.0463 37.8097 40.8678 37.7378 40.6824 37.739C40.5918 37.7348 40.5014 37.7487 40.4163 37.78C40.3313 37.8113 40.2534 37.8593 40.1872 37.9212C40.121 37.9831 40.068 38.0577 40.0311 38.1405C39.9943 38.2233 39.9744 38.3126 39.9727 38.4032Z" fill="#263238"/>
<path d="M39.8645 35.9051C39.9555 35.9961 40.4787 35.5776 41.2293 35.5503C41.98 35.523 42.5941 35.8869 42.6487 35.7868C42.7033 35.6867 42.5941 35.5821 42.3394 35.4138C42.0018 35.195 41.6038 35.0883 41.202 35.109C40.8053 35.1217 40.4229 35.2603 40.1102 35.5048C39.8918 35.6958 39.819 35.8551 39.8645 35.9051Z" fill="#263238"/>
<path d="M37.5646 41.7099C37.1581 41.5992 36.7394 41.5396 36.3181 41.5325C36.1225 41.5325 35.9359 41.487 35.8995 41.3551C35.8742 41.1543 35.9124 40.9507 36.0087 40.7728L36.5274 39.2669C37.2507 37.1242 37.7648 35.3636 37.6783 35.3363C37.5919 35.309 36.9368 37.0195 36.2134 39.1668L35.7176 40.6818C35.6051 40.9219 35.5794 41.1936 35.6448 41.4506C35.6766 41.5178 35.7229 41.577 35.7803 41.6242C35.8377 41.6714 35.9048 41.7053 35.9769 41.7236C36.0857 41.7485 36.1974 41.7592 36.309 41.7554C36.7277 41.7958 37.1499 41.7805 37.5646 41.7099Z" fill="#263238"/>
<path d="M37.3789 50.9456C39.9919 50.7703 42.5173 49.9327 44.7171 48.5117C44.7171 48.5117 42.9974 52.4105 37.4381 52.1012L37.3789 50.9456Z" fill="#EB996E"/>
<path d="M38.1526 43.3523C38.2912 43.2 38.466 43.0851 38.6609 43.0183C38.8557 42.9515 39.0642 42.935 39.2672 42.9702C39.4126 42.9839 39.5526 43.0323 39.6753 43.1115C39.7981 43.1907 39.8999 43.2983 39.9723 43.4251C40.0773 43.5788 40.1391 43.7578 40.1511 43.9435C40.1631 44.1292 40.1249 44.3147 40.0406 44.4806C39.9243 44.624 39.7672 44.7287 39.59 44.7807C39.4129 44.8327 39.2241 44.8296 39.0488 44.7718C38.7183 44.6963 38.4079 44.5505 38.1389 44.3441C38.0522 44.2602 37.992 44.1526 37.9661 44.0348C37.9479 43.9133 37.9572 43.7893 37.9935 43.672C38.0297 43.5547 38.0918 43.447 38.1753 43.3569" fill="#EB996E"/>
<path d="M39.9114 34.1171C39.9933 34.3218 40.753 34.1944 41.6492 34.2718C42.5455 34.3491 43.287 34.5629 43.3962 34.3719C43.4462 34.2809 43.3143 34.0898 43.014 33.9169C42.6174 33.6796 42.1697 33.5408 41.7084 33.512C41.2429 33.4733 40.7749 33.5466 40.3436 33.7258C40.0342 33.8487 39.875 34.0352 39.9114 34.1171Z" fill="#263238"/>
<path d="M32.7089 32.7339C32.85 32.9022 33.3686 32.7021 34.0009 32.6702C34.6333 32.6384 35.1747 32.743 35.2884 32.5565C35.3385 32.4701 35.2475 32.2972 35.0109 32.1425C34.6886 31.9572 34.3186 31.8718 33.9477 31.8969C33.5768 31.922 33.2217 32.0565 32.9273 32.2835C32.7135 32.4701 32.668 32.6702 32.7089 32.7339Z" fill="#263238"/>
<path d="M50.8662 29.7951C49.788 26.6106 45.0749 22.2841 41.7311 22.5798L36.4492 25.8827C36.6399 26.7911 37.0724 27.6313 37.701 28.3143C38.3296 28.9974 39.1309 29.498 40.0205 29.7633C40.9713 30.0317 42.1087 30.0908 42.6864 30.8915C43.2642 31.6922 42.9639 32.9251 43.5144 33.7713C44.2742 34.945 46.2941 34.8495 46.8764 36.1233C47.1266 36.6784 47.0129 37.3471 47.2768 37.9021C47.6271 38.6346 49.5196 39.5399 50.293 39.267C51.0664 38.994 51.0391 37.6838 51.2802 36.9923C51.5845 36.2055 51.6086 35.338 51.3484 34.5356C50.9845 32.9843 51.3848 31.3055 50.8662 29.7951Z" fill="#263238"/>
<path d="M48.0195 39.9771C48.0195 39.5631 48.4472 38.5759 48.8521 38.494C49.9303 38.2848 51.8911 38.2984 52.0366 41.0599C52.205 44.8313 48.3971 44.2171 48.3698 44.1125C48.3425 44.0079 48.0696 41.4011 48.0195 39.9771Z" fill="#FFBE9D"/>
<path d="M49.4372 42.6291C49.4372 42.6291 49.5054 42.6746 49.6146 42.7201C49.6932 42.7528 49.7775 42.7696 49.8626 42.7696C49.9477 42.7696 50.0319 42.7528 50.1105 42.7201C50.5018 42.5563 50.8066 41.9103 50.7975 41.2325C50.7944 40.9082 50.7166 40.5891 50.57 40.2998C50.5307 40.1833 50.4632 40.0783 50.3735 39.9942C50.2838 39.91 50.1747 39.8494 50.0559 39.8176C49.9794 39.7997 49.899 39.8095 49.829 39.8454C49.759 39.8812 49.704 39.9407 49.6738 40.0132C49.6283 40.1224 49.6738 40.1952 49.6374 40.1997C49.601 40.2043 49.5509 40.1406 49.5782 39.9859C49.5925 39.8902 49.641 39.803 49.7147 39.7403C49.8156 39.6581 49.9446 39.6189 50.0741 39.6311C50.2304 39.654 50.378 39.7173 50.5025 39.8146C50.6269 39.9119 50.7239 40.0399 50.7838 40.1861C50.9585 40.5061 51.0536 40.8634 51.0613 41.2279C51.0613 41.9877 50.711 42.7156 50.1514 42.8975C50.0516 42.9314 49.9454 42.9425 49.8406 42.9299C49.7359 42.9173 49.6354 42.8814 49.5464 42.8247C49.4463 42.7201 49.4235 42.6382 49.4372 42.6291Z" fill="#EB996E"/>
<path d="M54.2873 34.8174C54.4014 34.4512 54.4506 34.0678 54.4328 33.6846C54.443 31.8195 53.8279 30.0048 52.6859 28.5302C52.4687 28.2155 52.1994 27.9401 51.8897 27.7158C51.8169 27.7613 53.0817 29.0169 53.7459 31.0414C54.1197 32.2647 54.3023 33.5384 54.2873 34.8174Z" fill="#5263F3"/>
<path d="M37.55 24.7455C37.1997 26.2787 34.8658 28.244 33.8377 29.4405C31.8814 31.7152 31.5129 32.0518 31.5266 38.9259C30.5144 36.7921 29.9788 34.4635 29.957 32.1019C30.0028 30.0937 30.7811 28.1716 32.1453 26.6972C32.8328 25.9749 33.6793 25.4228 34.6175 25.0848C35.5557 24.7468 36.5597 24.6322 37.55 24.7501" fill="#263238"/>
<path d="M52.791 29.7449C52.5848 29.8201 52.3713 29.8735 52.154 29.9041C51.9448 29.9496 51.6991 29.9996 51.3897 30.036C51.0804 30.0724 50.7483 30.1361 50.3661 30.1543C49.4772 30.2194 48.5846 30.2194 47.6956 30.1543C46.6045 30.0754 45.5213 29.9096 44.4565 29.6584C43.3951 29.3922 42.3574 29.0392 41.3538 28.603C40.5366 28.2438 39.7474 27.8241 38.9927 27.3474C38.6606 27.1563 38.3876 26.947 38.1419 26.7741C37.928 26.6333 37.7214 26.4815 37.5232 26.3192C37.3463 26.1807 37.1805 26.0286 37.0273 25.8643C37.2215 25.9687 37.4057 26.0905 37.5778 26.2282C37.7461 26.3556 37.9554 26.5057 38.2102 26.6831C38.4649 26.8606 38.7425 27.0425 39.0746 27.2245C39.833 27.6789 40.6219 28.0802 41.4357 28.4256C42.4276 28.8568 43.4512 29.2112 44.4974 29.4856C45.545 29.7333 46.6094 29.9036 47.682 29.9951C48.5631 30.0611 49.4476 30.0687 50.3297 30.0178C50.7073 30.0178 51.0485 29.9587 51.3443 29.936C51.64 29.9132 51.8993 29.8723 52.1085 29.8404C52.3331 29.7902 52.5613 29.7583 52.791 29.7449Z" fill="#455A64"/>
<path d="M53.1828 32.4521C53.0362 32.5064 52.8833 32.5416 52.7278 32.5568C52.3263 32.6322 51.9207 32.6839 51.5131 32.7114C48.8009 32.9104 46.0852 32.3745 43.6518 31.1601C43.2843 30.9804 42.9274 30.7799 42.5827 30.5596C42.4499 30.4869 42.3275 30.3966 42.2188 30.2912C42.2188 30.2593 42.7874 30.5914 43.72 31.0191C46.1567 32.1392 48.8246 32.6646 51.504 32.5522C52.5458 32.5113 53.1782 32.4112 53.1828 32.4521Z" fill="#455A64"/>
<path d="M54.1378 32.543C54.2029 32.7267 54.2457 32.9177 54.2652 33.1116C54.3243 33.4847 54.3835 34.0215 54.4199 34.6903C54.4608 35.4738 54.4608 36.2588 54.4199 37.0423C54.3841 38.0049 54.2546 38.9618 54.0332 39.8993C53.5891 41.6222 52.5537 43.1342 51.1079 44.1712C50.6691 44.4709 50.1993 44.7226 49.7067 44.9218C49.5316 45.0065 49.3467 45.0692 49.1562 45.1084C49.3198 45.0047 49.4918 44.915 49.6703 44.84C50.14 44.6125 50.5891 44.3446 51.0124 44.0393C51.6331 43.5803 52.1741 43.0224 52.6138 42.3878C53.1673 41.6219 53.5731 40.7595 53.8103 39.8447C54.0254 38.9195 54.1594 37.9772 54.2106 37.0287C54.2652 36.1506 54.2743 35.359 54.2607 34.6948C54.247 34.0306 54.2152 33.4938 54.1788 33.1253C54.1477 32.9328 54.134 32.7379 54.1378 32.543Z" fill="#455A64"/>
<path d="M39.0925 44.7631C39.2968 44.7651 39.4984 44.7167 39.6794 44.6221C39.768 44.5676 39.8439 44.4947 39.902 44.4084C39.9601 44.3221 39.999 44.2243 40.0161 44.1217C40.0365 43.9959 40.0291 43.8673 39.9945 43.7447C39.96 43.6221 39.899 43.5085 39.8159 43.412C39.639 43.2223 39.3967 43.1069 39.138 43.089C38.9202 43.0759 38.703 43.1231 38.5102 43.2254C38.1736 43.4029 38.0553 43.6212 38.0007 43.5985C37.9461 43.5757 38.0689 43.3255 38.4238 43.0799C38.6373 42.9367 38.8901 42.8635 39.1471 42.8706C39.307 42.8742 39.4645 42.9104 39.61 42.9769C39.7555 43.0434 39.8859 43.1388 39.9933 43.2573C40.1007 43.3802 40.178 43.5264 40.219 43.6843C40.2601 43.8422 40.2638 44.0075 40.2299 44.1672C40.2049 44.2959 40.151 44.4173 40.0722 44.5221C39.9934 44.627 39.8917 44.7125 39.7749 44.7722C39.3473 44.9542 39.0698 44.7813 39.0925 44.7631Z" fill="#263238"/>
<path d="M62.3633 75.826L64.3923 71.4995C64.729 70.1347 66.1029 69.6798 67.7861 69.5706L69.565 68.8427C69.565 68.8427 70.8615 66.9729 72.0626 67.0229C72.1567 67.0261 72.2475 67.0585 72.3225 67.1155C72.3975 67.1726 72.4529 67.2515 72.4811 67.3414C72.5014 67.4026 72.5074 67.4675 72.4987 67.5314C72.4901 67.5953 72.4669 67.6563 72.4311 67.7099L70.9707 69.9573L69.8061 70.5305C69.8061 70.5305 70.8979 70.7944 71.3301 70.3895C71.7623 69.9846 73.2227 68.829 73.2227 68.829C73.2227 68.829 74.3373 66.8227 75.784 66.9729C75.8273 66.9768 75.869 66.9914 75.9054 67.0153C75.9417 67.0392 75.9716 67.0718 75.9923 67.1101C76.013 67.1484 76.024 67.1912 76.0241 67.2347C76.0243 67.2782 76.0137 67.3211 75.9932 67.3596L74.8832 69.5023C74.8832 69.5023 76.9077 66.4588 78.8366 67.5961L76.6984 69.9209C76.6984 69.9209 79.8011 68.1603 81.0385 69.6343L73.1863 72.878L68.6596 73.7651L67.0764 78.0597L65.6843 77.2545L62.3633 75.826Z" fill="#FFBE9D"/>
<path d="M67.0689 81.4443C67.0689 81.4443 67.31 89.1328 65.8906 91.2528C64.4712 93.3728 61.8326 96.2571 58.5661 93.9461L56.5234 86.2121C56.5234 86.2121 59.849 82.5726 60.4541 81.0713C61.96 77.3453 64.3939 71.5176 64.3939 71.5176L68.7249 73.4465L67.0689 81.4443Z" fill="#FFBE9D"/>
<path d="M60.9432 80.3662C60.8093 80.705 60.6449 81.0308 60.4519 81.3398C60.1334 81.9267 59.7058 82.7455 59.2827 83.6736C58.8596 84.6017 58.5184 85.4615 58.2773 86.0893C58.1721 86.4371 58.0334 86.7738 57.8633 87.0948C57.9059 86.7321 57.993 86.3761 58.1226 86.0347C58.3824 85.1961 58.697 84.3755 59.0643 83.5781C59.4301 82.7784 59.8449 82.002 60.3063 81.2533C60.4819 80.933 60.6958 80.6351 60.9432 80.3662Z" fill="#EB996E"/>
<path d="M70.9695 69.9346C70.6584 70.2071 70.2988 70.4186 69.9094 70.5578C69.5541 70.7671 69.1618 70.9061 68.7539 70.9673C69.0637 70.6954 69.4217 70.484 69.8094 70.344C70.1665 70.135 70.5602 69.996 70.9695 69.9346Z" fill="#EB996E"/>
<path d="M71.6211 71.968C71.6211 71.9362 71.8258 71.7997 72.1943 71.6405L72.8494 71.372L73.227 71.2128C73.3531 71.165 73.4644 71.085 73.55 70.9808C73.9458 70.5259 74.2688 70.0709 74.5281 69.7661C74.7875 69.4613 74.9831 69.2702 75.0058 69.3112C74.98 69.3643 74.9511 69.416 74.9194 69.4659L74.6646 69.8662C74.3795 70.3113 74.0649 70.7369 73.7229 71.14C73.6678 71.2033 73.6069 71.2611 73.5409 71.3129C73.4725 71.3587 73.3993 71.3968 73.3226 71.4266L72.9268 71.5768C72.6766 71.6678 72.4445 71.736 72.2535 71.7997C72.0503 71.8812 71.8379 71.9378 71.6211 71.968Z" fill="#EB996E"/>
</svg>
