<svg width="13" height="13" viewBox="0 0 13 13" fill="none" xmlns="http://www.w3.org/2000/svg">
<path d="M1.87409 4.64498L5.53246 2.8158C5.70137 2.73135 5.9002 2.73135 6.06911 2.8158L9.72747 4.64498C10.1697 4.8661 10.1697 5.49718 9.72747 5.7183L6.06911 7.54748C5.9002 7.63193 5.70137 7.63193 5.53246 7.54748L1.87409 5.7183C1.43187 5.49718 1.43186 4.8661 1.87409 4.64498Z" stroke="#3498DB" stroke-linecap="round" stroke-linejoin="round"/>
<path d="M11.3008 7.18164L11.3008 5.43164L10.3008 4.93164" stroke="#3498DB" stroke-linecap="round" stroke-linejoin="round"/>
<path d="M2.30078 5.93164V8.00549C2.30078 8.77773 2.74537 9.48098 3.44298 9.8122L4.94298 10.5244C5.48581 10.7821 6.11575 10.7821 6.65858 10.5244L8.15859 9.81219C8.85619 9.48098 9.30078 8.77774 9.30078 8.00549V5.93164" stroke="#3498DB" stroke-linecap="round" stroke-linejoin="round"/>
</svg>
