<svg width="13" height="13" viewBox="0 0 13 13" fill="none" xmlns="http://www.w3.org/2000/svg">
<g clip-path="url(#clip0_3591_7866)">
<path d="M8.8008 9.45117C10.0508 11.2012 12.0251 9.90874 11.5508 8.20117C11.0279 6.31885 10.68 5.04892 10.4522 4.20841C10.2121 3.32264 9.40699 2.70117 8.48925 2.70117L3.61237 2.70117C2.69463 2.70117 1.89537 3.32609 1.67087 4.21594C1.32503 5.58672 0.998962 6.8473 0.622886 8.20117C0.148562 9.90874 2.12289 11.2012 3.37289 9.45117" stroke="#9B59B6" stroke-linecap="round" stroke-linejoin="round"/>
<path d="M9.04969 4.95117L9.05524 4.95617" stroke="#9B59B6" stroke-linecap="round" stroke-linejoin="round"/>
<path d="M8.29578 4.20117L8.30134 4.20617" stroke="#9B59B6" stroke-linecap="round" stroke-linejoin="round"/>
<path d="M8.29578 5.70117L8.30134 5.70617" stroke="#9B59B6" stroke-linecap="round" stroke-linejoin="round"/>
<path d="M7.54969 4.95117L7.55524 4.95617" stroke="#9B59B6" stroke-linecap="round" stroke-linejoin="round"/>
<path d="M3.55078 4.20117V5.70117" stroke="#9B59B6" stroke-linecap="round" stroke-linejoin="round"/>
<path d="M2.80078 4.95117H4.30078" stroke="#9B59B6" stroke-linecap="round" stroke-linejoin="round"/>
<path d="M4.05078 8.70117C4.60307 8.70117 5.05078 8.25346 5.05078 7.70117C5.05078 7.14889 4.60307 6.70117 4.05078 6.70117C3.4985 6.70117 3.05078 7.14889 3.05078 7.70117C3.05078 8.25346 3.4985 8.70117 4.05078 8.70117Z" stroke="#9B59B6" stroke-linecap="round" stroke-linejoin="round"/>
<path d="M8.05078 8.70117C8.60307 8.70117 9.05078 8.25346 9.05078 7.70117C9.05078 7.14889 8.60307 6.70117 8.05078 6.70117C7.4985 6.70117 7.05078 7.14889 7.05078 7.70117C7.05078 8.25346 7.4985 8.70117 8.05078 8.70117Z" stroke="#9B59B6" stroke-linecap="round" stroke-linejoin="round"/>
</g>
<defs>
<clipPath id="clip0_3591_7866">
<rect width="12" height="12" fill="white" transform="translate(0.0507812 0.701172)"/>
</clipPath>
</defs>
</svg>
