<svg width="13" height="13" viewBox="0 0 13 13" fill="none" xmlns="http://www.w3.org/2000/svg">
<g clip-path="url(#clip0_3591_11385)">
<path d="M3.95078 3.74219H3.15078C2.81941 3.74219 2.55078 4.01082 2.55078 4.34219V8.14219C2.55078 8.47356 2.81941 8.74219 3.15078 8.74219H3.95078C4.28215 8.74219 4.55078 8.47356 4.55078 8.14219V4.34219C4.55078 4.01082 4.28215 3.74219 3.95078 3.74219Z" stroke="#E74C3C" stroke-linecap="round" stroke-linejoin="round"/>
<path d="M9.95078 3.74219H9.15078C8.81941 3.74219 8.55078 4.01082 8.55078 4.34219V8.14219C8.55078 8.47356 8.81941 8.74219 9.15078 8.74219H9.95078C10.2822 8.74219 10.5508 8.47356 10.5508 8.14219V4.34219C10.5508 4.01082 10.2822 3.74219 9.95078 3.74219Z" stroke="#E74C3C" stroke-linecap="round" stroke-linejoin="round"/>
<path d="M1.05078 7.14219V5.34219C1.05078 5.01082 1.31941 4.74219 1.65078 4.74219H1.95078C2.28215 4.74219 2.55078 5.01082 2.55078 5.34219V7.14219C2.55078 7.47356 2.28215 7.74219 1.95078 7.74219H1.65078C1.31941 7.74219 1.05078 7.47356 1.05078 7.14219Z" stroke="#E74C3C" stroke-linecap="round" stroke-linejoin="round"/>
<path d="M12.0508 7.14219V5.34219C12.0508 5.01082 11.7822 4.74219 11.4508 4.74219H11.1508C10.8194 4.74219 10.5508 5.01082 10.5508 5.34219V7.14219C10.5508 7.47356 10.8194 7.74219 11.1508 7.74219H11.4508C11.7822 7.74219 12.0508 7.47356 12.0508 7.14219Z" stroke="#E74C3C" stroke-linecap="round" stroke-linejoin="round"/>
<path d="M4.55078 6.24219H8.55078" stroke="#E74C3C" stroke-linecap="round" stroke-linejoin="round"/>
</g>
<defs>
<clipPath id="clip0_3591_11385">
<rect width="12" height="12" fill="white" transform="translate(0.550781 0.242188)"/>
</clipPath>
</defs>
</svg>
