<svg width="13" height="13" viewBox="0 0 13 13" fill="none" xmlns="http://www.w3.org/2000/svg">
<g clip-path="url(#clip0_3591_12530)">
<path d="M4.55078 4.26172H3.05078C1.94621 4.26172 1.05078 5.15715 1.05078 6.26172V8.76172C1.05078 9.86629 1.94621 10.7617 3.05078 10.7617H9.05078C10.1554 10.7617 11.0508 9.86629 11.0508 8.76172V6.26172C11.0508 5.15715 10.1554 4.26172 9.05078 4.26172H7.55078M4.55078 4.26172V2.36172C4.55078 2.03035 4.81941 1.76172 5.15078 1.76172H6.95078C7.28215 1.76172 7.55078 2.03035 7.55078 2.36172V4.26172M4.55078 4.26172H7.55078M4.55078 4.26172V7.26172M7.55078 4.26172V7.26172" stroke="#8E5C42" stroke-linecap="round" stroke-linejoin="round"/>
</g>
<defs>
<clipPath id="clip0_3591_12530">
<rect width="12" height="12" fill="white" transform="translate(0.0507812 0.261719)"/>
</clipPath>
</defs>
</svg>
