<svg width="13" height="13" viewBox="0 0 13 13" fill="none" xmlns="http://www.w3.org/2000/svg">
<path d="M4.05078 9.18359V8.68359C4.05078 7.30288 5.17007 6.18359 6.55078 6.18359V6.18359C7.93149 6.18359 9.05078 7.30288 9.05078 8.68359V9.18359" stroke="#F1C40F" stroke-linecap="round"/>
<path d="M6.55078 6.18359C7.37921 6.18359 8.05078 5.51202 8.05078 4.68359C8.05078 3.85517 7.37921 3.18359 6.55078 3.18359C5.72235 3.18359 5.05078 3.85517 5.05078 4.68359C5.05078 5.51202 5.72235 6.18359 6.55078 6.18359Z" stroke="#F1C40F" stroke-linecap="round" stroke-linejoin="round"/>
<path d="M11.0508 2.28359V10.0836C11.0508 10.415 10.7822 10.6836 10.4508 10.6836H2.65078C2.31941 10.6836 2.05078 10.415 2.05078 10.0836V2.28359C2.05078 1.95222 2.31941 1.68359 2.65078 1.68359H10.4508C10.7822 1.68359 11.0508 1.95222 11.0508 2.28359Z" stroke="#F1C40F" stroke-linecap="round" stroke-linejoin="round"/>
</svg>
