<svg width="13" height="13" viewBox="0 0 13 13" fill="none" xmlns="http://www.w3.org/2000/svg">
<g clip-path="url(#clip0_3591_11395)">
<path d="M3.90234 9.22266V8.72266C3.90234 7.34194 5.02163 6.22266 6.40234 6.22266V6.22266C7.78306 6.22266 8.90234 7.34194 8.90234 8.72266V9.22266" stroke="#E67E22" stroke-width="0.9" stroke-linecap="round" stroke-linejoin="round"/>
<path d="M0.902344 9.22266V8.72266C0.902344 7.89423 1.57392 7.22266 2.40234 7.22266V7.22266" stroke="#E67E22" stroke-width="0.9" stroke-linecap="round" stroke-linejoin="round"/>
<path d="M11.9023 9.22266V8.72266C11.9023 7.89423 11.2308 7.22266 10.4023 7.22266V7.22266" stroke="#E67E22" stroke-width="0.9" stroke-linecap="round" stroke-linejoin="round"/>
<path d="M6.40234 6.22266C7.23077 6.22266 7.90234 5.55108 7.90234 4.72266C7.90234 3.89423 7.23077 3.22266 6.40234 3.22266C5.57392 3.22266 4.90234 3.89423 4.90234 4.72266C4.90234 5.55108 5.57392 6.22266 6.40234 6.22266Z" stroke="#E67E22" stroke-width="0.9" stroke-linecap="round" stroke-linejoin="round"/>
<path d="M2.40234 7.22266C2.95463 7.22266 3.40234 6.77494 3.40234 6.22266C3.40234 5.67037 2.95463 5.22266 2.40234 5.22266C1.85006 5.22266 1.40234 5.67037 1.40234 6.22266C1.40234 6.77494 1.85006 7.22266 2.40234 7.22266Z" stroke="#E67E22" stroke-width="0.9" stroke-linecap="round" stroke-linejoin="round"/>
<path d="M10.4023 7.22266C10.9546 7.22266 11.4023 6.77494 11.4023 6.22266C11.4023 5.67037 10.9546 5.22266 10.4023 5.22266C9.85006 5.22266 9.40234 5.67037 9.40234 6.22266C9.40234 6.77494 9.85006 7.22266 10.4023 7.22266Z" stroke="#E67E22" stroke-width="0.9" stroke-linecap="round" stroke-linejoin="round"/>
</g>
<defs>
<clipPath id="clip0_3591_11395">
<rect width="12" height="12" fill="white" transform="translate(0.402344 0.222656)"/>
</clipPath>
</defs>
</svg>
