<svg width="13" height="13" viewBox="0 0 13 13" fill="none" xmlns="http://www.w3.org/2000/svg">
<path d="M5.12805 1.29458C5.04282 1.29268 4.95958 1.31978 4.89277 1.37119C4.82595 1.4226 4.77977 1.49509 4.76222 1.57608L3.48096 7.39968L2.7965 8.0636L4.3149 9.53654L5.17301 8.70351C5.27294 8.607 5.35221 8.49223 5.40622 8.36582C5.46023 8.23942 5.48792 8.10388 5.4877 7.96704V1.64972C5.48757 1.55656 5.44985 1.46714 5.38262 1.40065C5.31539 1.33416 5.224 1.29644 5.12805 1.29458ZM3.66303 1.34804C3.71618 1.10685 3.83194 0.882841 3.99933 0.697283C4.16671 0.511725 4.38017 0.370774 4.61944 0.28781C4.85871 0.204845 5.11586 0.182619 5.36646 0.223242C5.61707 0.263865 5.85282 0.365988 6.05134 0.519919C6.24985 0.365834 6.48566 0.263595 6.73634 0.222919C6.98703 0.182244 7.24427 0.204485 7.4836 0.287527C7.72294 0.370569 7.93642 0.511653 8.10376 0.697369C8.27109 0.883085 8.38672 1.10726 8.43965 1.34859L9.65123 6.85632L12.0508 9.18576L8.94317 12.2026L6.13395 9.47544C6.10585 9.4478 6.07813 9.41944 6.05078 9.39034C6.02385 9.41943 5.99612 9.4478 5.96761 9.47544L3.1584 12.2031L0.0507812 9.18631L2.45033 6.85632L3.66303 1.34804ZM7.33991 1.57553C7.32181 1.48873 7.27102 1.41161 7.19745 1.35924C7.12388 1.30688 7.03284 1.28303 6.94213 1.29238C6.85141 1.30173 6.76755 1.34359 6.70695 1.40977C6.64634 1.47596 6.61335 1.56172 6.61442 1.65027V7.96649C6.61442 8.24308 6.72738 8.50821 6.92912 8.70296L7.78722 9.53654L9.3045 8.06305L8.62117 7.39913L7.33991 1.57553Z" fill="#27AE60"/>
</svg>
