<svg width="328" height="202" viewBox="0 0 328 202" fill="none" xmlns="http://www.w3.org/2000/svg">
<g clip-path="url(#clip0_2795_17517)">
<rect y="36.6484" width="327.04" height="165" rx="12" fill="url(#paint0_linear_2795_17517)"/>
<circle cx="77.291" cy="101.628" r="134.748" fill="url(#paint1_linear_2795_17517)"/>
<path d="M16.7047 103V91.08H18.5927V96.328H24.1127V91.08H25.9847V103H24.1127V98.008H18.5927V103H16.7047ZM28.2787 103V94.344H30.0867V103H28.2787ZM28.2787 93.16V91.08H30.0867V93.16H28.2787ZM36.2005 103.192C35.3685 103.192 34.6219 102.995 33.9605 102.6C33.3099 102.195 32.7925 101.651 32.4085 100.968C32.0352 100.285 31.8485 99.5173 31.8485 98.664C31.8485 97.8107 32.0405 97.0427 32.4245 96.36C32.8085 95.6773 33.3259 95.1387 33.9765 94.744C34.6272 94.3493 35.3632 94.152 36.1845 94.152C36.8779 94.152 37.4912 94.2907 38.0245 94.568C38.5579 94.8453 38.9792 95.2293 39.2885 95.72L39.0165 96.136V90.888H40.8085V103H39.0965V101.24L39.3045 101.576C39.0059 102.099 38.5792 102.499 38.0245 102.776C37.4699 103.053 36.8619 103.192 36.2005 103.192ZM36.3765 101.512C36.8779 101.512 37.3259 101.389 37.7205 101.144C38.1259 100.899 38.4405 100.563 38.6645 100.136C38.8992 99.6987 39.0165 99.208 39.0165 98.664C39.0165 98.12 38.8992 97.6347 38.6645 97.208C38.4405 96.7813 38.1259 96.4453 37.7205 96.2C37.3259 95.9547 36.8779 95.832 36.3765 95.832C35.8752 95.832 35.4219 95.9547 35.0165 96.2C34.6112 96.4453 34.2965 96.7813 34.0725 97.208C33.8485 97.6347 33.7365 98.12 33.7365 98.664C33.7365 99.208 33.8485 99.6987 34.0725 100.136C34.2965 100.563 34.6059 100.899 35.0005 101.144C35.4059 101.389 35.8645 101.512 36.3765 101.512ZM46.0073 103.192C45.3566 103.192 44.7859 103.048 44.2953 102.76C43.8046 102.461 43.4206 102.051 43.1433 101.528C42.8766 100.995 42.7433 100.381 42.7433 99.688V94.344H44.5513V99.528C44.5513 99.9227 44.6313 100.269 44.7913 100.568C44.9513 100.867 45.1753 101.101 45.4633 101.272C45.7513 101.432 46.0819 101.512 46.4553 101.512C46.8393 101.512 47.1753 101.427 47.4633 101.256C47.7513 101.085 47.9753 100.845 48.1353 100.536C48.3059 100.227 48.3913 99.864 48.3913 99.448V94.344H50.1833V103H48.4713V101.304L48.6633 101.528C48.4606 102.061 48.1246 102.472 47.6553 102.76C47.1859 103.048 46.6366 103.192 46.0073 103.192ZM52.2943 106.2V94.344H54.0223V96.136L53.8143 95.72C54.1343 95.2293 54.5609 94.8453 55.0943 94.568C55.6276 94.2907 56.2356 94.152 56.9183 94.152C57.7396 94.152 58.4756 94.3493 59.1263 94.744C59.7876 95.1387 60.3049 95.6773 60.6783 96.36C61.0623 97.0427 61.2543 97.8107 61.2543 98.664C61.2543 99.5173 61.0623 100.285 60.6783 100.968C60.3049 101.651 59.7929 102.195 59.1423 102.6C58.4916 102.995 57.7503 103.192 56.9183 103.192C56.2463 103.192 55.6329 103.053 55.0783 102.776C54.5343 102.499 54.1129 102.099 53.8143 101.576L54.1023 101.24V106.2H52.2943ZM56.7423 101.512C57.2543 101.512 57.7076 101.389 58.1023 101.144C58.4969 100.899 58.8063 100.563 59.0303 100.136C59.2649 99.6987 59.3823 99.208 59.3823 98.664C59.3823 98.12 59.2649 97.6347 59.0303 97.208C58.8063 96.7813 58.4969 96.4453 58.1023 96.2C57.7076 95.9547 57.2543 95.832 56.7423 95.832C56.2409 95.832 55.7876 95.9547 55.3823 96.2C54.9876 96.4453 54.6729 96.7813 54.4383 97.208C54.2143 97.6347 54.1023 98.12 54.1023 98.664C54.1023 99.208 54.2143 99.6987 54.4383 100.136C54.6729 100.563 54.9876 100.899 55.3823 101.144C55.7876 101.389 56.2409 101.512 56.7423 101.512ZM63.013 103V94.344H64.741V96.216L64.517 95.928C64.6984 95.3413 65.029 94.8987 65.509 94.6C65.989 94.3013 66.5384 94.152 67.157 94.152C67.8504 94.152 68.4637 94.3387 68.997 94.712C69.541 95.0747 69.9037 95.56 70.085 96.168L69.573 96.216C69.829 95.5227 70.2184 95.0053 70.741 94.664C71.2744 94.3227 71.8824 94.152 72.565 94.152C73.1624 94.152 73.701 94.2907 74.181 94.568C74.6717 94.8453 75.061 95.2293 75.349 95.72C75.637 96.2107 75.781 96.7707 75.781 97.4V103H73.973V97.896C73.973 97.4587 73.893 97.0907 73.733 96.792C73.5837 96.4827 73.3704 96.248 73.093 96.088C72.8264 95.9173 72.5117 95.832 72.149 95.832C71.7864 95.832 71.4664 95.9173 71.189 96.088C70.9117 96.248 70.693 96.4827 70.533 96.792C70.373 97.1013 70.293 97.4693 70.293 97.896V103H68.501V97.896C68.501 97.4587 68.421 97.0907 68.261 96.792C68.1117 96.4827 67.8984 96.248 67.621 96.088C67.3544 95.9173 67.0344 95.832 66.661 95.832C66.2984 95.832 65.9784 95.9173 65.701 96.088C65.4237 96.248 65.205 96.4827 65.045 96.792C64.8957 97.1013 64.821 97.4693 64.821 97.896V103H63.013ZM80.8042 103.192C80.1535 103.192 79.5828 103.048 79.0922 102.76C78.6015 102.461 78.2175 102.051 77.9402 101.528C77.6735 100.995 77.5402 100.381 77.5402 99.688V94.344H79.3482V99.528C79.3482 99.9227 79.4282 100.269 79.5882 100.568C79.7482 100.867 79.9722 101.101 80.2602 101.272C80.5482 101.432 80.8788 101.512 81.2522 101.512C81.6362 101.512 81.9722 101.427 82.2602 101.256C82.5482 101.085 82.7722 100.845 82.9322 100.536C83.1028 100.227 83.1882 99.864 83.1882 99.448V94.344H84.9802V103H83.2682V101.304L83.4602 101.528C83.2575 102.061 82.9215 102.472 82.4522 102.76C81.9828 103.048 81.4335 103.192 80.8042 103.192ZM93.888 103.192C93.056 103.192 92.3094 102.995 91.648 102.6C90.9974 102.195 90.48 101.651 90.096 100.968C89.7227 100.285 89.536 99.5173 89.536 98.664C89.536 97.8107 89.728 97.0427 90.112 96.36C90.496 95.6773 91.0134 95.1387 91.664 94.744C92.3147 94.3493 93.0507 94.152 93.872 94.152C94.5654 94.152 95.1787 94.2907 95.712 94.568C96.2454 94.8453 96.6667 95.2293 96.976 95.72L96.704 96.136V90.888H98.496V103H96.784V101.24L96.992 101.576C96.6934 102.099 96.2667 102.499 95.712 102.776C95.1574 103.053 94.5494 103.192 93.888 103.192ZM94.064 101.512C94.5654 101.512 95.0134 101.389 95.408 101.144C95.8134 100.899 96.128 100.563 96.352 100.136C96.5867 99.6987 96.704 99.208 96.704 98.664C96.704 98.12 96.5867 97.6347 96.352 97.208C96.128 96.7813 95.8134 96.4453 95.408 96.2C95.0134 95.9547 94.5654 95.832 94.064 95.832C93.5627 95.832 93.1094 95.9547 92.704 96.2C92.2987 96.4453 91.984 96.7813 91.76 97.208C91.536 97.6347 91.424 98.12 91.424 98.664C91.424 99.208 91.536 99.6987 91.76 100.136C91.984 100.563 92.2934 100.899 92.688 101.144C93.0934 101.389 93.552 101.512 94.064 101.512ZM100.607 103V94.344H102.415V103H100.607ZM100.607 93.16V91.08H102.415V93.16H100.607ZM107.121 103.192C106.534 103.192 106.017 103.091 105.569 102.888C105.131 102.675 104.79 102.387 104.545 102.024C104.299 101.651 104.177 101.213 104.177 100.712C104.177 100.243 104.278 99.8213 104.481 99.448C104.694 99.0747 105.019 98.76 105.457 98.504C105.894 98.248 106.443 98.0667 107.105 97.96L110.113 97.464V98.888L107.457 99.352C106.977 99.4373 106.625 99.592 106.401 99.816C106.177 100.029 106.065 100.307 106.065 100.648C106.065 100.979 106.187 101.251 106.433 101.464C106.689 101.667 107.014 101.768 107.409 101.768C107.899 101.768 108.326 101.661 108.689 101.448C109.062 101.235 109.35 100.952 109.553 100.6C109.755 100.237 109.857 99.8373 109.857 99.4V97.176C109.857 96.7493 109.697 96.4027 109.377 96.136C109.067 95.8587 108.651 95.72 108.129 95.72C107.649 95.72 107.227 95.848 106.865 96.104C106.513 96.3493 106.251 96.6693 106.081 97.064L104.577 96.312C104.737 95.8853 104.998 95.512 105.361 95.192C105.723 94.8613 106.145 94.6053 106.625 94.424C107.115 94.2427 107.633 94.152 108.177 94.152C108.859 94.152 109.462 94.28 109.985 94.536C110.518 94.792 110.929 95.1493 111.217 95.608C111.515 96.056 111.665 96.5787 111.665 97.176V103H109.937V101.432L110.305 101.48C110.102 101.832 109.841 102.136 109.521 102.392C109.211 102.648 108.854 102.845 108.449 102.984C108.054 103.123 107.611 103.192 107.121 103.192ZM117.366 103.096C116.46 103.096 115.756 102.84 115.254 102.328C114.753 101.816 114.502 101.096 114.502 100.168V95.976H112.982V94.344H113.222C113.628 94.344 113.942 94.2267 114.166 93.992C114.39 93.7573 114.502 93.4373 114.502 93.032V92.36H116.31V94.344H118.278V95.976H116.31V100.088C116.31 100.387 116.358 100.643 116.454 100.856C116.55 101.059 116.705 101.219 116.918 101.336C117.132 101.443 117.409 101.496 117.75 101.496C117.836 101.496 117.932 101.491 118.038 101.48C118.145 101.469 118.246 101.459 118.342 101.448V103C118.193 103.021 118.028 103.043 117.846 103.064C117.665 103.085 117.505 103.096 117.366 103.096ZM123.195 103.192C122.544 103.192 121.973 103.048 121.483 102.76C120.992 102.461 120.608 102.051 120.331 101.528C120.064 100.995 119.931 100.381 119.931 99.688V94.344H121.739V99.528C121.739 99.9227 121.819 100.269 121.979 100.568C122.139 100.867 122.363 101.101 122.651 101.272C122.939 101.432 123.269 101.512 123.643 101.512C124.027 101.512 124.363 101.427 124.651 101.256C124.939 101.085 125.163 100.845 125.323 100.536C125.493 100.227 125.579 99.864 125.579 99.448V94.344H127.371V103H125.659V101.304L125.851 101.528C125.648 102.061 125.312 102.472 124.843 102.76C124.373 103.048 123.824 103.192 123.195 103.192ZM129.482 103V94.344H131.21V96.088L131.05 95.832C131.242 95.2667 131.551 94.8613 131.978 94.616C132.404 94.36 132.916 94.232 133.514 94.232H134.042V95.88H133.29C132.692 95.88 132.207 96.0667 131.834 96.44C131.471 96.8027 131.29 97.3253 131.29 98.008V103H129.482ZM135.279 103V94.344H137.087V103H135.279ZM135.279 93.16V91.08H137.087V93.16H135.279ZM139.201 103V94.344H140.929V96.04L140.721 95.816C140.934 95.272 141.275 94.8613 141.745 94.584C142.214 94.296 142.758 94.152 143.377 94.152C144.017 94.152 144.582 94.2907 145.073 94.568C145.563 94.8453 145.947 95.2293 146.225 95.72C146.502 96.2107 146.641 96.776 146.641 97.416V103H144.849V97.896C144.849 97.4587 144.769 97.0907 144.609 96.792C144.449 96.4827 144.219 96.248 143.921 96.088C143.633 95.9173 143.302 95.832 142.929 95.832C142.555 95.832 142.219 95.9173 141.921 96.088C141.633 96.248 141.409 96.4827 141.249 96.792C141.089 97.1013 141.009 97.4693 141.009 97.896V103H139.201ZM149.04 105.352V104.472C149.392 104.387 149.664 104.221 149.856 103.976C150.048 103.741 150.165 103.416 150.208 103H149.36V100.92H151.2V102.28C151.2 103.133 151.018 103.821 150.656 104.344C150.293 104.867 149.754 105.203 149.04 105.352ZM18.9287 127L15.6487 115.08H17.6487L20.3047 125.4H19.8087L22.5607 115.08H24.5287L27.2807 125.4H26.7687L29.4407 115.08H31.4247L28.1607 127H26.0327L23.2647 116.84H23.8247L21.0407 127H18.9287ZM34.605 127.192C34.0184 127.192 33.501 127.091 33.053 126.888C32.6157 126.675 32.2744 126.387 32.029 126.024C31.7837 125.651 31.661 125.213 31.661 124.712C31.661 124.243 31.7624 123.821 31.965 123.448C32.1784 123.075 32.5037 122.76 32.941 122.504C33.3784 122.248 33.9277 122.067 34.589 121.96L37.597 121.464V122.888L34.941 123.352C34.461 123.437 34.109 123.592 33.885 123.816C33.661 124.029 33.549 124.307 33.549 124.648C33.549 124.979 33.6717 125.251 33.917 125.464C34.173 125.667 34.4984 125.768 34.893 125.768C35.3837 125.768 35.8104 125.661 36.173 125.448C36.5464 125.235 36.8344 124.952 37.037 124.6C37.2397 124.237 37.341 123.837 37.341 123.4V121.176C37.341 120.749 37.181 120.403 36.861 120.136C36.5517 119.859 36.1357 119.72 35.613 119.72C35.133 119.72 34.7117 119.848 34.349 120.104C33.997 120.349 33.7357 120.669 33.565 121.064L32.061 120.312C32.221 119.885 32.4824 119.512 32.845 119.192C33.2077 118.861 33.629 118.605 34.109 118.424C34.5997 118.243 35.117 118.152 35.661 118.152C36.3437 118.152 36.9464 118.28 37.469 118.536C38.0024 118.792 38.413 119.149 38.701 119.608C38.9997 120.056 39.149 120.579 39.149 121.176V127H37.421V125.432L37.789 125.48C37.5864 125.832 37.325 126.136 37.005 126.392C36.6957 126.648 36.3384 126.845 35.933 126.984C35.5384 127.123 35.0957 127.192 34.605 127.192ZM41.263 127V114.888H43.071V123L42.367 122.824L46.703 118.344H48.959L45.695 121.816L49.103 127H47.023L43.983 122.408L45.055 122.264L42.495 124.984L43.071 123.784V127H41.263ZM54.0852 127.096C53.1785 127.096 52.4745 126.84 51.9732 126.328C51.4718 125.816 51.2212 125.096 51.2212 124.168V119.976H49.7012V118.344H49.9412C50.3465 118.344 50.6612 118.227 50.8852 117.992C51.1092 117.757 51.2212 117.437 51.2212 117.032V116.36H53.0292V118.344H54.9972V119.976H53.0292V124.088C53.0292 124.387 53.0772 124.643 53.1732 124.856C53.2692 125.059 53.4238 125.219 53.6372 125.336C53.8505 125.443 54.1278 125.496 54.4692 125.496C54.5545 125.496 54.6505 125.491 54.7572 125.48C54.8638 125.469 54.9652 125.459 55.0612 125.448V127C54.9118 127.021 54.7465 127.043 54.5652 127.064C54.3838 127.085 54.2238 127.096 54.0852 127.096ZM59.9135 127.192C59.2629 127.192 58.6922 127.048 58.2015 126.76C57.7109 126.461 57.3269 126.051 57.0495 125.528C56.7829 124.995 56.6495 124.381 56.6495 123.688V118.344H58.4575V123.528C58.4575 123.923 58.5375 124.269 58.6975 124.568C58.8575 124.867 59.0815 125.101 59.3695 125.272C59.6575 125.432 59.9882 125.512 60.3615 125.512C60.7455 125.512 61.0815 125.427 61.3695 125.256C61.6575 125.085 61.8815 124.845 62.0415 124.536C62.2122 124.227 62.2975 123.864 62.2975 123.448V118.344H64.0895V127H62.3775V125.304L62.5695 125.528C62.3669 126.061 62.0309 126.472 61.5615 126.76C61.0922 127.048 60.5429 127.192 59.9135 127.192ZM66.2005 127V118.344H67.9285V120.216L67.7045 119.928C67.8859 119.341 68.2165 118.899 68.6965 118.6C69.1765 118.301 69.7259 118.152 70.3445 118.152C71.0379 118.152 71.6512 118.339 72.1845 118.712C72.7285 119.075 73.0912 119.56 73.2725 120.168L72.7605 120.216C73.0165 119.523 73.4059 119.005 73.9285 118.664C74.4619 118.323 75.0699 118.152 75.7525 118.152C76.3499 118.152 76.8885 118.291 77.3685 118.568C77.8592 118.845 78.2485 119.229 78.5365 119.72C78.8245 120.211 78.9685 120.771 78.9685 121.4V127H77.1605V121.896C77.1605 121.459 77.0805 121.091 76.9205 120.792C76.7712 120.483 76.5579 120.248 76.2805 120.088C76.0139 119.917 75.6992 119.832 75.3365 119.832C74.9739 119.832 74.6539 119.917 74.3765 120.088C74.0992 120.248 73.8805 120.483 73.7205 120.792C73.5605 121.101 73.4805 121.469 73.4805 121.896V127H71.6885V121.896C71.6885 121.459 71.6085 121.091 71.4485 120.792C71.2992 120.483 71.0859 120.248 70.8085 120.088C70.5419 119.917 70.2219 119.832 69.8485 119.832C69.4859 119.832 69.1659 119.917 68.8885 120.088C68.6112 120.248 68.3925 120.483 68.2325 120.792C68.0832 121.101 68.0085 121.469 68.0085 121.896V127H66.2005ZM83.9917 127.192C83.341 127.192 82.7703 127.048 82.2797 126.76C81.789 126.461 81.405 126.051 81.1277 125.528C80.861 124.995 80.7277 124.381 80.7277 123.688V118.344H82.5357V123.528C82.5357 123.923 82.6157 124.269 82.7757 124.568C82.9357 124.867 83.1597 125.101 83.4477 125.272C83.7357 125.432 84.0663 125.512 84.4397 125.512C84.8237 125.512 85.1597 125.427 85.4477 125.256C85.7357 125.085 85.9597 124.845 86.1197 124.536C86.2903 124.227 86.3757 123.864 86.3757 123.448V118.344H88.1677V127H86.4557V125.304L86.6477 125.528C86.445 126.061 86.109 126.472 85.6397 126.76C85.1703 127.048 84.621 127.192 83.9917 127.192ZM97.0755 127.192C96.2435 127.192 95.4969 126.995 94.8355 126.6C94.1849 126.195 93.6675 125.651 93.2835 124.968C92.9102 124.285 92.7235 123.517 92.7235 122.664C92.7235 121.811 92.9155 121.043 93.2995 120.36C93.6835 119.677 94.2009 119.139 94.8515 118.744C95.5022 118.349 96.2382 118.152 97.0595 118.152C97.7529 118.152 98.3662 118.291 98.8995 118.568C99.4329 118.845 99.8542 119.229 100.164 119.72L99.8915 120.136V114.888H101.684V127H99.9715V125.24L100.18 125.576C99.8809 126.099 99.4542 126.499 98.8995 126.776C98.3449 127.053 97.7369 127.192 97.0755 127.192ZM97.2515 125.512C97.7529 125.512 98.2009 125.389 98.5955 125.144C99.0009 124.899 99.3155 124.563 99.5395 124.136C99.7742 123.699 99.8915 123.208 99.8915 122.664C99.8915 122.12 99.7742 121.635 99.5395 121.208C99.3155 120.781 99.0009 120.445 98.5955 120.2C98.2009 119.955 97.7529 119.832 97.2515 119.832C96.7502 119.832 96.2969 119.955 95.8915 120.2C95.4862 120.445 95.1715 120.781 94.9475 121.208C94.7235 121.635 94.6115 122.12 94.6115 122.664C94.6115 123.208 94.7235 123.699 94.9475 124.136C95.1715 124.563 95.4809 124.899 95.8755 125.144C96.2809 125.389 96.7395 125.512 97.2515 125.512ZM103.794 127V118.344H105.602V127H103.794ZM103.794 117.16V115.08H105.602V117.16H103.794ZM112.34 127.192C111.668 127.192 111.055 127.053 110.5 126.776C109.956 126.499 109.535 126.099 109.236 125.576L109.444 125.24V127H107.716V114.888H109.524V120.136L109.236 119.72C109.556 119.229 109.983 118.845 110.516 118.568C111.049 118.291 111.657 118.152 112.34 118.152C113.161 118.152 113.897 118.349 114.548 118.744C115.209 119.139 115.727 119.677 116.1 120.36C116.484 121.043 116.676 121.811 116.676 122.664C116.676 123.517 116.484 124.285 116.1 124.968C115.727 125.651 115.215 126.195 114.564 126.6C113.913 126.995 113.172 127.192 112.34 127.192ZM112.164 125.512C112.676 125.512 113.129 125.389 113.524 125.144C113.919 124.899 114.228 124.563 114.452 124.136C114.687 123.699 114.804 123.208 114.804 122.664C114.804 122.12 114.687 121.635 114.452 121.208C114.228 120.781 113.919 120.445 113.524 120.2C113.129 119.955 112.676 119.832 112.164 119.832C111.663 119.832 111.209 119.955 110.804 120.2C110.409 120.445 110.095 120.781 109.86 121.208C109.636 121.635 109.524 122.12 109.524 122.664C109.524 123.208 109.636 123.699 109.86 124.136C110.095 124.563 110.409 124.899 110.804 125.144C111.209 125.389 111.663 125.512 112.164 125.512ZM121.027 127.192C120.44 127.192 119.923 127.091 119.475 126.888C119.038 126.675 118.696 126.387 118.451 126.024C118.206 125.651 118.083 125.213 118.083 124.712C118.083 124.243 118.184 123.821 118.387 123.448C118.6 123.075 118.926 122.76 119.363 122.504C119.8 122.248 120.35 122.067 121.011 121.96L124.019 121.464V122.888L121.363 123.352C120.883 123.437 120.531 123.592 120.307 123.816C120.083 124.029 119.971 124.307 119.971 124.648C119.971 124.979 120.094 125.251 120.339 125.464C120.595 125.667 120.92 125.768 121.315 125.768C121.806 125.768 122.232 125.661 122.595 125.448C122.968 125.235 123.256 124.952 123.459 124.6C123.662 124.237 123.763 123.837 123.763 123.4V121.176C123.763 120.749 123.603 120.403 123.283 120.136C122.974 119.859 122.558 119.72 122.035 119.72C121.555 119.72 121.134 119.848 120.771 120.104C120.419 120.349 120.158 120.669 119.987 121.064L118.483 120.312C118.643 119.885 118.904 119.512 119.267 119.192C119.63 118.861 120.051 118.605 120.531 118.424C121.022 118.243 121.539 118.152 122.083 118.152C122.766 118.152 123.368 118.28 123.891 118.536C124.424 118.792 124.835 119.149 125.123 119.608C125.422 120.056 125.571 120.579 125.571 121.176V127H123.843V125.432L124.211 125.48C124.008 125.832 123.747 126.136 123.427 126.392C123.118 126.648 122.76 126.845 122.355 126.984C121.96 127.123 121.518 127.192 121.027 127.192ZM127.685 127V114.888H129.493V127H127.685ZM131.607 127V118.344H133.415V127H131.607ZM131.607 117.16V115.08H133.415V117.16H131.607ZM135.529 127V114.888H137.337V123L136.633 122.824L140.969 118.344H143.225L139.961 121.816L143.369 127H141.289L138.249 122.408L139.321 122.264L136.761 124.984L137.337 123.784V127H135.529ZM144.607 127V118.344H146.415V127H144.607ZM144.607 117.16V115.08H146.415V117.16H144.607ZM148.529 127V118.344H150.257V120.04L150.049 119.816C150.262 119.272 150.603 118.861 151.073 118.584C151.542 118.296 152.086 118.152 152.705 118.152C153.345 118.152 153.91 118.291 154.401 118.568C154.891 118.845 155.275 119.229 155.553 119.72C155.83 120.211 155.969 120.776 155.969 121.416V127H154.177V121.896C154.177 121.459 154.097 121.091 153.937 120.792C153.777 120.483 153.547 120.248 153.249 120.088C152.961 119.917 152.63 119.832 152.257 119.832C151.883 119.832 151.547 119.917 151.249 120.088C150.961 120.248 150.737 120.483 150.577 120.792C150.417 121.101 150.337 121.469 150.337 121.896V127H148.529Z" fill="white"/>
<line x1="20.5164" y1="154.296" x2="45.8244" y2="154.296" stroke="white" stroke-width="2.736" stroke-linecap="round"/>
</g>
<path opacity="0.2" d="M261.559 144.164C261.559 144.164 217.465 170.198 217.465 194.864H305.665C305.659 170.198 261.559 144.164 261.559 144.164Z" fill="#5263F3"/>
<path opacity="0.2" d="M261.564 175.227C261.564 175.227 220.848 185.313 220.848 194.865H302.28C302.28 185.313 261.564 175.227 261.564 175.227Z" fill="#5263F3"/>
<path opacity="0.3" d="M266.914 151.353C275.194 159.495 291.286 177.537 291.286 194.865H280.252C280.252 177.537 271.444 159.495 266.914 151.353Z" fill="white"/>
<path opacity="0.2" d="M261.559 144.165C261.559 144.165 217.465 118.131 217.465 93.4648H305.665C305.659 118.131 261.559 144.165 261.559 144.165Z" fill="#5263F3"/>
<path opacity="0.2" d="M261.563 141.789C261.563 141.789 239.051 130.989 239.051 120.729H284.081C284.081 130.971 261.563 141.789 261.563 141.789Z" fill="#5263F3"/>
<path opacity="0.3" d="M256.758 136.977C248.484 128.835 232.41 110.793 232.41 93.4648H243.444C243.42 110.793 252.21 128.835 256.758 136.977Z" fill="white"/>
<path opacity="0.3" d="M266.914 136.977C275.194 128.835 290.884 108.705 291.286 93.4648H288.346C286.966 112.047 273.466 129.099 266.914 136.977Z" fill="white"/>
<path d="M299.674 84.7588H294.676V85.3588H299.674V84.7588Z" fill="#5263F3"/>
<path d="M316.641 93.0028H316.041C316.039 90.977 315.234 89.0346 313.802 87.6015C312.371 86.1685 310.429 85.362 308.403 85.3588H303.129V84.7588H308.403C310.587 84.7635 312.681 85.6338 314.225 87.179C315.769 88.7242 316.638 90.8184 316.641 93.0028Z" fill="#5263F3"/>
<path d="M308.398 86.8584H214.726C211.333 86.8584 208.582 89.6092 208.582 93.0024V93.9264C208.582 97.3196 211.333 100.07 214.726 100.07H308.398C311.791 100.07 314.542 97.3196 314.542 93.9264V93.0024C314.542 89.6092 311.791 86.8584 308.398 86.8584Z" fill="#5263F3"/>
<path d="M308.398 188.259H214.726C211.333 188.259 208.582 191.01 208.582 194.403V195.327C208.582 198.72 211.333 201.471 214.726 201.471H308.398C311.791 201.471 314.542 198.72 314.542 195.327V194.403C314.542 191.01 311.791 188.259 308.398 188.259Z" fill="#5263F3"/>
<path d="M184.24 134.438L180.172 130.826L187.108 120.176L191.176 123.782L184.24 134.438Z" fill="#FFBCB3"/>
<path d="M181.015 128.534L186.187 132.134C186.231 132.162 186.269 132.198 186.3 132.24C186.33 132.282 186.351 132.33 186.363 132.381C186.375 132.432 186.376 132.484 186.368 132.536C186.359 132.587 186.34 132.636 186.313 132.68L183.721 136.952C183.572 137.167 183.344 137.315 183.087 137.363C182.83 137.411 182.564 137.356 182.347 137.21C180.547 135.932 179.881 135.308 177.727 133.568C175.598 131.895 173.555 130.115 171.607 128.234C170.011 126.578 171.697 124.976 172.543 125.546C174.541 126.902 178.015 128.396 180.025 128.276C180.374 128.248 180.723 128.339 181.015 128.534Z" fill="#263238"/>
<path opacity="0.2" d="M191.17 123.788L187.102 120.176L183.766 125.306L187.936 128.768L191.17 123.788Z" fill="black"/>
<path d="M232.56 70.5858C232.56 70.5858 205.26 68.7198 201.876 77.9718C194.178 99.0078 184.164 121.322 184.164 121.322L192.21 127.148C192.21 127.148 209.22 101.138 214.41 84.4398C224.91 86.9898 243.894 89.1678 250.008 82.1478C255.228 76.1478 251.322 70.5858 251.322 70.5858H232.56Z" fill="#263238"/>
<path opacity="0.3" d="M209.175 86.9355C208.539 89.5035 207.573 96.8595 206.973 101.738C208.299 99.1695 209.559 96.5655 210.693 94.0215L209.175 86.9355Z" fill="black"/>
<path d="M191.692 129.782L182.566 122.63L184.432 118.622L194.632 126.416L191.692 129.782Z" fill="#5263F3"/>
<path d="M178.821 128.205C179.244 128.48 179.694 128.711 180.165 128.895C180.188 128.903 180.213 128.904 180.237 128.899C180.262 128.893 180.284 128.881 180.301 128.863C180.319 128.846 180.331 128.824 180.337 128.799C180.342 128.775 180.341 128.75 180.333 128.727C180.255 128.523 179.571 126.729 178.857 126.555C178.775 126.536 178.689 126.538 178.609 126.561C178.528 126.584 178.454 126.627 178.395 126.687C178.294 126.766 178.217 126.871 178.169 126.99C178.122 127.108 178.106 127.238 178.125 127.365C178.246 127.72 178.494 128.019 178.821 128.205ZM179.979 128.535C179.037 128.127 178.449 127.677 178.383 127.335C178.372 127.251 178.385 127.166 178.418 127.089C178.452 127.012 178.506 126.946 178.575 126.897C178.602 126.867 178.638 126.845 178.677 126.833C178.716 126.822 178.757 126.821 178.797 126.831C179.181 126.927 179.679 127.821 179.979 128.535Z" fill="#5263F3"/>
<path d="M180.139 128.876C180.159 128.882 180.18 128.882 180.199 128.876C180.222 128.878 180.244 128.875 180.265 128.867C180.286 128.858 180.305 128.845 180.319 128.828C180.361 128.78 181.381 127.526 181.231 126.752C181.211 126.653 181.169 126.56 181.108 126.48C181.046 126.4 180.968 126.335 180.877 126.29C180.785 126.232 180.676 126.206 180.568 126.216C180.46 126.226 180.358 126.271 180.277 126.344C179.821 126.77 179.839 128.21 180.109 128.804C180.113 128.83 180.123 128.855 180.139 128.876ZM180.805 126.578C180.849 126.607 180.886 126.644 180.915 126.687C180.943 126.73 180.963 126.779 180.973 126.83C181.063 127.286 180.577 128.072 180.259 128.504C180.091 127.904 180.145 126.836 180.439 126.56C180.499 126.506 180.583 126.452 180.757 126.56L180.805 126.578Z" fill="#5263F3"/>
<path d="M220.109 140.733L214.859 141.783L213.887 127.725L219.221 127.893L220.109 140.733Z" fill="#FFBCB3"/>
<path d="M214.147 139.862L220.147 137.336C220.196 137.312 220.249 137.298 220.304 137.295C220.359 137.292 220.413 137.299 220.465 137.318C220.516 137.336 220.563 137.365 220.604 137.402C220.644 137.439 220.676 137.484 220.699 137.534L222.991 142.142C223.096 142.391 223.098 142.672 222.999 142.923C222.899 143.174 222.704 143.377 222.457 143.486C220.357 144.332 219.313 144.626 216.679 145.742C215.059 146.426 210.679 148.406 208.339 148.988C205.999 149.57 205.471 147.224 206.419 146.768C208.663 145.688 212.383 142.394 213.385 140.576C213.555 140.262 213.823 140.012 214.147 139.862Z" fill="#263238"/>
<path d="M212.656 141.591C213.128 141.375 213.577 141.109 213.994 140.799C214.014 140.783 214.03 140.761 214.04 140.737C214.049 140.713 214.052 140.686 214.048 140.661C214.041 140.635 214.027 140.613 214.008 140.595C213.989 140.577 213.965 140.564 213.94 140.559C213.724 140.511 211.78 140.121 211.234 140.649C211.172 140.709 211.126 140.784 211.102 140.867C211.078 140.95 211.076 141.038 211.096 141.123C211.109 141.252 211.157 141.376 211.234 141.482C211.311 141.587 211.414 141.67 211.534 141.723C211.911 141.819 212.311 141.772 212.656 141.591ZM213.574 140.763C212.704 141.363 211.99 141.621 211.636 141.483C211.557 141.446 211.489 141.389 211.441 141.317C211.392 141.245 211.364 141.161 211.36 141.075C211.348 141.034 211.348 140.991 211.358 140.95C211.369 140.908 211.39 140.871 211.42 140.841C211.714 140.559 212.794 140.631 213.574 140.763Z" fill="#5263F3"/>
<path d="M213.961 140.816C213.982 140.805 214 140.791 214.015 140.774C214.025 140.754 214.031 140.733 214.031 140.711C214.031 140.689 214.025 140.667 214.015 140.648C214.015 140.582 213.463 138.998 212.707 138.704C212.61 138.665 212.505 138.65 212.401 138.659C212.297 138.668 212.196 138.702 212.107 138.758C212.002 138.805 211.916 138.886 211.864 138.989C211.811 139.091 211.796 139.209 211.819 139.322C211.939 139.922 213.205 140.732 213.871 140.822C213.901 140.831 213.933 140.829 213.961 140.816ZM212.323 138.962C212.373 138.941 212.426 138.93 212.479 138.93C212.533 138.93 212.586 138.941 212.635 138.962C213.085 139.136 213.499 139.994 213.703 140.51C213.103 140.312 212.185 139.694 212.107 139.274C212.107 139.196 212.107 139.094 212.269 138.998L212.323 138.962Z" fill="#5263F3"/>
<path opacity="0.2" d="M219.227 127.899L213.887 127.725L214.397 135.069L219.713 134.973L219.227 127.899Z" fill="black"/>
<path d="M245.817 70.5859C245.817 70.5859 206.817 74.2759 208.221 86.0179C210.273 102.956 211.773 132.614 211.773 132.614L221.715 133.004C221.715 133.004 225.447 106.928 223.263 89.5819C233.361 89.5819 255.297 90.1159 259.155 84.8959C263.733 78.7039 261.615 70.5859 261.615 70.5859H245.817Z" fill="#263238"/>
<path d="M222.813 133.616L210.879 133.022L210.453 127.832L223.539 128.732L222.813 133.616Z" fill="#5263F3"/>
<path d="M237.16 36.2001C237.076 37.2741 236.98 38.2281 236.848 39.2301C236.716 40.2321 236.59 41.2101 236.434 42.2001C236.146 44.1741 235.75 46.1361 235.306 48.1101C234.862 50.0841 234.316 52.0521 233.632 54.0381C232.938 56.1273 232.027 58.1382 230.914 60.0381C230.25 61.1558 229.443 62.1824 228.514 63.0921C228.268 63.322 228.01 63.5383 227.74 63.7401C227.494 63.9441 227.248 64.1181 226.996 64.2921C226.516 64.6304 226.017 64.941 225.502 65.2221C223.599 66.2572 221.587 67.0763 219.502 67.6641C218.512 67.9701 217.516 68.2161 216.502 68.4381C215.488 68.6601 214.522 68.8521 213.502 69.0081C211.516 69.3329 209.513 69.5333 207.502 69.6081C207.006 69.629 206.52 69.4697 206.133 69.1596C205.745 68.8494 205.484 68.4095 205.396 67.9212C205.308 67.433 205.4 66.9294 205.655 66.5037C205.91 66.0781 206.31 65.7592 206.782 65.6061L206.86 65.5761C210.378 64.463 213.83 63.1489 217.198 61.6401C218.747 60.9392 220.229 60.0998 221.626 59.1321C221.944 58.9041 222.226 58.6701 222.514 58.4361C222.646 58.3221 222.784 58.2081 222.898 58.0881C223.004 57.9925 223.105 57.8903 223.198 57.7821C223.596 57.3005 223.939 56.7751 224.218 56.2161C224.946 54.7374 225.531 53.1923 225.964 51.6021C226.45 49.9161 226.87 48.1581 227.218 46.3701C227.566 44.5821 227.878 42.7701 228.172 40.9341C228.466 39.0981 228.688 37.2261 228.892 35.4861V35.3841C229.042 34.3319 229.593 33.3784 230.43 32.7227C231.266 32.067 232.323 31.7597 233.381 31.865C234.439 31.9703 235.415 32.4801 236.105 33.2878C236.796 34.0956 237.148 35.1389 237.088 36.2001H237.16Z" fill="#5263F3"/>
<path d="M207.699 64.5264L204.699 64.7124L207.099 70.2324C207.099 70.2324 212.289 70.1184 212.181 67.5624L211.245 66.3624C210.817 65.8238 210.28 65.3818 209.668 65.0654C209.057 64.749 208.386 64.5653 207.699 64.5264Z" fill="#FFBCB3"/>
<path d="M201.414 65.1686L204.006 70.2446H207.096L204.696 64.7246L201.414 65.1686Z" fill="#FFBCB3"/>
<path d="M236.73 27.692L242.532 26.492L247.152 25.826C247.812 25.7182 248.483 25.6879 249.15 25.736C250.923 25.8968 252.605 26.5947 253.97 27.7365C255.336 28.8783 256.321 30.4097 256.794 32.126C257.952 36.326 258.996 41.48 259.794 46.046C260.91 52.388 261.486 61.916 261.594 70.58H234.108C233.508 54.89 230.172 44.78 229.038 38.51C228.696 36.6171 228.986 34.6645 229.863 32.9526C230.741 31.2407 232.156 29.8646 233.892 29.036L236.73 27.692Z" fill="#5263F3"/>
<path d="M234.105 31.1417C234.171 33.7217 234.705 42.9197 237.471 48.1457C237.957 43.2497 243.771 28.3457 243.771 28.3457L234.105 31.1417Z" fill="#F5F5F5"/>
<path opacity="0.3" d="M260.419 50.3549C260.419 50.2589 260.419 50.1689 260.383 50.0669L260.329 49.6349C260.299 49.4009 260.269 49.1669 260.239 48.9449L260.149 48.3029L260.059 47.7029C260.059 47.5349 260.005 47.3609 259.981 47.1989C259.921 46.8149 259.861 46.4429 259.795 46.0769C259.597 44.9549 259.387 43.7909 259.159 42.6209V42.5249C258.931 41.3249 258.697 40.1669 258.445 38.9969V38.9189C258.343 38.4149 258.235 37.9229 258.121 37.4249L257.995 36.8729L257.779 35.9189L257.599 35.1749L257.563 35.0189C257.323 34.0349 257.077 33.0689 256.825 32.1569L252.655 29.9609C253.135 31.8029 253.591 33.8309 254.023 35.9069C253.524 36.1681 253.064 36.4972 252.655 36.8849C251.659 37.7729 251.695 39.6629 252.691 41.9009C255.448 48.3004 256.975 55.1621 257.191 62.1269C257.317 64.9529 257.395 67.8149 257.431 70.5929H261.631C261.511 63.7109 261.127 56.2949 260.419 50.3549Z" fill="black"/>
<path d="M240.367 16.1299L238.009 19.7299L234.805 24.6199C235.218 25.04 235.553 25.5295 235.795 26.0659C236.395 27.2659 236.863 28.1299 234.385 29.8159C233.857 30.1759 233.839 30.7459 233.959 31.3759C234.103 32.1439 234.559 32.9479 237.223 32.4739C239.798 31.9786 242.148 30.6755 243.931 28.7539C244.819 27.8599 244.615 27.1939 243.757 26.2699C241.333 23.6599 240.607 19.4899 240.367 16.1299Z" fill="#FFBCB3"/>
<path d="M234.707 32.564L236.405 33.632L239.165 32.462C238.514 31.8053 237.676 31.3671 236.765 31.208C235.972 31.4712 235.262 31.9389 234.707 32.564Z" fill="#263238"/>
<path d="M236.734 31.2085C238 31.7305 238.636 32.9065 239.212 34.2625C239.212 34.2625 245.278 29.6665 245.404 26.6365C245.08 25.6045 243.562 25.7845 243.562 25.7845C243.562 25.7845 241.714 28.9885 236.734 31.2085Z" fill="white"/>
<path d="M236.734 31.2074C236.142 31.4467 235.64 31.864 235.296 32.4014C234.952 32.9389 234.783 33.57 234.814 34.2074C234.814 34.2074 232.114 31.0394 234.31 28.6454C234.906 28.3327 235.539 28.0969 236.194 27.9434C236.194 27.9434 235.534 29.2634 236.734 31.2074Z" fill="white"/>
<path d="M236.938 33.1338H236.164C235.912 33.5658 235.564 39.1938 235.426 42.1878C235.797 43.9358 236.341 45.6422 237.052 47.2818C237.049 47.3017 237.049 47.3219 237.052 47.3418C237.094 47.4378 237.136 47.5278 237.184 47.6178C237.268 47.7978 237.352 47.9778 237.448 48.1458C237.725 46.2871 238.156 44.4548 238.738 42.6678C237.946 39.1998 236.938 33.1338 236.938 33.1338Z" fill="#263238"/>
<path opacity="0.2" d="M235.602 23.4137L237.57 19.9277C237.606 20.0117 237.654 20.1137 237.702 20.2097C237.875 20.6448 238.015 21.0921 238.122 21.5477C238.482 23.1017 237.282 25.3097 235.956 26.3477C235.902 26.2517 235.854 26.1497 235.8 26.0477C235.564 25.544 235.259 25.0755 234.894 24.6557L234.816 24.5957L235.602 23.4137Z" fill="black"/>
<path d="M226.015 15.9261C225.541 13.7961 228.931 10.8501 228.931 10.8501L224.917 9.45215C223.105 10.7541 224.281 14.4681 226.015 15.9261Z" fill="#263238"/>
<path d="M239.538 9.77022C240.486 15.0982 241.338 18.1702 239.334 21.5722C238.706 22.6893 237.784 23.6133 236.669 24.2443C235.553 24.8754 234.287 25.1893 233.006 25.1522C231.725 25.1152 230.478 24.7285 229.401 24.034C228.324 23.3395 227.458 22.3637 226.896 21.2122C224.646 16.8202 223.476 8.85222 228.054 5.35422C229.024 4.57204 230.182 4.05859 231.414 3.86533C232.645 3.67206 233.905 3.80576 235.068 4.25303C236.231 4.70031 237.256 5.44544 238.041 6.41375C238.825 7.38207 239.341 8.53956 239.538 9.77022Z" fill="#FFBCB3"/>
<path d="M239.609 15.158L237.089 14.468V11.228C237.089 11.228 233.903 9.42795 234.395 7.17795C234.639 5.913 234.983 4.66917 235.421 3.45795C235.421 3.45795 240.473 3.13395 242.021 3.78195C241.62 4.21637 241.185 4.61768 240.719 4.98195C241.931 5.82003 242.97 6.88336 243.779 8.11395C243.147 8.2549 242.555 8.54035 242.051 8.94795C242.051 8.94795 242.711 13.394 239.609 15.158Z" fill="#263238"/>
<path d="M233.816 0.00230853C235.67 1.16631 234.596 3.30231 234.596 3.30231L239.558 3.40431C239.294 1.83831 234.992 -0.0756915 233.816 0.00230853Z" fill="#263238"/>
<path d="M235.753 8.27019C235.399 9.26619 231.379 10.4902 227.713 10.6102C225.886 10.5705 224.078 10.23 222.361 9.60219C222.879 9.07061 223.489 8.63757 224.161 8.32419C221.947 7.7782 219.145 5.8342 218.371 4.2502C219.988 3.67247 221.734 3.56021 223.411 3.92619C222.862 3.46285 222.411 2.89465 222.085 2.25486C221.758 1.61507 221.562 0.916546 221.509 0.200195C221.509 0.200195 230.893 3.92019 234.505 2.37819C238.429 0.698194 241.411 3.8482 238.831 6.2482C236.251 8.6482 235.753 8.27019 235.753 8.27019Z" fill="#263238"/>
<path d="M242.404 13.6282C242.455 14.8033 242.073 15.9563 241.33 16.8682C240.358 18.0262 238.846 17.1022 238.498 15.6682C238.186 14.3662 238.594 12.3562 239.872 11.7322C241.15 11.1082 242.338 12.1702 242.404 13.6282Z" fill="#FFBCB3"/>
<path d="M231.427 14.7257C231.559 15.1457 231.427 15.5597 231.187 15.6617C230.947 15.7637 230.587 15.4997 230.449 15.0617C230.311 14.6237 230.449 14.2277 230.689 14.1257C230.929 14.0237 231.289 14.2817 231.427 14.7257Z" fill="#263238"/>
<path d="M226.775 16.4062C226.907 16.8202 226.775 17.2402 226.535 17.3362C226.295 17.4322 225.935 17.1802 225.797 16.7362C225.659 16.2922 225.797 15.9022 226.037 15.8062C226.277 15.7102 226.637 15.9862 226.775 16.4062Z" fill="#263238"/>
<path d="M228.37 16.1836C228.389 17.4253 228.244 18.6641 227.938 19.8676C228.242 19.9324 228.557 19.9288 228.86 19.8572C229.163 19.7856 229.446 19.6478 229.69 19.4536L228.37 16.1836Z" fill="#A02724"/>
<path d="M231.209 21.0561C231.691 20.8945 232.135 20.6383 232.516 20.3024C232.898 19.9664 233.208 19.5577 233.429 19.1001C233.441 19.0682 233.44 19.0329 233.427 19.0016C233.413 18.9703 233.388 18.9454 233.357 18.9321C233.341 18.9251 233.325 18.9214 233.308 18.9209C233.291 18.9205 233.275 18.9235 233.259 18.9296C233.243 18.9358 233.229 18.945 233.217 18.9568C233.205 18.9685 233.195 18.9826 233.189 18.9981C232.945 19.4943 232.591 19.9277 232.153 20.2649C231.715 20.602 231.205 20.8337 230.663 20.9421C230.646 20.9456 230.63 20.9524 230.616 20.9623C230.602 20.9722 230.59 20.9848 230.581 20.9994C230.572 21.014 230.566 21.0303 230.564 21.0472C230.561 21.0642 230.562 21.0815 230.567 21.0981C230.574 21.1307 230.594 21.1591 230.622 21.1771C230.65 21.1951 230.684 21.2012 230.717 21.1941C230.884 21.1588 231.048 21.1127 231.209 21.0561Z" fill="#263238"/>
<path d="M232.454 12.266C232.491 12.244 232.522 12.2131 232.544 12.176C232.563 12.1482 232.576 12.1168 232.583 12.0838C232.589 12.0508 232.589 12.0168 232.583 11.9838C232.576 11.9508 232.563 11.9195 232.544 11.8917C232.525 11.8639 232.5 11.8402 232.472 11.822C232.135 11.5963 231.747 11.4565 231.344 11.4146C230.94 11.3728 230.532 11.4303 230.156 11.582C230.125 11.5966 230.098 11.6171 230.075 11.6423C230.052 11.6675 230.034 11.697 230.023 11.729C230.011 11.7611 230.006 11.795 230.008 11.829C230.01 11.863 230.018 11.8963 230.033 11.927C230.047 11.9577 230.068 11.9853 230.093 12.0081C230.118 12.0309 230.148 12.0485 230.18 12.06C230.212 12.0714 230.246 12.0764 230.28 12.0747C230.314 12.073 230.347 12.0646 230.378 12.05C230.672 11.9359 230.989 11.8948 231.303 11.9303C231.616 11.9658 231.917 12.0769 232.178 12.254C232.218 12.282 232.265 12.2979 232.314 12.3001C232.363 12.3022 232.411 12.2904 232.454 12.266Z" fill="#263238"/>
<path d="M225.852 13.8802C225.864 13.839 225.864 13.7954 225.852 13.7542C225.825 13.6915 225.775 13.6419 225.712 13.616C225.649 13.5902 225.579 13.5902 225.516 13.6162C225.138 13.7629 224.802 14.0007 224.539 14.3084C224.275 14.6162 224.091 14.9843 224.004 15.3802C224.002 15.4423 224.023 15.503 224.063 15.5509C224.103 15.5989 224.158 15.6309 224.219 15.6412C224.281 15.6514 224.344 15.6391 224.397 15.6066C224.45 15.5741 224.489 15.5235 224.508 15.4642C224.583 15.1555 224.731 14.8694 224.94 14.6302C225.149 14.391 225.412 14.2058 225.708 14.0902C225.748 14.0706 225.782 14.041 225.808 14.0042C225.833 13.9674 225.848 13.9246 225.852 13.8802Z" fill="#263238"/>
<path d="M255.517 29.546C256.177 30.362 256.753 31.1 257.317 31.886C257.881 32.672 258.469 33.452 259.021 34.25C260.143 35.84 261.187 37.49 262.207 39.17C263.227 40.85 264.175 42.602 265.027 44.456C265.952 46.3794 266.685 48.389 267.217 50.456C267.516 51.6576 267.673 52.8899 267.685 54.128C267.67 55.3658 267.493 56.5964 267.157 57.788C266.56 59.8625 265.688 61.8481 264.565 63.692C264.049 64.574 263.491 65.42 262.909 66.236C262.327 67.052 261.709 67.844 261.109 68.606C259.857 70.1382 258.495 71.578 257.035 72.914C256.67 73.2395 256.2 73.4243 255.711 73.435C255.222 73.4458 254.745 73.2818 254.365 72.9726C253.986 72.6634 253.729 72.2291 253.641 71.7478C253.553 71.2664 253.64 70.7694 253.885 70.346L253.939 70.256C255.802 67.233 257.431 64.0718 258.811 60.8C259.43 59.3254 259.881 57.7856 260.155 56.21C260.255 55.5772 260.282 54.9348 260.233 54.296C260.161 53.6637 260.024 53.0404 259.825 52.436C259.306 50.9018 258.654 49.4161 257.875 47.996C257.077 46.49 256.177 44.996 255.217 43.478C254.257 41.96 253.249 40.478 252.217 39.02L250.639 36.824C250.111 36.11 249.559 35.348 249.061 34.694L249.025 34.646C248.349 33.7882 248.041 32.697 248.169 31.6123C248.297 30.5276 248.851 29.5383 249.709 28.862C250.567 28.1857 251.658 27.8778 252.743 28.0061C253.827 28.1343 254.817 28.6882 255.493 29.546H255.517Z" fill="#5263F3"/>
<path d="M198.349 73.8077L249.397 71.4977C249.558 71.4871 249.719 71.5092 249.872 71.5625C250.024 71.6158 250.164 71.6993 250.283 71.8079C250.403 71.9166 250.499 72.0482 250.566 72.1949C250.633 72.3416 250.67 72.5004 250.675 72.6617L197.185 75.0617C197.178 74.9026 197.202 74.7437 197.257 74.5942C197.312 74.4446 197.396 74.3075 197.504 74.1908C197.612 74.0741 197.743 73.9801 197.888 73.9143C198.033 73.8486 198.19 73.8123 198.349 73.8077Z" fill="#5263F3"/>
<g opacity="0.6">
<path d="M198.349 73.8077L249.397 71.4977C249.558 71.4871 249.719 71.5092 249.872 71.5625C250.024 71.6158 250.164 71.6993 250.283 71.8079C250.403 71.9166 250.499 72.0482 250.566 72.1949C250.633 72.3416 250.67 72.5004 250.675 72.6617L197.185 75.0617C197.178 74.9026 197.202 74.7437 197.257 74.5942C197.312 74.4446 197.396 74.3075 197.504 74.1908C197.612 74.0741 197.743 73.9801 197.888 73.9143C198.033 73.8486 198.19 73.8123 198.349 73.8077Z" fill="white"/>
</g>
<path d="M190.222 50.1264L226.54 48.4824C226.773 48.4856 226.999 48.5604 227.188 48.6967C227.377 48.8331 227.52 49.0243 227.596 49.2444L234.568 71.3664C234.606 71.4578 234.62 71.557 234.61 71.6553C234.6 71.7536 234.566 71.8478 234.511 71.9297C234.455 72.0117 234.381 72.0787 234.293 72.1249C234.206 72.171 234.109 72.1949 234.01 72.1944L197.692 73.8384C197.46 73.8362 197.235 73.7624 197.047 73.627C196.859 73.4917 196.718 73.3014 196.642 73.0824L189.67 50.9544C189.633 50.8635 189.618 50.7648 189.628 50.6671C189.638 50.5693 189.671 50.4754 189.726 50.3936C189.78 50.3118 189.854 50.2447 189.941 50.1981C190.027 50.1515 190.124 50.1269 190.222 50.1264Z" fill="#5263F3"/>
<path opacity="0.6" d="M190.222 50.1264L226.54 48.4824C226.773 48.4856 226.999 48.5604 227.188 48.6967C227.377 48.8331 227.52 49.0243 227.596 49.2444L234.568 71.3664C234.606 71.4578 234.62 71.557 234.61 71.6553C234.6 71.7536 234.566 71.8478 234.511 71.9297C234.455 72.0117 234.381 72.0787 234.293 72.1249C234.206 72.171 234.109 72.1949 234.01 72.1944L197.692 73.8384C197.46 73.8362 197.235 73.7624 197.047 73.627C196.859 73.4917 196.718 73.3014 196.642 73.0824L189.67 50.9544C189.633 50.8635 189.618 50.7648 189.628 50.6671C189.638 50.5693 189.671 50.4754 189.726 50.3936C189.78 50.3118 189.854 50.2447 189.941 50.1981C190.027 50.1515 190.124 50.1269 190.222 50.1264Z" fill="#FFF9EB"/>
<path opacity="0.5" d="M227.611 49.2386L234.583 71.3606C234.622 71.4522 234.637 71.5521 234.628 71.6512C234.618 71.7503 234.584 71.8455 234.529 71.9282C234.474 72.011 234.398 72.0786 234.31 72.1251C234.222 72.1716 234.124 72.1955 234.025 72.1946L226.555 48.4766C226.788 48.4797 227.014 48.5545 227.203 48.6909C227.392 48.8272 227.534 49.0185 227.611 49.2386Z" fill="#5263F3"/>
<path opacity="0.5" d="M235.975 72.1035L249.397 71.5035C249.558 71.493 249.72 71.515 249.872 71.5683C250.024 71.6216 250.164 71.7051 250.284 71.8138C250.403 71.9225 250.499 72.0541 250.566 72.2008C250.634 72.3475 250.671 72.5062 250.675 72.6675L234.811 73.3815C234.801 73.2205 234.823 73.059 234.876 72.9067C234.929 72.7544 235.013 72.6144 235.121 72.495C235.23 72.3757 235.362 72.2796 235.508 72.2123C235.655 72.145 235.814 72.108 235.975 72.1035Z" fill="#5263F3"/>
<path d="M252.932 70.0943L249.5 70.5923L253.016 75.4823C253.016 75.4823 258.602 74.5883 257.954 72.1103L256.754 71.1143C256.224 70.6865 255.61 70.3746 254.951 70.1989C254.293 70.0232 253.605 69.9876 252.932 70.0943Z" fill="#FFBCB3"/>
<path d="M245.301 72.0558L249.603 75.8058L253.017 75.4818L249.501 70.5918L245.301 72.0558Z" fill="#FFBCB3"/>
<defs>
<linearGradient id="paint0_linear_2795_17517" x1="327.04" y1="36.6484" x2="327.04" y2="201.648" gradientUnits="userSpaceOnUse">
<stop stop-color="#DFEAFF"/>
<stop offset="1" stop-color="#DFEAFF"/>
</linearGradient>
<linearGradient id="paint1_linear_2795_17517" x1="212.039" y1="101.628" x2="3.76097" y2="101.628" gradientUnits="userSpaceOnUse">
<stop stop-color="#7F94FA"/>
<stop offset="1" stop-color="#5263F3"/>
</linearGradient>
<clipPath id="clip0_2795_17517">
<rect y="36.6484" width="327.04" height="165" rx="12" fill="white"/>
</clipPath>
</defs>
</svg>
