<svg width="24" height="22" viewBox="0 0 24 22" fill="none" xmlns="http://www.w3.org/2000/svg">
<g filter="url(#filter0_d_1493_187)">
<path d="M9 6H4C2.89543 6 2 6.89543 2 8V17C2 18.1046 2.89543 19 4 19H20C21.1046 19 22 18.1046 22 17V8C22 6.89543 21.1046 6 20 6H15M9 6V1.6C9 1.26863 9.26863 1 9.6 1H14.4C14.7314 1 15 1.26863 15 1.6V6M9 6H15M9 6V12M15 6V12" stroke="#8E5C42" stroke-width="1.5" stroke-linecap="round" stroke-linejoin="round" shape-rendering="crispEdges"/>
</g>
<defs>
<filter id="filter0_d_1493_187" x="-2.75" y="0.25" width="29.5" height="27.5" filterUnits="userSpaceOnUse" color-interpolation-filters="sRGB">
<feFlood flood-opacity="0" result="BackgroundImageFix"/>
<feColorMatrix in="SourceAlpha" type="matrix" values="0 0 0 0 0 0 0 0 0 0 0 0 0 0 0 0 0 0 127 0" result="hardAlpha"/>
<feOffset dy="4"/>
<feGaussianBlur stdDeviation="2"/>
<feComposite in2="hardAlpha" operator="out"/>
<feColorMatrix type="matrix" values="0 0 0 0 0 0 0 0 0 0 0 0 0 0 0 0 0 0 0.25 0"/>
<feBlend mode="normal" in2="BackgroundImageFix" result="effect1_dropShadow_1493_187"/>
<feBlend mode="normal" in="SourceGraphic" in2="effect1_dropShadow_1493_187" result="shape"/>
</filter>
</defs>
</svg>
