<svg width="22" height="24" viewBox="0 0 22 24" fill="none" xmlns="http://www.w3.org/2000/svg">
<path d="M9.30833 2.59196C9.15206 2.58831 8.99947 2.64026 8.87698 2.7388C8.75448 2.83734 8.66982 2.97626 8.63763 3.13149L6.28866 14.2934L5.03381 15.5659L7.81755 18.3891L9.39075 16.7924C9.57397 16.6074 9.71928 16.3874 9.8183 16.1452C9.91733 15.9029 9.9681 15.6431 9.96769 15.3808V3.27265C9.96745 3.09408 9.8983 2.9227 9.77504 2.79526C9.65179 2.66782 9.48424 2.59551 9.30833 2.59196ZM6.62246 2.69443C6.71989 2.23214 6.93212 1.80279 7.239 1.44714C7.54588 1.09148 7.93722 0.821328 8.37588 0.662312C8.81454 0.503296 9.28597 0.460697 9.74541 0.538557C10.2049 0.616418 10.6371 0.812154 11.001 1.10719C11.365 0.811859 11.7973 0.6159 12.2569 0.537939C12.7165 0.459979 13.1881 0.502606 13.6268 0.66177C14.0656 0.820935 14.457 1.09135 14.7638 1.4473C15.0706 1.80326 15.2826 2.23293 15.3796 2.69547L17.6008 13.252L22 17.7167L16.3027 23.499L11.1525 18.2719C11.101 18.219 11.0501 18.1646 11 18.1088C10.9506 18.1646 10.8998 18.219 10.8475 18.2719L5.69729 23.5L0 17.7178L4.39918 13.252L6.62246 2.69443ZM13.3634 3.13045C13.3302 2.96408 13.2371 2.81626 13.1022 2.71589C12.9674 2.61552 12.8004 2.56983 12.6341 2.58774C12.4678 2.60565 12.3141 2.68588 12.203 2.81274C12.0919 2.93961 12.0314 3.10397 12.0333 3.27369V15.3798C12.0333 15.9099 12.2404 16.4181 12.6103 16.7914L14.1835 18.3891L16.9652 15.5649L15.7124 14.2923L13.3634 3.13045Z" fill="#27AE60"/>
</svg>
