<svg width="12" height="12" viewBox="0 0 12 12" fill="none" xmlns="http://www.w3.org/2000/svg">
<path d="M6.11945 1.53125C8.59624 1.53125 10.5983 3.53776 10.5983 6.01008C10.5983 8.48687 8.59624 10.4889 6.11945 10.4889C3.64714 10.4889 1.64062 8.48687 1.64062 6.01008C1.64062 3.53776 3.64714 1.53125 6.11945 1.53125ZM5.96269 3.73931C5.77906 3.73931 5.62678 3.88711 5.62678 4.07522V6.33703C5.62678 6.45348 5.68948 6.56097 5.7925 6.62367L7.5482 7.67172C7.60194 7.70307 7.66017 7.72099 7.72287 7.72099C7.83484 7.72099 7.94681 7.66276 8.00952 7.55527C8.10357 7.39851 8.0543 7.19249 7.89307 7.09395L6.2986 6.14444V4.07522C6.2986 3.88711 6.14632 3.73931 5.96269 3.73931Z" fill="#E74C3C"/>
</svg>
