<<<<<<< HEAD
<svg width="12" height="13" viewBox="0 0 12 13" fill="none" xmlns="http://www.w3.org/2000/svg">
<g clip-path="url(#clip0_3557_7893)">
<path d="M8.5 7.14844H6V4.64844" stroke="#5263F3" stroke-linecap="round" stroke-linejoin="round"/>
<path d="M2.5 2.39844L3.5 1.64844" stroke="#5263F3" stroke-linecap="round" stroke-linejoin="round"/>
<path d="M9.5 2.39844L8.5 1.64844" stroke="#5263F3" stroke-linecap="round" stroke-linejoin="round"/>
<path d="M6 11.6484C8.48528 11.6484 10.5 9.63372 10.5 7.14844C10.5 4.66316 8.48528 2.64844 6 2.64844C3.51472 2.64844 1.5 4.66316 1.5 7.14844C1.5 9.63372 3.51472 11.6484 6 11.6484Z" stroke="#5263F3" stroke-linecap="round" stroke-linejoin="round"/>
</g>
<defs>
<clipPath id="clip0_3557_7893">
<rect width="12" height="12" fill="white" transform="translate(0 0.648438)"/>
</clipPath>
</defs>
=======
<svg width="12" height="12" viewBox="0 0 12 12" fill="none" xmlns="http://www.w3.org/2000/svg">
<path d="M8.5 6.5H6V4" stroke="#5263F3" stroke-linecap="round" stroke-linejoin="round"/>
<path d="M2.5 1.75L3.5 1" stroke="#5263F3" stroke-linecap="round" stroke-linejoin="round"/>
<path d="M9.5 1.75L8.5 1" stroke="#5263F3" stroke-linecap="round" stroke-linejoin="round"/>
<path d="M6 11C8.48528 11 10.5 8.98528 10.5 6.5C10.5 4.01472 8.48528 2 6 2C3.51472 2 1.5 4.01472 1.5 6.5C1.5 8.98528 3.51472 11 6 11Z" stroke="#5263F3" stroke-linecap="round" stroke-linejoin="round"/>
>>>>>>> origin/feat/jadwal_fix
</svg>
