<svg width="24" height="24" viewBox="0 0 24 24" fill="none" xmlns="http://www.w3.org/2000/svg">
<g clip-path="url(#clip0_1665_535)">
<g filter="url(#filter0_d_1665_535)">
<path d="M9 8H4C2.89543 8 2 8.89543 2 10V19C2 20.1046 2.89543 21 4 21H20C21.1046 21 22 20.1046 22 19V10C22 8.89543 21.1046 8 20 8H15M9 8V3.6C9 3.26863 9.26863 3 9.6 3H14.4C14.7314 3 15 3.26863 15 3.6V8M9 8H15M9 8V14M15 8V14" stroke="#8E5C42" stroke-width="1.5" stroke-linecap="round" stroke-linejoin="round" shape-rendering="crispEdges"/>
</g>
</g>
<defs>
<filter id="filter0_d_1665_535" x="-2.75" y="2.25" width="29.5" height="27.5" filterUnits="userSpaceOnUse" color-interpolation-filters="sRGB">
<feFlood flood-opacity="0" result="BackgroundImageFix"/>
<feColorMatrix in="SourceAlpha" type="matrix" values="0 0 0 0 0 0 0 0 0 0 0 0 0 0 0 0 0 0 127 0" result="hardAlpha"/>
<feOffset dy="4"/>
<feGaussianBlur stdDeviation="2"/>
<feComposite in2="hardAlpha" operator="out"/>
<feColorMatrix type="matrix" values="0 0 0 0 0 0 0 0 0 0 0 0 0 0 0 0 0 0 0.25 0"/>
<feBlend mode="normal" in2="BackgroundImageFix" result="effect1_dropShadow_1665_535"/>
<feBlend mode="normal" in="SourceGraphic" in2="effect1_dropShadow_1665_535" result="shape"/>
</filter>
<clipPath id="clip0_1665_535">
<rect width="24" height="24" fill="white"/>
</clipPath>
</defs>
</svg>
