<svg width="20" height="20" viewBox="0 0 20 20" fill="none" xmlns="http://www.w3.org/2000/svg">
<path d="M2.5 12.5C4.56897 12.5 6.12069 10 6.12069 10C6.12069 10 7.67241 12.5 9.74138 12.5C11.8103 12.5 13.8793 10 13.8793 10C13.8793 10 15.9483 12.5 17.5 12.5" stroke="#131927" stroke-width="1.5" stroke-linecap="round" stroke-linejoin="round"/>
<path d="M2.5 16.6666C4.56897 16.6666 6.12069 14.1666 6.12069 14.1666C6.12069 14.1666 7.67241 16.6666 9.74138 16.6666C11.8103 16.6666 13.8793 14.1666 13.8793 14.1666C13.8793 14.1666 15.9483 16.6666 17.5 16.6666" stroke="#131927" stroke-width="1.5" stroke-linecap="round" stroke-linejoin="round"/>
<path d="M15.8332 8.33333C15.8332 5.11167 13.2215 2.5 9.99984 2.5C6.77818 2.5 4.1665 5.11167 4.1665 8.33333" stroke="#131927" stroke-width="1.5" stroke-linecap="round" stroke-linejoin="round"/>
</svg>
